<svg xmlns="http://www.w3.org/2000/svg" viewBox="0 0 142.88 138.64"><defs><style>.cls-1{fill:#fff;}.cls-1,.cls-2,.cls-8{stroke:#000;stroke-linecap:round;stroke-linejoin:round;stroke-width:0.5px;}.cls-2{fill:#877f59;opacity:0.58;}.cls-3{fill:#231815;}.cls-4{fill:#65d19b;}.cls-4,.cls-5{opacity:0.37;}.cls-5{fill:#2a7f51;}.cls-6,.cls-7{fill:#2bb1bf;}.cls-6{opacity:0.14;}.cls-7{opacity:0.32;}.cls-8{fill:none;}</style></defs><g id="레이어_2" data-name="레이어 2"><g id="color"><path class="cls-1" d="M122.15,69.88c1.92-.17,4.35-.37,6.07.75,2,1.28,1.93,4.7,2,6.78,0,.43,0,.85,0,1.28a22.83,22.83,0,0,1,3.13-1,10.52,10.52,0,0,1,4.74-.55,5.9,5.9,0,0,1,2.18,1.26c.41.31.8.64,1.18,1s.74.88,1.13,1.06c-1.51-.68-2.74-2-4.37-2.3a6.4,6.4,0,0,0-3.33.57c-1.08.39-2.18.76-3.28,1.11-.61.2-1.24.42-1.87.56s-.8-.12-.79-.77c0-1-.12-2.08-.13-3.13a23.67,23.67,0,0,0-.09-2.38,4.3,4.3,0,0,0-1.22-2.71c-.92-.85-2.14-.89-3.3-1.14A7.27,7.27,0,0,0,122.15,69.88Z"/><path class="cls-1" d="M45.36,12.72c1-1,3.29-2.34,4.72-1.81,1.89.71,1.65,3.92,1.45,5.48,0-.15.53-.5.64-.6.5-.45,1-.89,1.55-1.3.74-.56,2.16-1.83,3.17-1.31S58.13,16,58.25,17c-.12-1-.71-2.63-1.94-2.78-1.38-.16-2.35,1.42-3.06,2.36-.43.56-2.34,2.89-3,1.51a4.15,4.15,0,0,1,0-1.92c0-.62.08-1.25.06-1.88,0-.9-.15-2.3-1.18-2.63-.7-.22-1.67.5-2.28.79-.36.18-.66.46-1,.61S44.85,13.23,45.36,12.72Z"/><path class="cls-1" d="M117.86,25.13c.87-1.34,3.25-3.6,5.16-3.7,2.51-.12,3.28,3,3.55,4.58,0-.16.48-.7.58-.84.46-.64.94-1.27,1.46-1.89.71-.84,2-2.63,3.42-2.56s2.43,2.17,2.9,3.07A3.09,3.09,0,0,0,131.67,22c-1.73.43-2.4,2.33-2.95,3.51-.34.71-1.89,3.71-3.12,2.68-.48-.4-.5-1.25-.63-1.81a14.45,14.45,0,0,0-.54-1.81c-.33-.83-.93-2.11-2.29-2-.92.09-1.87,1.17-2.52,1.71-.37.31-.64.71-1,1S117.41,25.83,117.86,25.13Z"/><path class="cls-1" d="M23.26,31.61a18.24,18.24,0,0,0,.26,3.44,19.16,19.16,0,0,0,1.56,6.23,16.57,16.57,0,0,0,3.59,4.22c.6.59,1.23,1.17,1.89,1.7a5.59,5.59,0,0,0,1.06.74c1.32.62.87-1.68.74-2.28a36.32,36.32,0,0,1-.83-3.54,20,20,0,0,1,.39-6,17.31,17.31,0,0,1,1.74-5.63.31.31,0,0,0,.05-.12c0-.11-.15-.17-.25-.13a1.4,1.4,0,0,0-.42.45,5.61,5.61,0,0,0-.54,1.1c-.4,1-.73,2.07-1.05,3.11A38.85,38.85,0,0,0,30.35,39a12.8,12.8,0,0,0-.16,3.09,6.44,6.44,0,0,0,.66,3.13,28,28,0,0,1-4.63-4.91,10,10,0,0,1-1.46-4.15c-.29-1.49-.42-3-.73-4.49,0-.19-.08-.78-.39-.77S23.31,31.19,23.26,31.61Z"/><path class="cls-2" d="M25.17,138.39s3.18-9.3,24-10.36c0,0,12.44-1.32,12.8-3.56a5.57,5.57,0,0,1,3.89-2,32.64,32.64,0,0,0,5.92-3.11c2.54-1.78,7.54-1.12,7.54-1.12s2.45.33,2.9-1.45,7.18-8.11,17.44-4.42,9.31,8.32,21.68,6.57,10.3-.08,15.84,8.7"/><rect class="cls-3" x="32.31" y="32.62" width="0.33" height="0.33"/><path class="cls-4" d="M68.44,49.38q.45-4.26.88-8.52l.57-5.68c0-.49-.12-1.63.3-2,1.87-1.72,6.58-1.27,9.3-1.12s5.6.39,8.39.65c1.71.17,5.54.1,6.88,1,1.82,1.15,1.13,3.34,1.1,4.82,0,2.47,0,4.95.13,7.42.06,1.32,1.35,4,.14,5.17-1.73,1.67-8.12.07-10.37-.24C80.07,50,74.1,50.24,68.44,49.38Z"/><path class="cls-4" d="M67.2,101.39a.32.32,0,0,1-.12-.35c.64-5.26,1-10.54,1.52-15.81.05-.56-.14-1.86.31-2.31,1.35-1.34,3.87-1.42,6.51-1.38,4,.07,8,0,12,.21,2.13.1,5.5.08,6.9,1,2.5,1.71,1.6,4.8,1.74,6.81.16,2.46,0,4.92.25,7.38.12,1.44,1.19,3.6-2.09,4.4a16,16,0,0,1-5,.2c-3.85-.35-7.52-.91-11.47-.54-3.3.3-6.55.9-9.93.48A1.38,1.38,0,0,1,67.2,101.39Z"/><path class="cls-4" d="M67.2,75.73a.3.3,0,0,1-.12-.34c.64-5.27,1-10.54,1.52-15.82.05-.55-.14-1.86.31-2.3,1.35-1.34,3.87-1.43,6.51-1.38,4,.06,8,0,12,.2,2.13.11,5.5.09,6.9,1,2.5,1.7,1.6,4.8,1.74,6.81.16,2.45,0,4.92.25,7.37.12,1.44,1.19,3.61-2.09,4.41a16,16,0,0,1-5,.2c-3.85-.36-7.52-.91-11.47-.55-3.3.31-6.55.91-9.93.49A1.58,1.58,0,0,1,67.2,75.73Z"/><path class="cls-4" d="M63.93,120.73,66,106s30.2-1.77,31.94,2.29,0,3.57,0,3.57S87,108.7,82.2,116.33c0,0,1,2-2.9,1.3s-13.46,3.8-13.46,3.8Z"/><path class="cls-5" d="M70.67,25.41C69,24,67.79,18.47,69.91,17.08A5.36,5.36,0,0,1,73,16.42a3.44,3.44,0,0,0,1.5-.14c2-.85.38-4.65.08-6.06-.53-2.49-.82-6.39.93-8.52A4.79,4.79,0,0,1,79,.23,45.32,45.32,0,0,1,87.8.55a1.2,1.2,0,0,1,.66.23,1.19,1.19,0,0,1,.28.42c2.17,4.7.43,9.53,1.22,14.35a2.38,2.38,0,0,0,1,1.62,6.66,6.66,0,0,0,1.52.52c3,1,2.54,5.28,1.83,7.71-.9,3.06-5.1,2.36-7.47,2.16-5.11-.43-10.2-1.2-15.29-1.77A1.54,1.54,0,0,1,70.67,25.41Z"/><path class="cls-6" d="M63.55,79.75a72.35,72.35,0,0,0-.95,8.48c-.27,6.32-.35,12.65-1,19-.46,4.69-1.13,17.09-7.91,17.45-10.64.57-32.51,3.63-34.48-.07a9.39,9.39,0,0,1-1.11-7.11,72.89,72.89,0,0,0,1.09-9.55c.15-3.16-.38-6.29.91-9.25,1.79-4.1,5.43-7.21,8-10.83,2.32-3.32,4.79-6.55,7.18-9.82,4.36-5.93,8.6-12.34,13.9-17.5a11.88,11.88,0,0,1,2-1.7c5.36-3.21,11.28-8.62,14.1-4.89,1.14,1.52.78,3.75.75,5.52q-.07,3.47-.41,6.91C65.21,70.89,64.28,75.3,63.55,79.75Z"/><path class="cls-7" d="M24.89,78.89c2.05-.58,4.39-1.14,5.47-3a8.11,8.11,0,0,0,.64-4.3,20.66,20.66,0,0,1,6.35-15.88C41,52.08,45.53,49.5,50,47l6.39-3.63c1.74-1,3.81-2.6,5.81-3a2.82,2.82,0,0,1,2.93,1.13,4.18,4.18,0,0,1,.41,1.89c.22,3.89.43,7.91-.56,11.72-1.06,4.12-3.79,6.14-7.1,8.54A66.22,66.22,0,0,0,49,71.34a12.65,12.65,0,0,0-3.22,4.55c-.39,1.26-.3,2.71-.91,3.9s-1.83,1.58-2.8,2.54a5.38,5.38,0,0,0-1.41,3.48c-.58,9.09-8.85,27.43-4.22,34.76a1.62,1.62,0,0,1,.36,1.06c-.09.76-1.06,1-1.82,1.06-12,.86-11.93-8.27-22.72-14.49-5.13-3-7.57-8-6.15-13.79.47-1.9,1.12-5.83,3.38-6.43"/><path class="cls-7" d="M98.11,39.61a.36.36,0,0,1,.07-.1.53.53,0,0,1,.44-.1c4.16.42,7.74,2.83,11.23,4.92a14.89,14.89,0,0,1,4.63,4.22c1.38,2.06,1.77,4.57,3.2,6.61,1.17,1.65,3,3.8,2.53,6-.35,1.43-1.71,2.39-2.31,3.74s-.46,3.68-2.05,4.6-3.42.47-4.8,2.44a4.84,4.84,0,0,1-.78,1c-1.76,1.52-3.2-3.62-3.63-4.58-2.1-4.7-5.64-9.39-6-14.67C100.29,49,98.84,44.56,98.11,40A.77.77,0,0,1,98.11,39.61Z"/><path class="cls-7" d="M101.93,81a1.68,1.68,0,0,1-2.49-1.07l-.09-.42c-1.89-8-1.82-16.1-2-24.29,0-2-.62-5.47.45-7.18.17-.27,4.28,8.19,4.54,8.82a14.05,14.05,0,0,0,2.76,4.61c1.07,1.11,3,1.63,3.53,3.16a6.92,6.92,0,0,1,.19,2.57c-.15,3.09.83,7.32-1.27,10C106.12,79.05,103.89,79.83,101.93,81Z"/></g><g id="drawing"><path class="cls-8" d="M122.15,69.88c1.92-.17,4.35-.37,6.07.75,2,1.28,1.93,4.7,2,6.78,0,.43,0,.85,0,1.28a22.83,22.83,0,0,1,3.13-1,10.52,10.52,0,0,1,4.74-.55,5.9,5.9,0,0,1,2.18,1.26c.41.31.8.64,1.18,1s.74.88,1.13,1.06c-1.51-.68-2.74-2-4.37-2.3a6.4,6.4,0,0,0-3.33.57c-1.08.39-2.18.76-3.28,1.11-.61.2-1.24.42-1.87.56s-.8-.12-.79-.77c0-1-.12-2.08-.13-3.13a23.67,23.67,0,0,0-.09-2.38,4.3,4.3,0,0,0-1.22-2.71c-.92-.85-2.14-.89-3.3-1.14A7.27,7.27,0,0,0,122.15,69.88Z"/><path class="cls-8" d="M45.36,12.72c1-1,3.29-2.34,4.72-1.81,1.89.71,1.65,3.92,1.45,5.48,0-.15.53-.5.64-.6.5-.45,1-.89,1.55-1.3.74-.56,2.16-1.83,3.17-1.31S58.13,16,58.25,17c-.12-1-.71-2.63-1.94-2.78-1.38-.16-2.35,1.42-3.06,2.36-.43.56-2.34,2.89-3,1.51a4.15,4.15,0,0,1,0-1.92c0-.62.08-1.25.06-1.88,0-.9-.15-2.3-1.18-2.63-.7-.22-1.67.5-2.28.79-.36.18-.66.46-1,.61S44.85,13.23,45.36,12.72Z"/><path class="cls-8" d="M117.86,25.13c.87-1.34,3.25-3.6,5.16-3.7,2.51-.12,3.28,3,3.55,4.58,0-.16.48-.7.58-.84.46-.64.94-1.27,1.46-1.89.71-.84,2-2.63,3.42-2.56s2.43,2.17,2.9,3.07A3.09,3.09,0,0,0,131.67,22c-1.73.43-2.4,2.33-2.95,3.51-.34.71-1.89,3.71-3.12,2.68-.48-.4-.5-1.25-.63-1.81a14.45,14.45,0,0,0-.54-1.81c-.33-.83-.93-2.11-2.29-2-.92.09-1.87,1.17-2.52,1.71-.37.31-.64.71-1,1S117.41,25.83,117.86,25.13Z"/><path class="cls-8" d="M23.26,31.61a18.24,18.24,0,0,0,.26,3.44,19.16,19.16,0,0,0,1.56,6.23,16.57,16.57,0,0,0,3.59,4.22c.6.59,1.23,1.17,1.89,1.7a5.59,5.59,0,0,0,1.06.74c1.32.62.87-1.68.74-2.28a36.32,36.32,0,0,1-.83-3.54,20,20,0,0,1,.39-6,17.31,17.31,0,0,1,1.74-5.63.31.31,0,0,0,.05-.12c0-.11-.15-.17-.25-.13a1.4,1.4,0,0,0-.42.45,5.61,5.61,0,0,0-.54,1.1c-.4,1-.73,2.07-1.05,3.11A38.85,38.85,0,0,0,30.35,39a12.8,12.8,0,0,0-.16,3.09,6.44,6.44,0,0,0,.66,3.13,28,28,0,0,1-4.63-4.91,10,10,0,0,1-1.46-4.15c-.29-1.49-.42-3-.73-4.49,0-.19-.08-.78-.39-.77S23.31,31.19,23.26,31.61Z"/><path class="cls-8" d="M.25,106.63s.65-3.18,6.16-5.09c0,0,13.06.47,13.3-2.35,0,0,.49-3.18,5.35-3.45,0,0,1.87-.63,1.87-2.18,0,0,.24-2.9,2.76-3.18a1.42,1.42,0,0,0,1.7-1.54S32,85.12,34,83.39a15.6,15.6,0,0,0,0-4.09,3.77,3.77,0,0,1,.15-2.9s2.69-5,2-9.63c0,0-.89-6.35,2.68-6.26,0,0,2.27,0,3.49-3a7.88,7.88,0,0,1,2-.76c1.35-.33,2.48.35,3.57-.88a5.06,5.06,0,0,0,1.11-2.37A5.24,5.24,0,0,1,49.77,51a12.14,12.14,0,0,1,2-1.68c.72-.58,1.2-1.44,1.92-2A6.91,6.91,0,0,1,56.37,46s4.78-.91,6.49-3.46c0,0,2.67-3.36,6.4-2.17,1.49.47,2.76-1.25,4.16-1.55a11.61,11.61,0,0,1,2.93-.39c.9,0,1.68.66,2.6.62.69,0,1.42-.2,2.11-.29,3.49-.5,6.93-1.49,10.5-.92a8.8,8.8,0,0,1,4,1.57,5.4,5.4,0,0,1,1.48,1.7,13,13,0,0,0,.72,1.66,5.43,5.43,0,0,0,1.32,1A8.15,8.15,0,0,0,102,45a3,3,0,0,0,1.44,0c.7-.19,1.23-.62,2-.31,1.38.58,1.84,3.05,2.33,4.44.29.79.63,1.55.91,2.35a15.71,15.71,0,0,0,.51,2.15,1.49,1.49,0,0,0,.37.42c1.08.87,2.9-.36,3.51,1.46.48,1.45.89,3.09,2.91,3.72s2,2.46,1.34,2.55-2.55-1.27-2.88,1a2.22,2.22,0,0,0,.55,1.93c.36.36,1,.33,1.3.8a.94.94,0,0,1-.55,1.35,1.42,1.42,0,0,0-1,1.46"/><path class="cls-8" d="M117.24,70.44c-.71.61-1.71,1-2.21,1.91a2.37,2.37,0,0,0-.22,1.42,5.48,5.48,0,0,1,.06,1.34c-.22.89-2.93,4.2-3.77,3.06a5.39,5.39,0,0,1-.46-1.44c-.35-1-1.15-1.9-1.57-2.91-.14-.36-.44-1-.21-1.39s.58-.23.81-.4c.53-.41.91-1.56.21-2-1.06-.66-1.89-2.41-3.17-1.55-1,.67-1.94,1.44-2.91,2.16,0,0-1.34.51-1.55-.81-.18-1.1-.08-2.24-.22-3.35a14.61,14.61,0,0,0-1.23-4,9.8,9.8,0,0,1-.68-3.48c-.18-1.8-.08-7.08-3-5.19-1.08.7-2,2.53-2.93.35,0,0-.49-3.24-2-.45,0,0-.64,1.37-1.52-.27-.25-.47,0-1.28-.32-1.8-.49-.74-1.11,0-1.44.51a3.23,3.23,0,0,0-.47,1.56c-.23,1.58-1.34.92-2.18.14-2.31-2.16-5.15-4.14-8.1-2.17a4.94,4.94,0,0,1-3.11.33,8,8,0,0,1-3.75-1c-2.16-1.36-6.2,3.17-6.2,3.17s-1.49,1.26-2.62.82-2.16.71-2.07,1.9-1.67,4.4-3.1,5.28-3.07-.24-3.31,3.61A4,4,0,0,1,52.14,69c-1.36.85-3,.4-4.23,1.52A13.54,13.54,0,0,0,45,75.41c-2.61,6.44-7.62,36.68,6.82,50.3"/><path class="cls-8" d="M79.62,71.57a14.23,14.23,0,0,0-1.14,14.36C80.75,90.27,85,93,89,95c7.14,3.48,15,4.9,22.58,6.91"/><path class="cls-8" d="M107.54,70.13c0,1.61.16,5.08-1.66,5.65-.93.28-1.71-.51-2.46-1a4.32,4.32,0,0,0-2.72-.57c-3.77.42,2.68,6.37-1.27,6.22,0,0-1.5,0-1.5-2.43,0,0,.49-2.59-1.58-.27l-.49,1.18c0,.09-.53-.29-.56-.32-.76-.89.42-2.08-.24-2.9s-2.26-.24-3-.09c1.21-1,3.15-2.93,2.61-4.81-.36-1.22-2.87-1.11-3.86-1.28.71.12,2.39-1,2.89-1.54a1.15,1.15,0,0,0,.37-1.39,7.59,7.59,0,0,1-1-2.53,3.61,3.61,0,0,0-.7-2.3,9.16,9.16,0,0,0-2.11-1.88,9.93,9.93,0,0,0-5.32-1.24c-1.86,0-3.75,0-5.6.05A30.44,30.44,0,0,0,71.78,60,41.33,41.33,0,0,0,54.42,71a33,33,0,0,0-9.11,21,39.55,39.55,0,0,0,5.56,22.58,45.81,45.81,0,0,0,15.6,16.57l.12.07"/><path class="cls-8" d="M76.4,69a12.35,12.35,0,0,0-11.8,4.83c-2.8,3.56-4,8.27-4.26,12.92-.33,5,0,10.26,2.16,14.77C66.09,109.22,73,114.13,80,117.21"/><path class="cls-8" d="M67.32,66.5c-9.54,6.17-16,17.31-14.08,29.89a32.8,32.8,0,0,0,5,13c3.14,4.77,7.56,8.91,12.68,10.65"/><path class="cls-8" d="M40.55,84.21S39,73.58,42.66,71c0,0,1.06-3.36,5.76-5.09"/><path class="cls-8" d="M58.31,50.15A8.82,8.82,0,0,0,63,46.79c1.46-2.45,5.43-3.18,5.43-3.18"/><path class="cls-8" d="M88.48,41.44c.25.09.58,1.32,6.25,2.17s5.51,4.82,5.51,4.82,0,2.18,5,3.27"/><path class="cls-8" d="M106.31,59.14s2.59,3.36,4.5,3.64c0,0,1.67.19,0,3.72"/><path class="cls-8" d="M36,89.29s2.6,2.87,1.14,5.66"/><path class="cls-8" d="M39.42,92.12a3,3,0,0,1,0,3.53"/><path class="cls-8" d="M22.87,103.64s-4.74,20,4.75,26.56"/><path class="cls-8" d="M28.71,103.64s-7.3,9,0,18A45,45,0,0,0,46,134.29"/><path class="cls-8" d="M37.59,103.64s-12.28,9.54.73,17.44a164.44,164.44,0,0,0,21.91,11.44"/><path class="cls-8" d="M51.7,56.24s1.71.68,1.95-1.5"/><path class="cls-8" d="M73.24,45.07s2.13-1.09,3.8,0"/><path class="cls-8" d="M26.89,100.51s1.58-.68,1.58-3.27"/><path class="cls-8" d="M25.17,138.39s3.18-9.3,24-10.36c0,0,12.44-1.32,12.8-3.56a5.57,5.57,0,0,1,3.89-2,32.64,32.64,0,0,0,5.92-3.11c2.54-1.78,7.54-1.12,7.54-1.12s2.45.33,2.9-1.45,7.18-8.11,17.44-4.42,9.31,8.32,21.68,6.57,10.3-.08,15.84,8.7"/><path class="cls-8" d="M66.6,62.87,64.31,92.7c-1.16,3.41.74,4.4.74,4.4,1.84.82,2-1.81,2-1.81l1.71-28.61c.08-3.19,1.84-3,1.84-3,8.44-3.66,20.51.27,20.51.27,3.35.24,2.84,2.19,2.84,2.19S95.36,95.92,96,99.41s-1.16,2.89-1.16,2.89l-17.4-1.66s0-5.17,0-7.54-.8-2.29-2.6-2.56a1.47,1.47,0,0,0-1.75,1.57s0,6-.18,7.82-1.43,1.92-1.43,1.92-3.43.43-6,.85-2.16,1.94-2.16,1.94l-.51,5-1.92,15.16"/><path class="cls-8" d="M96.14,110.42l.24-4.74c-.79-1.45-16.91-1.85-16.91-1.85-2.32,0-9.81,1-9.81,1-3.82,0-3.11,2.75-3.11,2.75s.53,11.53-.6,14.12"/><path class="cls-8" d="M99.75,111.55s-1.07-8-1.17-9.18-1.13-15-.79-16.12l-.63-3.1s-1.28-23.42-2-26.28S93.91,35.49,94,33"/><path class="cls-8" d="M70.07,30A1.12,1.12,0,0,0,68.76,31c-.19,1.29-.39,3.44-.39,3.44s0,2.57-.13,4.1-.89,11.51-.89,11.51L67,54.28s-.31,2.1,1,2.21a1.51,1.51,0,0,0,1.62-1.09,11.12,11.12,0,0,1,0-1.65c.09-.33.36-1.71.36-1.71l.65-18a1.85,1.85,0,0,1,1.59-2.2c2-.52,11.22-2.12,15.24-.75s5,1.11,4.71,3a33.61,33.61,0,0,0,.38,6.22s1.2,15.52.85,17.53L94,60.52s.25,2.26-1.61,1.26S90,61.1,90,61.1s-.91.16-1.15-1.31,0-8.64-.72-9.48L85,50.09l-.64,8.79s.55,1.15-1.86,1.39-11.14.43-11.14.43"/><path class="cls-8" d="M75.27,28.23s14.11-.7,17.33,2.05V26.13s0-1-1.84-1.52-8.78-2-12-1.5-9.65,1.77-9.65,1.77-1,.85-1.09-.51-.37-5-.37-5-.43-1.81,2.43-2.31l2.52-.69s.52.1.52-1.13,0-9.62,0-9.62S73.52,3,74.47,2"/><path class="cls-8" d="M85.19.25l1.94,3.42s-.55,1-2.64.68-2.16-.81-4.71.07c0,0-4.24-.49-4.8.39s-1.53,1,.84,1.36,10.32,0,10.32,0a1.52,1.52,0,0,1,1.72,1.71c0,1.9,0,8.27,0,8.27s0,.52,1.09.48,3.24,1.1,3.4,1.78.28,3.4.28,3.4.49.94,1.34.81.74-.7.79-1.32"/></g></g></svg>