<svg xmlns="http://www.w3.org/2000/svg" viewBox="0 0 149.97 162.23"><defs><style>.cls-1,.cls-6{fill:#fff;stroke-miterlimit:10;stroke-width:0.25px;}.cls-1{stroke:#000;}.cls-2{fill:#738bcf;opacity:0.4;}.cls-3{fill:#d4dff8;}.cls-3,.cls-4{opacity:0.5;}.cls-4{fill:#f2f6fc;}.cls-5{fill:none;stroke-linecap:round;stroke-linejoin:round;stroke-width:0.5px;}.cls-5,.cls-6{stroke:#231815;}</style></defs><g id="레이어_2" data-name="레이어 2"><g id="color"><polygon class="cls-1" points="8.32 32.95 10.76 36.18 8.5 39.44 5.86 36.24 8.32 32.95"/><polygon class="cls-1" points="125.89 0.21 128.33 3.44 126.07 6.7 123.43 3.5 125.89 0.21"/><polygon class="cls-1" points="147.37 105.76 149.81 108.99 147.55 112.25 144.91 109.05 147.37 105.76"/><polygon class="cls-1" points="19.32 155.53 21.77 158.76 19.5 162.02 16.86 158.82 19.32 155.53"/></g><g id="drawing"><path class="cls-2" d="M56.81,141.53l22.3-108s.37-4.21-1.8-4.7-2.14-2.3-3.63-3.2-2.32-5.22-2.32-5.22-2.44-2.3,0-3.1,5.53-4.72,6-4.19,4.46,3.2,5.42,2.72a24.13,24.13,0,0,1,7.83-2.15c3.65-.34,10.23-.63,11.22-.55s4.1,2.28,4.82,3a43.83,43.83,0,0,1,3,4.76L116,47.7l8.35,58.71s-3.22-2.31-11.85-4-12.07,17-12.07,17l-10.54,5.83L84.46,131l-1.64,2.16L80,139.55l-6.34,2.91s-6.23.17-7.18.51-6-.29-6-.29Z"/><path class="cls-3" d="M19.31,149s-17.39-4.12-18.16-8l4.47-7.82s9.87,6.34,12.62,9.79,4,.6,4,.6Z"/><path class="cls-3" d="M99.21,128.8s2.66-16.36,4.1-18.57,5.48-8.7,9.15-7.81,6.27,1.49,6.27,1.49,5.85,0,5.58,2.5S123,118.17,123,118.17s-2.2,2.45-3.15,2.47l0,4.6s-2.11,3.92-4.18,5.07-9.18,2.49-10.51,2.27S100.92,132.66,99.21,128.8Z"/><path class="cls-2" d="M31.92,145.5s-11.58.33-21.72-9.85l-4.58-2.47s-3.84.45-1.27-5.12,10.33-21.74,10.33-21.74S19.42,93.17,20.77,90s6.1-14,6.56-15.09S38.06,50.2,38.06,50.2L44.59,38l6.7-3.87a9.45,9.45,0,0,1,1-5.25,11.2,11.2,0,0,1,5.68-6,42.49,42.49,0,0,0,0,6c.26,1.57.38,5.6.38,5.6l-3,15.73-2.48,16s-2.19,7.75-2.19,8.44-.29,6.82-.29,6.82L45.8,95.71l-2.75,17.73-1.43,10.09-5.13,12.93Z"/><path class="cls-4" d="M58,28.87s-3.48-4.84,0-6,13.36-2.44,13.36-2.44l2.32,5.22L79,31.56,76.9,44.24,56.81,141.53S51,143.05,49.08,143s-7.23-.92-7.93-1.1-6.35-2.14-6.35-2.14,5.29-13.34,5.78-13.11,3.19-9.15,3.19-9.15l-.72-4L49.5,85.33s2.43-15,2.27-15.12A69.94,69.94,0,0,1,53.71,61c.42-.83,1.65-10.82,1.65-10.82Z"/><path class="cls-4" d="M89.85,125.24s9.56,2.25,9.88,0,.66-5.83.66-5.83L92.61,123Z"/><path class="cls-5" d="M120,121.07a9,9,0,0,1-6.41,10.38c-8.1,2.75-12.22,0-12.22,0s-3.82-1.83-.91-4.58a29.83,29.83,0,0,1,7.63-4.73s1.83-1.53,5.5-1.07,8.09-.61,8.86-1.68.61-2.6.76-3.51,1.07-9.47,1.07-9.47l-6-41.08s-2.14-18.48-3-20.46S109,18.6,109,18.6s-4.74-5-6.26-5.34-15.89,0-19.09,2.13-7.33-.76-7.33-.76l-4.89,3.66a27.11,27.11,0,0,0,0,5c.31,1.38,3.21,4.59,3.67,5s2.29,1.23,2.59,1.68,1.53,2.6,1.38,3.52L77.27,44,73.61,64,69.79,82.89s0,4.28-1.13,6.41-2.84,8.4-2.84,8.4l-9,43.83a20.06,20.06,0,0,0,6.41,1.53c3.36.15,3.67,1.07,8.1,0s7.94-2.14,8.7-3.51,2.6-6.11,3.06-6.88,4.12-4.73,5.34-5.19,2.75-4.12,4.12-4.58,6.88-3.21,6.88-3.21l1.31-.38s-1.54,9.43-1.52,9.49,1.35-9.41,1.52-10.23,2.58-8.34,2.58-8.34L102.85,97s-1-10.31-1-11.61S101.55,76,101.78,75s-.3-9.4-.3-9.4-.12-3.84.06-6.78a12.47,12.47,0,0,1,.4-2.84c.68-2,1.29-17.94,1.29-17.94l.61-12.37"/><path class="cls-5" d="M85.1,28.87s-1.95,7.67-2.52,10.19-.11,37-1.49,40.66-1.6,8-2.52,12.26.35,9.85,0,14.2,2.18,19.24,2.52,21.64.37,5.35.69,6.19"/><path class="cls-5" d="M94.92,61c.9-2.15,1.82-4.42,1.55-6.74a17.16,17.16,0,0,0-1.59-4.63c-2.11-4.95-.92-11.71-4-16.13-2-2.85.88-3.11-1-6.07"/><path class="cls-5" d="M71.36,20.45c-4.11,1.37-8.65.35-12.67,2.15-1.39.62-3.37,1.2-4.42,2.33a3.09,3.09,0,0,0-.52.92c-1.14,2.72-3.41,5.77-2,8.63,0,0-1.37,1.53-.92,2.75,1.8,4.8,1.44,10.07,1.24,15.09s2,10.28.47,15.28C52.1,69.1,51.26,70.45,51,72a27.14,27.14,0,0,0-.22,4.77,53,53,0,0,1-1.61,10.3c-2.09,9.28-4.86,18.64-6.34,28-.24,1.55-.12,3.1-.34,4.69-.95,6.63-4.56,12.42-7,18.54-.6,1.51-3.44,7-3.51,7.18-.6,1.16-1.58.25-3.09-.24-2.56-.83-5.35-.73-7.83-1.86-2.76-1.26-4.94-3.73-7.38-5.49a49.91,49.91,0,0,0-8.78-5.09c-.69-.32-1.48-.73-1.6-1.47a2.18,2.18,0,0,1,.23-1.17c3.67-9.2,9-17.58,12.43-26.95,1.09-3,2.08-6,3.2-9,1.55-4.15,3.34-8.21,5.12-12.27L34.46,58.66c3.09-7,5.67-14.42,10.13-20.67.77-1.06,6.7-3.87,6.7-3.87"/><path class="cls-5" d="M5.62,133.18s-4,7.47-4.47,7.82,2.24,2.17,2.24,2.17,11.73,6,14.71,6-.46-1.49-.46-1.49-5.73-2.41-6.87-3-3.09-1.37-3.9-1.72a27.76,27.76,0,0,0-2.74-1c-.81-.23-2.7-1-2.7-1"/><path class="cls-5" d="M19.31,149s2.85-4.16,2.91-4.76"/><path class="cls-5" d="M52.11,49.65C47.86,61.17,43.6,72.7,38.76,84c-2,4.56-4.35,8.91-6.4,13.42s-3,9.57-5.45,13.79c-1.41,2.4-3.14,4.66-4.69,7"/><path class="cls-5" d="M5.5,131.6a63.36,63.36,0,0,1,4.89-9.52c1.63-2.85,2.93-5.85,4.5-8.72a60.4,60.4,0,0,0,4.92-11.61c1.06-3.46,3.45-6.31,5.79-9.07"/><path class="cls-5" d="M34.8,139.73s12.85,5.89,22,1.8"/><path class="cls-5" d="M89.85,126s7.3.48,9.88-.78"/><path class="cls-5" d="M91.33,123.94s6.17.65,8.73-1"/><path class="cls-5" d="M116.67,111.75a1.83,1.83,0,0,1,.62-1.82,2.1,2.1,0,0,1,1.69-.15,2.57,2.57,0,0,1,1.16.53,2,2,0,0,1,.55,1,5.91,5.91,0,0,1,.14,1.11,1,1,0,0,1-.1.62.81.81,0,0,1-.4.28,2.83,2.83,0,0,1-3.66-1.53"/><path class="cls-5" d="M118.12,109.92a1.85,1.85,0,0,0-.67,1.66,2.68,2.68,0,0,0,1.28,1.86"/><path class="cls-5" d="M71.47,23.33s-8.17,4.89-8.47,5-3,.15-3.29.53-1.22.38-1.45,1.61.38,3.58,0,4.73-1.91,10.15-1.91,10.15l-2.44,12a25.86,25.86,0,0,0-1,5.82"/><path class="cls-5" d="M51.77,34.47c1.74-.32,4.59-1.08,5.37-2.89a5.52,5.52,0,0,0,.3-1.9A17.63,17.63,0,0,1,58.36,25a5.88,5.88,0,0,1,2.11-3.15"/><path class="cls-5" d="M55.36,50.2a33.5,33.5,0,0,1,.48,15.64C54.7,71,52.57,76,52.28,81.38c-.18,3.22.3,6.44,0,9.66s-1.4,6.56-1.69,10c-.23,2.62.15,5.24.06,7.85-.15,4.51-.18,9-.27,13.54,0,1,0,2,0,3,0,.64.12,1.27.15,1.91.06.89,0,1.79,0,2.69-.07,3.21-.28,6.44-.18,9.66a1.66,1.66,0,0,0,.61,1.37,2.06,2.06,0,0,0,1.43.17l4.54-.56"/><path class="cls-5" d="M52.12,85.33a113.25,113.25,0,0,0-2.52,26c0,9-.79,18.11-1.16,27.13a4.45,4.45,0,0,1-.61,2.48c-1.8,2.4-10.32-1.61-12.4-2.59"/><path class="cls-5" d="M103.31,110.23s5.15-9.32,10.54-7.6,7,1.49,7,1.49,3.63.77,3.47,2.29"/><path class="cls-5" d="M113.62,121.07a27.94,27.94,0,0,0-7.11,3.11,28.49,28.49,0,0,0-3.76,2.4,23.94,23.94,0,0,0-1.93,1.7,1.18,1.18,0,0,0-.43.87,1.55,1.55,0,0,0,.18.51,3,3,0,0,0,1.88,1.6,15.39,15.39,0,0,0,8.5.55,19.36,19.36,0,0,0,6.24-2.32"/><path class="cls-5" d="M73.68,25.67c.59-2,2.45-3.24,4.09-4.49s3.3-3,3.15-5"/><path class="cls-6" d="M35.23,59.21s11.82-7.39,31.31-.74c14,4.78,29.74,10.26,43.1,1-2.67,5.4-10.32,8.36-15.9,9-7,.84-14-1.3-20.68-3.06C60.67,62.17,48.32,56.59,35.23,59.21Z"/><path class="cls-6" d="M11.05,72.28C17.64,67.2,26.29,65,34.52,65c5.63,0,10.88,1.41,16.34,2.74,19.7,4.81,43.56,16.3,63.3,5.18A29.25,29.25,0,0,0,126,60.63C123.25,70,114.93,77,105.66,80s-19.38,2.37-28.88.21c-10-2.28-19.42-6.62-29.34-9.1l-.68-.17c-9.2-2.22-19.1-3.27-28.42-1.12A67.1,67.1,0,0,0,11.05,72.28Z"/><path class="cls-6" d="M.09,88.89c9.25-9.51,24-14.34,37-13a83.3,83.3,0,0,1,18.2,4c3.79,1.28,7.29,3.15,11,4.68a71.17,71.17,0,0,0,22,5.69c6.83.51,14-.44,19.75-4.42-1.44,1-2.46,2.72-4.06,3.74-4.52,2.89-10.07,3.83-15.35,3.85-10.71.05-19.8-3.32-29.55-7.21a85.23,85.23,0,0,0-19.85-5.36,62.55,62.55,0,0,0-21.36.51C12.2,82.5,4.27,84.59.09,88.89Z"/><path class="cls-6" d="M25.93,93.38c7.84-3.14,16.2-2.8,24.46-1.4,11,1.87,21.34,6.59,32.37,8.39A52.94,52.94,0,0,0,110,98.08a79.68,79.68,0,0,0,19.33-10.82c-3.25,2.43-5.61,6.08-8.85,8.61a52.24,52.24,0,0,1-11.67,6.65C98.36,107,86.88,107.19,76,104.33c-9.12-2.4-17.69-6.59-26.82-9.08C42.29,93.37,32.93,90.57,25.93,93.38Z"/></g></g></svg>