<svg xmlns="http://www.w3.org/2000/svg" viewBox="0 0 172.05 194.74"><defs><style>.cls-1{isolation:isolate;}.cls-2,.cls-9{fill:#ffea94;}.cls-2{opacity:0.5;}.cls-3{fill:#ff994e;}.cls-3,.cls-7{mix-blend-mode:multiply;}.cls-3,.cls-5{opacity:0.47;}.cls-4{fill:#e6beb2;opacity:0.34;}.cls-5,.cls-7,.cls-8{fill:#ffcbb1;}.cls-6{fill:#cdc9b3;}.cls-9{opacity:0.6;}.cls-10{fill:none;stroke:#231815;stroke-linecap:round;stroke-linejoin:round;stroke-width:0.5px;}</style></defs><g class="cls-1"><g id="레이어_2" data-name="레이어 2"><g id="color"><path class="cls-2" d="M35.92,20.82c3.22,3.1,5.28,8,3.28,12.34-1,2.1-3,6.32-5.62,6.69S29.84,35,29.67,32.93a16.35,16.35,0,0,1,1.25-7.31c.7-1.73,1.3-4,2.85-5.17a1.53,1.53,0,0,1,.87-.36,1.87,1.87,0,0,1,1.16.61Z"/><path class="cls-2" d="M27.55,16.71s8-10,13.72-9.25S37.4,22.08,37.4,22.08s-1.43,4-10.06-2.24A2.54,2.54,0,0,1,27.55,16.71Z"/><path class="cls-3" d="M95.79,178.17c-3.33.8-6.58.63-7.79-3a27.65,27.65,0,0,1-1.12-8.91,26.35,26.35,0,0,1,2-10.65c1.14-2.47,3.16-5,6-5.44,3.21-.51,6.29,1.78,8.5,3.82a45.47,45.47,0,0,1,4.88,5.5,48.7,48.7,0,0,1,4.39,6.21l.08.14a4.86,4.86,0,0,1,.77,2.84,4.66,4.66,0,0,1-2.19,3,39.89,39.89,0,0,1-7.46,3.63A50,50,0,0,1,95.79,178.17Z"/><path class="cls-4" d="M54.42,73.14A83.74,83.74,0,0,0,50.23,86a122.11,122.11,0,0,0-3.21,31c.21,9.86,1,20.57,4,30s10.51,18.49,21.43,17.22c5.41-.62,10.6-3.1,15.67-5q9.38-3.45,18.71-7c13-5,26.23-10,39-15.74,9.5-4.25,18.85-11.23,21.14-22,1.21-5.63-.3-10.52-2.4-15.67q-3.28-8.12-7.12-16c-8-16.41-17.36-34.78-31.29-46.95-14.25-12.45-35.18-1.72-48,7.46-2,1.44-4,2.93-5.88,4.56A68.91,68.91,0,0,0,54.42,73.14Z"/><path class="cls-5" d="M52.84,25.09c.25-3.92,1.06-7.68,4.27-10.41,5.12-4.37,12.83-5.51,19.25-6.62,8.46-1.45,17.22-2.51,25.78-1.19,16.68,2.58,32.33,15.69,41.68,29.25,2,3,3.69,6.15,5.68,9.14s4.19,6.37,5.07,10.09c1.49,6.29-4.3,10.88-8.68,14.25-8.52,6.59-18.1,12.93-28.81,15.14-7.22,1.49-14.52,2.61-21.84,3.47-6.84.8-15.9,3.12-22.43.16-10-4.53-13.39-15.8-16-25.65A118.86,118.86,0,0,1,52.84,25.09Z"/><path class="cls-3" d="M39.64,129.72s-2.16-13.32,4.16-20.44c7.47-8.41,18.56,9.08,21.81,14.25a3.59,3.59,0,0,1,.65,2.13c-.17,1.93-2.64,3.53-4.14,4.43A34.22,34.22,0,0,1,56,132.8c-3.49,1.26-7.36,3.37-11.17,2.83C41.77,135.2,40.11,132.58,39.64,129.72Z"/><path class="cls-6" d="M74.29,116.14c-.07.17-.14.34-.2.51-.23.59-.65,1.43-.08,2a1.84,1.84,0,0,0,.81.38,12.59,12.59,0,0,0,5.22.23,15.57,15.57,0,0,0,5.78-2.78,66.54,66.54,0,0,0,6.11-4.87c2.9-2.49,5.81-5.23,7.6-8.68a9.44,9.44,0,0,0,1.27-3.75c0-.28-2.12-.6-2.29-.62a14.41,14.41,0,0,0-6.42.64,22.81,22.81,0,0,0-6.71,4.13,53,53,0,0,0-7.86,7.56A21.32,21.32,0,0,0,75,114.58C74.78,115.08,74.52,115.61,74.29,116.14Z"/><path class="cls-6" d="M103.34,95.65a56.36,56.36,0,0,1,14-2.41,23.79,23.79,0,0,1,9.56,1.55c1.92.78,4.2,1.88,5.3,3.73a3,3,0,0,1,.3,2.67,3.44,3.44,0,0,1-1.88,1.34c-.9.41-1.82.81-2.73,1.21-4.84,2.07-10.34,4.92-15.74,3.77-2.92-.61-5.82-1.36-8.69-2.2a39,39,0,0,1-9.59-4,.69.69,0,0,1-.36-.48.83.83,0,0,1,.21-.51c1.86-2.6,5.15-3.39,8-4.26Z"/><path class="cls-6" d="M90.06,97.92c-2.81-.49-5.21-1.46-6.93-3.82-2.1-2.91-4.15-5.84-6-8.92l0-.09a42.41,42.41,0,0,1-2.82-5.59c-.4-1-.76-2-1.07-3-.21-.71-.66-1.87,0-2.48a4.61,4.61,0,0,1,2.62-.94,16.07,16.07,0,0,1,6.58,1,28.73,28.73,0,0,1,7.37,3.25,9,9,0,0,1,2.84,2.84,67.21,67.21,0,0,1,3.59,8.36q.93,2.33,1.78,4.69c.53,1.45,1.46,3.18,1.46,4.73C99.44,99.26,93.53,98.52,90.06,97.92Z"/><path class="cls-6" d="M45.55,44.39c-1-1.78-1.53-3.84,0-5.43s4.46-2,6.68-2.47A78.33,78.33,0,0,1,63,34.68a20.52,20.52,0,0,1,6.06.14c.71.16-1,2.69-1.2,2.94a18,18,0,0,1-3.21,3.71,41.11,41.11,0,0,1-8.1,5.11c-3.22,1.67-6.66,3.69-9.42.13A18.35,18.35,0,0,1,45.55,44.39Z"/><path class="cls-6" d="M59.14,59.57l-.06-.2a12.76,12.76,0,0,1,0-4.57,20.19,20.19,0,0,1,3.06-9.42c2.17-3.19,5.48-4.76,9-6.13.71-.28,0,2.78-.14,3.1a52.26,52.26,0,0,1-3,7.49c-1.1,2.39-2,4.89-3.23,7.2-.75,1.37-2.4,4.38-4.37,3.77A2,2,0,0,1,59.14,59.57Z"/><path class="cls-3" d="M105.84,115.52c-.85.37-1.73.69-2.62,1-1.13.42-2.28.87-3.44,1.2a4.06,4.06,0,0,1-3-.11,4.1,4.1,0,0,1-1.74-3,16.1,16.1,0,0,1-.26-4.16c.15-3.22,1.58-8.65,5.72-8.21,2.94.32,6.51,5.44,8.39,8.09a2.7,2.7,0,0,1,.56,2.61,2.94,2.94,0,0,1-1.18,1.24A16.37,16.37,0,0,1,105.84,115.52Z"/><path class="cls-6" d="M114.32,67.19c.93-5.45,6.05-9.36,10.88-11.47,10.2-4.44,21.61-2.35,22.08-1.29.36.81-1.93,3.3-2.41,4-1.05,1.47-2.15,2.91-3.28,4.32C139.84,64.89,138,67,136.07,69a7.25,7.25,0,0,1-2.87,2.13,10.12,10.12,0,0,1-4,.45c-1.67-.09-3.38-.17-5-.32-3.4-.32-7.08-.83-10-2.78A10.83,10.83,0,0,1,114.32,67.19Z"/><path class="cls-7" d="M90.64,44.43a11.4,11.4,0,0,0-2.81,2.9c-2.32,3.53-1.32,7.91.23,11.53s3.65,7.9,6.59,10.5a3.56,3.56,0,0,1,1,1.12c.4.83,0,1.81,0,2.74a3.77,3.77,0,0,0,1.36,3c2.9,2.39,8.35.16,11-1.64,3.28-2.23,5.78-5.41,8.42-8.33,2.47-2.71,4.84-5.5,7.21-8.3a6,6,0,0,0,1.31-2,2.06,2.06,0,0,0-.56-2.23c3.12-1.29,7.17-1.27,9.3-4.28,1.45-2,1.27-4.7.95-7.07-.27-2.06-.1-4.73-1.75-6.25A4.18,4.18,0,0,0,129.53,35l3.74-5.17s-6.48-2.5-10.71-2.81c-4.62-.34-9.77-.61-13.58,2.48a16.92,16.92,0,0,0-5.24,8.45c-.77,2.46-3.76,2.28-6,3.07A27,27,0,0,0,90.64,44.43Z"/><path class="cls-8" d="M83.42,28.47c-.22-.11-.4-1.08-.46-1.28a8.63,8.63,0,0,1-.34-3.11c.28-2.75,2.36-3.73,4.67-4.62a36.12,36.12,0,0,1,6.39-2c2.18-.39,6.44-1.11,6.83,2,.12.91,1,3.46.5,4.26,2.26-3.41,5.61-5.05,9.54-5.72a6.94,6.94,0,0,1,3.3.09c1.56.49,2,1.77,2.69,3.12,1.37,2.83,2.75,5.65,4.23,8.42,0,0,3.94,7.19,1.73,10.63a34.17,34.17,0,0,1-5.33,6.68c-2.35,2.18-5.23,3.61-7.87,5.39-2.87,1.92-6,4-9.4,4.77a3.45,3.45,0,0,1-2.24-.41c-.2-.11-1.58-1.27-1.29-1.54a62.53,62.53,0,0,1-5.06,4.28c-2.8,2.15-6.16,4.74-9.75,5.3a3.68,3.68,0,0,1-1.55,0,3.52,3.52,0,0,1-1.73-1.19c-1.74-2.05-2.55-5-3.33-7.53a56,56,0,0,1-2.4-19c.1-2.5.24-5.66,2.44-7.34a9.13,9.13,0,0,1,4.49-1.41A7.84,7.84,0,0,1,83.42,28.47Z"/><path class="cls-2" d="M159.36,109.78s2.44-14.26,8.39-16.7,4,16.7,4,16.7.72,4.77-10.93,3.24A2.9,2.9,0,0,1,159.36,109.78Z"/><path class="cls-2" d="M161.87,109.22s-14.81,1.69-17.7,7.85,16.89,5.26,16.89,5.26,4.85,1.06,4-11.37A3,3,0,0,0,161.87,109.22Z"/><path class="cls-9" d="M12.63,36.9S13.25,7.12,23.46.7,35.2,33.93,35.2,33.93s2.6,9.58-19.06,9.25A6.17,6.17,0,0,1,12.63,36.9Z"/><path class="cls-2" d="M34.46,93.17a.59.59,0,0,1-.26-.28c-.48-.86-.72-1.84-1.28-2.65a11.93,11.93,0,0,0-1-1.2c-.37-.43-.69-.88-1.08-1.3a21.42,21.42,0,0,0-2-1.92,24.56,24.56,0,0,0-14.27-5.37c-4.35-.28-8.72,1-6.66,6.09,1.58,3.87,4.84,6.87,7.18,10.3a111.47,111.47,0,0,0,7.33,9.45c2.13,2.53,4.43,6.89,7.58,8.25a6.42,6.42,0,0,0,4.66-.12A44,44,0,0,0,48.41,106c3.21-2.78,7.49-5.41,9.14-9.54a4.08,4.08,0,0,0,.07-3.16c-.8-1.79-3-2.37-5-2.51a39.7,39.7,0,0,0-10.08.8c-2.6.48-5.18,1.08-7.77,1.59A.61.61,0,0,1,34.46,93.17Z"/><path class="cls-2" d="M129.11,143.12c-.46-.28-.78-2.15-.92-2.61a32.14,32.14,0,0,1-1.34-6.79c-.36-4.31.32-9.14,3.16-12.56,3.71-4.48,8.18-3,10.85,1.71a28,28,0,0,1,2.33,5.36c.49,1.59.53,3.2,1.83,4.42a20.71,20.71,0,0,0,2.63,1.8c3.58,2.51,4.71,8.32,3.81,12.38C149.34,156.43,133.62,145.87,129.11,143.12Z"/></g><g id="drawing"><path class="cls-10" d="M100.93,194.49,101,186q.08-9.66.19-19.33.12-10.37.32-20.73c.13-5.79.32-11.58.73-17.36.24-3.4.6-6.79.93-10.19.29-3.09,1-6.62.27-9.68-.51-2.06-2.75-2.44-4.51-2.74.51,5,2.28,10,1.32,14.86s-4.67,9.07-8.2,12.81a256.14,256.14,0,0,1,5.63-31.93l-7.62,21.9A13.16,13.16,0,0,0,89,129.09c.18,1.88,1.44,3.8,3.3,4.12,2.38-3.23,6-5.75,7.13-9.59a17.32,17.32,0,0,0,.13-6.92,67.25,67.25,0,0,0-.88-7.6l-.46-4a16.4,16.4,0,0,0-.52-3.86c-2.26,2.18-3.94,5.22-6,7.63a50.72,50.72,0,0,1-7.18,7.1c-1.48,1.17-3.31,2.29-5.15,1.87a6.55,6.55,0,0,1-3.07-2.06,48.79,48.79,0,0,1-4.16-4.81,1.17,1.17,0,0,1-.33-.73,1.21,1.21,0,0,1,.31-.63c2.73-3.54,5.66-7.16,9.69-9.1,5.06-2.44,11-1.86,16.56-1.24a22.63,22.63,0,0,0-10.29,3.07C84.91,104,82,106.15,78.9,108c-2.22,1.35-4.63,2.61-7.23,2.6A56.48,56.48,0,0,1,99,99.19a2.44,2.44,0,0,0-1,1.91,2.58,2.58,0,0,1,1.9-1.2A8.34,8.34,0,0,0,98.32,102a3.91,3.91,0,0,0-.06,4c.87,1.19,2.54,1.38,4,1.36a57.72,57.72,0,0,0,9.43-1.16c2.74-.49,5.48-1,8.17-1.71a15.69,15.69,0,0,0,4.32-1.7,3.42,3.42,0,0,0,1.13-1,1.52,1.52,0,0,0,.11-1.47,2,2,0,0,0-.91-.76,13.14,13.14,0,0,0-3-1,45,45,0,0,0-7.11-1.06,20.94,20.94,0,0,0-9.18,1.06A10.17,10.17,0,0,0,99,105a101.35,101.35,0,0,0,24.36-6,23.49,23.49,0,0,0-14.47-1.81c-4.07.79-8,2.56-12.18,1.78a53,53,0,0,1-12.18-3.31,19.15,19.15,0,0,1-9.36-8.18c-2.72-5.18-2-11.47-.69-17.17a.76.76,0,0,1,.35-.58.72.72,0,0,1,.52,0,48.71,48.71,0,0,1,10.42,3.94A22.53,22.53,0,0,1,94.05,81c3.47,5.32,3.84,12.06,6.37,17.89C96.93,94.22,93.49,89.51,89.86,85A97.1,97.1,0,0,0,76,70.45l-.63-.51a4,4,0,0,1,3.06,1.24A88.64,88.64,0,0,1,98.09,93.34c.62,1,1.24,2,1.78,3.08a8.5,8.5,0,0,1,.79,2.09.49.49,0,0,0,.14.3c.2.17.5,0,.69-.22,2.4-2.52,3.25-6.1,4.44-9.37A78.05,78.05,0,0,1,109.71,81c.93-1.87,1.87-3.74,2.93-5.54a7.44,7.44,0,0,1,2-2.46.71.71,0,0,1,.63-.14.74.74,0,0,1,.33.54,28.94,28.94,0,0,1,.47,9.24,25,25,0,0,1-1.49,6.84,13.45,13.45,0,0,1-4,5.67c-2.89,2.3-6.7,3-10.22,4.08a3.43,3.43,0,0,0,.95-2.11,20.94,20.94,0,0,0-.21-3.95c-.11-1.4-.22-2.8-.31-4.2-.19-2.79-.33-5.59-.29-8.39v-.17c0-1.1,0-2.2,0-3.3"/><path class="cls-10" d="M101.8,98.58A43.93,43.93,0,0,1,102,94a28.15,28.15,0,0,1,5.76-14,39,39,0,0,1,3.16-3.8A33.15,33.15,0,0,1,115,73a10.53,10.53,0,0,0,2.24-2,2.39,2.39,0,0,0,.36-.62c.06-.16,0-.52.09-.63.51-.84,2.55,1.22,2.91,1.58a27.19,27.19,0,0,1,3.89,5.27c2,3.23,4.06,6.53,4.82,10.25A4,4,0,0,1,129,90a4.4,4.4,0,0,1-1.57,1.19c-2.2,1.17-5.48,2.65-7.9,1.15-1.43-.89-2.07-2.65-2.51-4.19a31.18,31.18,0,0,1-.92-6,49.66,49.66,0,0,1-.34-9.44,4.37,4.37,0,0,1,.32-1.43,1.75,1.75,0,0,1,1-1,39.91,39.91,0,0,1,4.62,10.63,116.37,116.37,0,0,1,2.49,11.37q-3.81-10.73-6.78-21.73c0-.16-.07-.39.09-.46a.36.36,0,0,1,.25,0c3.24.84,6.38,1.75,9.79,1.23,6.31-1,11.35-5,14.93-10.12A31.36,31.36,0,0,0,146.89,52a31,31,0,0,0-21.68-.57c6.89-.69,13.69.3,20.52,1A17.66,17.66,0,0,1,140,58.17a28.92,28.92,0,0,1-7.7,3"/><path class="cls-10" d="M103.92,50.58a45.21,45.21,0,0,1-4.65,3.5c-1.35,1-2.81,2.15-2.93,4a5.5,5.5,0,0,0,.52,2.38A15.68,15.68,0,0,0,101,67.08c2.53,2.14,5.91,2.6,9.1,2.75A38.85,38.85,0,0,0,123,68.44c3.38-1,7.13-3.07,8.54-6.52.91-2.25-.22-4-1.76-5.53-.95-1-1.9-1.93-2.88-2.86A49,49,0,0,0,119.73,48c-2.48-1.59-5.28-1.12-8-.61a17.12,17.12,0,0,1,6.3.22,2.91,2.91,0,0,1,1.78.92,2.2,2.2,0,0,1,.33,1.7c-.4,2.34-2.81,4.22-4.55,5.61-2.43,2-6.4,4.58-9.69,3.73-2.65-.68-3.44-5.06-3-7.3A13.9,13.9,0,0,1,105.11,48c.78-1.23,1.53-2.47,2.28-3.71A9.45,9.45,0,0,0,109,41c.31-2.06-1.75-2.37-3.33-2.27a57.76,57.76,0,0,0-6.4,1.08l-2.61.49-8.07,1.43"/><path class="cls-10" d="M100.78,53.26c-2,3.63-3.69,7.53-6.33,10.77a15.4,15.4,0,0,1-2.6,2.69,5.78,5.78,0,0,1-6,.16c-1.13-.72-8.63-7-9.71-9.12"/><path class="cls-10" d="M76.44,58.1s-4.29-7.6-4.84-15A6.92,6.92,0,0,1,73.87,37a7.15,7.15,0,0,1,5.49-1.54c1.6.29,3.21.51,4.78.94,1.88.51,3.63,1.46,5.57,1.86a56.19,56.19,0,0,0-9.6-3.87c-1.25-.32-2.55-.33-3.79-.71a3.61,3.61,0,0,1-1.72-.92c-1.67-1.91,1-4.78,2.34-5.91C80.17,24.18,84,20,87.4,19.5a8.81,8.81,0,0,1,3,0,5.87,5.87,0,0,1,3.08,1.82c.87.88,2,2,1.93,3.36,0,0,.7-8.41,2.72-9.88,1.1-.8,2.72-.71,4-.57,4.68.54,8.6,2.88,12.16,5.85,5.76,4.82,6.18,5.14,6.18,5.14s-3.78,4.46-6.18,5.42a34.47,34.47,0,0,0-4.48,2.2s1.27-3,5.55-3.8a21.17,21.17,0,0,1,9.17-.09,12.18,12.18,0,0,1,6,3.06,9.13,9.13,0,0,1,2.27,6.74c-.1,4.42-.25,7.31-.78,9.07a4.46,4.46,0,0,1-2.35,2.86,4.81,4.81,0,0,1-2.58.12,17.59,17.59,0,0,1-4.52-1.11l-2.67-1.16"/><path class="cls-10" d="M114.75,73.48s-8.58,3.93-15.23,2.93-6.06-6.13-6.06-6.13a17.72,17.72,0,0,1,2.17-7.79"/><path class="cls-10" d="M103.86,51.18c.28,1.09-1.4,2.14-2.1,2.67a32.59,32.59,0,0,1-9.32,4.71,9.35,9.35,0,0,1-3.21.67s-1.68.87-4.19-2.61c-1.22-1.71-2.68-3.36-3.84-5.15A24,24,0,0,1,78.69,45a12.06,12.06,0,0,1-.57-6.51c.82-3.08,4.89-6.57,8.15-6.61,2.38-.36,4.64,3.25,6.2,4.51C91.53,35.6,91.28,34,91,32.87a13.14,13.14,0,0,1-.33-5.51,2.92,2.92,0,0,1,2-2.48A20.71,20.71,0,0,1,99,24.14a17.44,17.44,0,0,1,6,.95c1,.35,2.1.58,3.08,1a2.84,2.84,0,0,1,1.78,2,3.84,3.84,0,0,1-.07,1.22l-.68,4a6.79,6.79,0,0,1,5.33-2.42c3.43.11,4.82,1,4.82,1a5.36,5.36,0,0,1,3.2,3.64,15.83,15.83,0,0,1,.48,4.65,25.33,25.33,0,0,1-.2,3.71c-.44,2.32-3.33,2.8-5.33,2.8"/><path class="cls-10" d="M102.71,51.2s5-.4,7.59-3.09c3.3-3.48,5.36-7.77,4.54-12.68a2.22,2.22,0,0,0-.52-1.27,2.42,2.42,0,0,0-1.53-.52,15.79,15.79,0,0,0-5.86.16c-1.27.36-2.44,1.05-3.73,1.38a26.8,26.8,0,0,1-4.58.39,5.91,5.91,0,0,0-4.14,1.72c.64.94,1.93,1.12,3.07,1.21l8.83.72a2.57,2.57,0,0,0,2.13-.47,2,2,0,0,0,.44-1.18,6.59,6.59,0,0,0-.68-3.16,6.37,6.37,0,0,0-1.81-2.6,5.86,5.86,0,0,0-4.37-.91,17.72,17.72,0,0,0-6.77,2.8,26.15,26.15,0,0,0-5.21,4,4.33,4.33,0,0,0-1.46,2.79,4.34,4.34,0,0,0,1.1,2.57,23.48,23.48,0,0,0,5.84,5.22c2.29,1.53,5.31,3.9,8.27,3.42"/><path class="cls-10" d="M81.68,35.29a44.93,44.93,0,0,0-7.86-1.35l-.42,0a41.62,41.62,0,0,0-7.79.07c-8.43.89-16.26,5.92-16.26,5.92l-.57.54,2.68,1.32,4.27,1.32a12.46,12.46,0,0,0,5.44-.42c2.13-.89,9.51-4.78,9.51-4.78s5.5-3.45,7.56-2.55"/><path class="cls-10" d="M74.29,34S63.7,35.82,61.84,37a67.17,67.17,0,0,0-7.75,3,6.47,6.47,0,0,1-4.69.57v-.42a29.7,29.7,0,0,1,4.38-1.73s9.12-2.86,10.66-2.68,5.73-.86,11.31-1A8.85,8.85,0,0,1,79,35.1"/><path class="cls-10" d="M72.85,37s-2,1.76-3.43,9.12a39,39,0,0,1-5.58,13.19l-1,1a7.1,7.1,0,0,1-1.7-3s-2.55-3.26,0-9.26c0,0,3.41-6.81,6.64-7.94l4.53-2.77"/><path class="cls-10" d="M70.34,39s-6.08,7.67-7.05,14.28-.34,6.8-.34,6.8"/><path class="cls-10" d="M61.65,58s.2-8.63,2.79-12.84A19.89,19.89,0,0,1,70,39.12"/><path class="cls-10" d="M13.54,26.57S10.08,16.15,21.75,4.26"/><path class="cls-10" d="M30.45,3.21a23.2,23.2,0,0,1-.31,6.06,12,12,0,0,0,.77,7.46,7,7,0,0,1,.34,4.17,9.64,9.64,0,0,1-1.46,3.55c-1,1.41-2.65,2.1-4.15,2.75-2,.85-4,1.64-6,2.31-.71.24-1.43.46-2.15.65"/><path class="cls-10" d="M31.46,10.92S37.9,5.6,42.2,7c0,0,.87.34.09,1.54-1.18,1.83-2.65,3.44-3.82,5.27A15.93,15.93,0,0,0,36,19.45c-.22,1.47-.55,2.41-2.28,2.68"/><path class="cls-10" d="M.25,23.67A14.36,14.36,0,0,1,7,24a9.15,9.15,0,0,1,2.29,1c.64.39,1.7,1,1.74,1.81a21.24,21.24,0,0,0,.23,2.39,7.83,7.83,0,0,0,1.06,2.59,6.91,6.91,0,0,0,1.62,2.09"/><path class="cls-10" d="M2.81,27.29a5,5,0,0,1,3.54-1.08A8.57,8.57,0,0,0,10,26"/><path class="cls-10" d="M32.31,23.72s2.06.79,2.2,4.42a18.91,18.91,0,0,1-2,9.13c-1.13,2.22-3.42,6.33-6.5,5.33a3.93,3.93,0,0,1-.66-.3c-1.67-.95-8.25-5.27-8.78-7.71"/><line class="cls-10" x1="23.07" y1="33.44" x2="25.43" y2="34.4"/><path class="cls-10" d="M32.54,37.74a3.64,3.64,0,0,0,1.93-1.19,12.11,12.11,0,0,0,1.94-2.7,12.15,12.15,0,0,0,1.76-4.4,5.12,5.12,0,0,0-2.39-4.94"/><path class="cls-10" d="M36.92,81.53a9.66,9.66,0,0,1,1.19,3.24c.27,1.73.24,3.49.6,5.21a8.26,8.26,0,0,0,.2.86c.08.24.17.57.42.7.65.33,2.74-1.9,3.23-2.31a8.17,8.17,0,0,1,1.84-1.3,5.81,5.81,0,0,1,2.19-.34"/><path class="cls-10" d="M37.28,92.63a18.61,18.61,0,0,0-3.46-6.44,19.47,19.47,0,0,0-4.15-3.85,27.77,27.77,0,0,0-7.14-3.25,25.06,25.06,0,0,0-8-1.71,5.67,5.67,0,0,0-2.8.63c-3.59,2.09-1.14,4.81-1.14,4.81a31.25,31.25,0,0,0,2.9,3c2.63,2.38,5.68,4.73,6.59,8.38C20.8,97.08,24,97,24,97s8.8.45,10.17-.46"/><path class="cls-10" d="M22.94,97.1s-4.18,2.4-1.64,5.15c0,0,6.08,8.41,6.72,8.54,0,0,1.89,2.28,3.68.41a5.28,5.28,0,0,0,.77-1.13,36,36,0,0,0,2.41-7.5"/><path class="cls-10" d="M39.77,98.29a10.84,10.84,0,0,0,1.92,2.9,6.54,6.54,0,0,0,3.79,2.23c1.67.18,3.22-1.45,4.43-2.4a49.12,49.12,0,0,1,5-3.79c2.83-1.7,5.68-3.25,8-5.66.73-.76,1.54-2,.64-2.9a5.19,5.19,0,0,0-3.16-1.24,23.08,23.08,0,0,0-4.07-.27A24.58,24.58,0,0,0,48.77,89a41.87,41.87,0,0,0-8.63,4.61"/><path class="cls-10" d="M45.84,103.66s.91,2.16-.45,3.43a14,14,0,0,1-4.06,2.07c-1.81.79-3.94,1.3-5.4,2.72a1.39,1.39,0,0,1-.7.46c-.45.07-.94-.37-1.26-.64l-1.5-1.63"/><path class="cls-10" d="M130.59,137.35a24,24,0,0,1-1.42-9.2,25.23,25.23,0,0,1,1.21-7.16,24.7,24.7,0,0,1,1.61-3.82,6.09,6.09,0,0,1,1.95-2.61,3.58,3.58,0,0,1,3.11-.17c2.34.91,3.72,3.16,4.64,5.37,1.07,2.55,1.81,5.27,2.67,7.9.22.67.44,1.34.65,2a5.32,5.32,0,0,1,.43,3.09,9.37,9.37,0,0,1-1.08,2.34,5.31,5.31,0,0,1-2,2.25s-5.59,3.82-7.27,4.14"/><path class="cls-10" d="M139.68,137.17c2.12-2.27,5.44-5.36,8.84-4.94,4,.49,5.12,6.09,5.23,9.36a10.09,10.09,0,0,1-.9,5c-1.52,2.84-5.14,2.4-7.87,2.07,0,0-6.31-1.86-9-4.68"/><path class="cls-10" d="M122.25,136.13s6.3.41,8,4.36c0,0-3.11-1.91-8.61-.82"/><path class="cls-10" d="M154.69,108.39s-11.12,3.08-11.19,6.59,3.46,5.14,10.31,5.21c0,0,5.39,1.15,5.47-1.13a29.48,29.48,0,0,0-.75-5.89"/><path class="cls-10" d="M157.6,105.63s3.34-12.55,8.79-13.5c0,0,3.09-1.19,3.61,5.51.38,4.92.64,8-.41,9.55a2.91,2.91,0,0,1-1.71,1.2,38.21,38.21,0,0,1-7.81,1"/><path class="cls-10" d="M169.66,107.42a2.52,2.52,0,0,1,1.05,3,10,10,0,0,1-2.81,3.52s-2.47,2.56-5-1.43"/><path class="cls-10" d="M159.47,118.9a5.62,5.62,0,0,0,4.63,0c2.39-1.14,1.45-4,1.45-4"/><path class="cls-10" d="M145.61,101.26s4.19-.07,8.93,5.34c0,0-3.27-4.77-2.49-8"/></g></g></g></svg>