<svg xmlns="http://www.w3.org/2000/svg" viewBox="0 0 138 101.55"><defs><style>.cls-1{fill:#f9db5a;opacity:0.5;}.cls-2{fill:#f9ebb2;opacity:0.46;}.cls-3{fill:none;stroke:#231815;stroke-linecap:round;stroke-linejoin:round;stroke-width:0.5px;}</style></defs><g id="레이어_2" data-name="레이어 2"><g id="color"><path class="cls-1" d="M11.48,86.42C7.22,82.06,5.87,76.09,4.84,69.57,2.4,54,7.85,39.25,16.2,26.35,21.44,18.24,30.61,13.4,39.38,9.81A60.7,60.7,0,0,1,59,5.22C64.58,4.91,70.87,5,76.07,7.77c5.79,3.08,9.66,9.5,12.11,15.37,13.28,31.91-19.35,66.23-50,69.9-7.3.87-15.42.39-22.11-3.22A18.45,18.45,0,0,1,11.48,86.42Z"/><path class="cls-2" d="M88.11,77.09A49.59,49.59,0,0,1,74,65.45c-8.9-10.7-11.42-27.54,2.52-35.14,12.1-6.59,25.72-4.79,37.1,2.38,9.89,6.23,22.87,17.94,22.68,30.66-.22,14.27-15.76,21.6-28.14,20.17A54,54,0,0,1,88.11,77.09Z"/></g><g id="drawing"><path class="cls-3" d="M6.44,91.91s2.18-9.44-2.9-17.43C0,69,.11,61.73.35,55.46a62.71,62.71,0,0,1,5.87-25C12.93,16.7,26.39,6.1,41.08,2.21A64.92,64.92,0,0,1,63.47.56S72.19,2,74.37,3.28c0,0,4.18-2.54,7.08-.54a5.16,5.16,0,0,1,1.27,6.9s12.36,8.53,7.81,39.05C89.18,57.79,83.75,66.43,78,73.44A60.68,60.68,0,0,1,58.41,89a59.19,59.19,0,0,1-33,6.15,6.12,6.12,0,0,0-2.45,0,10.23,10.23,0,0,0-2,1.07,7.17,7.17,0,0,1-7.9-.71,7.17,7.17,0,0,1-2.17-7.62c.39-1.18,1.1-2.24,1.4-3.44.73-2.93-1-5.83-2.32-8.57a28,28,0,0,1-2.31-8c-.23-1.66.08-3.88,1.73-4.19,1.82-.35,2.84,2,3.42,3.71a21.89,21.89,0,0,0,23,14.38c3.84-.52,7.68-2.24,9.94-5.39,1.91-2.65,2.52-6,3.07-9.22.74-4.36,1.46-8.94,0-13.11-1.24-3.56-3.91-6.39-6.26-9.33a61.75,61.75,0,0,1-8.43-14c-1.33-3.05-2.42-6.33-2.17-9.65.5-6.38,5.86-11.39,11.6-14.22a31.91,31.91,0,0,1,21-2.84c7,1.62,13.46,6.27,16.57,12.78,1,2.1,1.64,4.63.57,6.69-.92,1.76-2.83,2.72-4.58,3.65-4.24,2.27-8.32,5.21-10.74,9.36a21,21,0,0,0-1.91,15.11,37.89,37.89,0,0,0,6.82,13.91c5.7,7.77,13.29,14.29,22.22,17.9s19.23,4.16,28.2.65c7.11-2.77,13.44-8.42,15.36-15.81,2-7.62-1-15.75-5.4-22.25a51.77,51.77,0,0,0-45.21-22c-2.6.17-5.31.59-7.41,2.13.44-.32,3.41,1.28,3.91,1.53a26.6,26.6,0,0,1,4.1,2.45A29.58,29.58,0,0,1,93,35.85a28.92,28.92,0,0,1,6,15.33c-.16-2-1.61-3.73-2.64-5.4a33.63,33.63,0,0,1-2.73-5.94c-.7-1.86-4.53-9.69-2-11.06A2.53,2.53,0,0,1,93,28.59a36,36,0,0,1,16.38,5.12c1.57.94,3.21,2.28,3.26,4.11,0,1.47-1,2.72-2,3.82-2.47,2.83-5,6.85-8,9a33.3,33.3,0,0,1,8.69-10.62,4.87,4.87,0,0,1,2.51-1.3c1.29-.11,2.45.73,3.47,1.53a39.9,39.9,0,0,1,7,6.5,13.42,13.42,0,0,1,3.16,8.86c-.07,1.09-20.54-.09-22.59-.76,2.93-.81,6.57-.58,9.6-.53a72.5,72.5,0,0,1,10.19.89,7.42,7.42,0,0,1,3.39,1.16,6.57,6.57,0,0,1,2,3.34A19.68,19.68,0,0,1,130.08,72c-.54,1.57-1.64,3.31-3.31,3.27a4.3,4.3,0,0,1-2-.7,95.82,95.82,0,0,1-20.68-15.7c3,.6,5.65,2.22,8.25,3.8,4.67,2.85,9.38,5.73,13.35,9.5a5.07,5.07,0,0,1,1.94,3.3c0,1.73-1.55,3-3.08,3.84a22,22,0,0,1-14.3,2.23,5.39,5.39,0,0,1-2.72-1.14,6.09,6.09,0,0,1-1.42-2.68l-3-9.22A16.84,16.84,0,0,1,102,62,7.07,7.07,0,0,1,104,65.26a48.74,48.74,0,0,1,3,12.26c.13,1.15,0,2.61-1,3.09a2.77,2.77,0,0,1-1.59.06,34.81,34.81,0,0,1-16.07-7.25,4.24,4.24,0,0,1-1.75-2.37,4.18,4.18,0,0,1,.84-2.77,22.4,22.4,0,0,1,11-9,24.67,24.67,0,0,1-5.58,7.29,10.65,10.65,0,0,1-8.57,2.57,14,14,0,0,1-6-3.24,46,46,0,0,1-7-7.07c-1-1.23-1.93-2.92-1.15-4.29a2.93,2.93,0,0,1,1.49-1.19,9.32,9.32,0,0,1,4.52-.22c3.59.71,7.41.84,11,1.26,3,.34,8-.28,10.64,1.3-7.55.43-15.66,0-23-2.08A8.36,8.36,0,0,1,71,51.51a7.28,7.28,0,0,1-1.6-4.06,17.15,17.15,0,0,1,.7-7.49A4.24,4.24,0,0,1,72,37.32c1.39-.68,3,.12,4.36.93q5.43,3.27,10.6,7c3.17,2.24,7.27,4.65,9.77,7.55C89.52,49.68,82,45.68,76.88,39.6a5.9,5.9,0,0,1-1.47-2.69A5.2,5.2,0,0,1,76.75,33c1.9-2.42,6-5.21,9.26-4.57-2.38-.47-4.8-1.16-7.19-1.74,0,0-10.44,5.18-17,18.44-8.06,16.34.24,36.79,14.48,46.77a37,37,0,0,0,4,2.44c12.51,6.63,27.11,6.73,39.3-.65,6.53-4,13.29-10.42,16.26-17.6,0,0-9.92,26.25-37.71,25.16"/></g></g></svg>