<svg xmlns="http://www.w3.org/2000/svg" viewBox="0 0 185.69 171.48"><defs><style>.cls-1{fill:#e3895a;opacity:0.7;}.cls-2{fill:#448442;}.cls-3,.cls-7{fill:none;stroke:#231815;stroke-width:0.5px;}.cls-3{stroke-linecap:round;stroke-linejoin:round;}.cls-4{fill:#6e888c;}.cls-5{fill:#a0867d;}.cls-5,.cls-6{opacity:0.69;}.cls-6{fill:#b54040;}.cls-7{stroke-miterlimit:10;}</style></defs><g id="레이어_2" data-name="레이어 2"><g id="color"><path class="cls-1" d="M40.76,106.1c-3.34,4.23-7.26,8-10.59,12.19-.19.23-6.54,7.56-5.16,15.2s5.75,9.32,8.45,10.88c6.4,3.7,17.45,1.22,24-.92,14-4.59,23.17-15.22,31.57-26.78,4.48-6.16,7.68-13.47,7.83-21.17s-2.6-15.92-6.06-22.59c0,0-2.56-3.5-.14-4.87s14.2-5.19,13-11.09c-1.06-5.17-6.81-2.68-9.84-5.82-1.91-2-1.88-6.09-2.89-8.67-1.13-2.88-2.8-5.9-5.6-7.44,0,0-2.52-1.4-1.78-6.14s3.28-14.4,2.14-16.19c-2.2-3.44-12.85,9.57-14.12,11.08A76,76,0,0,0,56.7,52.13a70.39,70.39,0,0,0-2.26,12.31c-.76,8.39-1.25,16.47-4.19,24.46a64.2,64.2,0,0,1-8.15,15.4C41.67,104.91,41.22,105.51,40.76,106.1Z"/><path class="cls-2" d="M136.3,69.88a.89.89,0,0,1-.33,0,1.64,1.64,0,0,1-.75-.44c-3.83-3.39-8.17-8-8.33-13.42-.06-2,.57-3.89,2.88-3.44a13.83,13.83,0,0,1,5.74,3.09c1.66,1.63,2.06,4.64,2.24,6.86C137.83,63.55,137.8,69.34,136.3,69.88Z"/><path class="cls-3" d="M135.38,72.67a12.16,12.16,0,0,1,1.41-2.58c.62-1.14,1.24-2.29,1.85-3.44s1.05-2,1.56-3.05c.41-.8.62-2,1.69-1.94a3.57,3.57,0,0,1,1.7.42A2.77,2.77,0,0,1,145,64.43c0-.23-2.61,1.18-2.78,1.39A9.15,9.15,0,0,0,140.6,69c-.4,1.21-.56,2.28-1.54,3.15-.48.42-3.86,2.26-3.71.72Z"/><path class="cls-3" d="M92.48,111.31S93.89,118.73,91,123"/><path class="cls-4" d="M2.94,119.72a10.5,10.5,0,0,1-2.3-4c-1.22-3.86.48-8.88,4.13-10.84,3.22-1.72,9.27-.46,9.1,4a16.39,16.39,0,0,1-1.29,5.45c-.92,2.37-.27,5.18-2.82,6.62S4.66,121.55,2.94,119.72Z"/><path class="cls-4" d="M24.65,26.42a17.84,17.84,0,0,1-3.86-6.74c-2-6.48.81-14.9,6.93-18.19C33.11-1.4,43.27.72,43,8.22a27.28,27.28,0,0,1-2.17,9.14c-1.54,4-.45,8.69-4.72,11.11C31.56,31,27.53,29.49,24.65,26.42Z"/><path class="cls-4" d="M25.94,96.88c-2.32-2.07-3.16-5.87-.39-7.94s6.39.71,8.1,2.93a5.31,5.31,0,0,1,1.13,3.9,3.81,3.81,0,0,1-2.47,3.09,5,5,0,0,1-2.73,0A8.84,8.84,0,0,1,25.94,96.88Z"/><path class="cls-4" d="M111.7,19a13.09,13.09,0,0,0-6,.42c-4.63,1.47-9.45,7-7.42,12.14,1.16,2.94,4.23,4.28,6.83,5.67a34.55,34.55,0,0,1,5.56,3.52c1.3,1.07,2.31,2.71,4.17,2.65a8.54,8.54,0,0,0,5.39-2.86c2.47-3.06,3-9.11,1.91-12.76A12.9,12.9,0,0,0,111.7,19Z"/><path class="cls-4" d="M131.41,27.76c-2.51-1.68-3.72-5.58-1.07-7.76,3.37-2.78,6.51.36,7.07,3.91.47,3.05-1.65,5.44-4.76,4.45A5.26,5.26,0,0,1,131.41,27.76Z"/><path class="cls-4" d="M173.45,132.3c-.48-2.44,1.1-5.42,3.91-5.16,3.59.33,3.58,4,1.82,6.39-1.51,2.06-4.14,2.23-5.37-.16A4.09,4.09,0,0,1,173.45,132.3Z"/><path class="cls-4" d="M162.22,72.09c-.09-.15-.18-.3-.26-.46-2.57-4.85-.32-12.57,4.19-13,2.27-.24,4.58,2.61,6.55,4.16C177.61,66.62,167.78,81.11,162.22,72.09Z"/><path class="cls-4" d="M179.63,118.39c-2.51-1.68-3.72-5.57-1.07-7.75,3.37-2.78,6.51.36,7.07,3.91.47,3-1.65,5.43-4.76,4.44A4.9,4.9,0,0,1,179.63,118.39Z"/><path class="cls-5" d="M95.78,120.26c-.3-1.61-.89-3.2-1.24-5.15-1.69-9.26,8.67-12.78,15.92-14A150.14,150.14,0,0,1,142.59,100a109.19,109.19,0,0,1,13.27,1.44c3.08.56,5.72,1,7.95,3.35,6.16,6.59,1.45,16.75,1.25,24.47-.15,6.15,1.41,12.92,5.14,17.92a11.49,11.49,0,0,0,3.92,3.61c1.56.76,3.7.56,4.2,2.65a3.79,3.79,0,0,1-1,3.33c-1.8,2-5.22,3-7.72,3.74-8.19,2.32-16.92,3-25.38,3.48-16.78,1-36.11,0-50.61-9.56-2.86-1.89-7.87-5.38-8.27-9.13s3.44-7.56,5.08-10.53,3.88-6,5-9.37A9.45,9.45,0,0,0,95.78,120.26Z"/><path class="cls-6" d="M112.88,120c-2.49-3.26-3.85-7.48-4.83-11.35-2.38-9.39-1.52-20.56,5.27-28a23.85,23.85,0,0,1,21.33-7.39c2.13.38,3.9,1.81,6,2.32,1.78.44,3.61.51,5.36,1.1a18.69,18.69,0,0,1,11.89,11.87c2.06,6.51-.35,13.78-2.87,19.82-2,4.79-4.47,10.48-8.67,13.76-4.37,3.43-10.46,4.33-15.85,4.51-4.84.16-10.12-.62-14.21-3.39A14.52,14.52,0,0,1,112.88,120Z"/></g><g id="drawing"><path class="cls-7" d="M83.4,109.76a13,13,0,0,0,3.69-5.49c.3-.86,1.66-5.87.29-6.2a.87.87,0,0,0-.87.39,1.51,1.51,0,0,0,1.06,2.17A2.47,2.47,0,0,0,90,99.39c2-3.12,2.6-9.16.69-12.37-.06-.09-.12-.19-.22-.22a.36.36,0,0,0-.3,0,1.66,1.66,0,0,0-.41,2.53,2.24,2.24,0,0,0,2.74.28c1.83-1.09,1.77-3.57,1.53-5.39a14.82,14.82,0,0,0-2.51-6.74,6.2,6.2,0,0,0-5.39-2.74c.33,1.69,2.9,1.32,3.5,0,2.4-5.06-7.46-7.34-10-9.31-2.85-2.2-2.19-5,.15-4.79,4.23.38,8.47,1.82,12.75,1.37,3.91-.4,9.51-2.84,8.84-7.63A3.25,3.25,0,0,0,99.61,52c-1.2-.57-3.54-.1-2.32,1.47a2.69,2.69,0,0,0,3.6.32c.93-.81-3.48-3.3-4-3.48-3-1.11-7-1.66-9.27-4.08-3.24-3.48-2-8.83-3.92-12.9A13.92,13.92,0,0,0,72.43,25.7a39.73,39.73,0,0,1,5.1-21.65c-9.18,2-15.24,10.52-20.4,18.38L49.76,33.66c-2.21,3.38-4.51,6.84-7.88,9.07A7.54,7.54,0,0,0,45.2,44a7.08,7.08,0,0,1-4.69,3.76,5.94,5.94,0,0,0,4.79.92,3.59,3.59,0,0,1-2.59,2,6.87,6.87,0,0,0,4.76,1.55c4.06,20.12-3.25,41.54-16.66,57.08-6.2,7.19-13.86,13.64-17,22.59a26.76,26.76,0,0,0,4.51,25.5c7.21,8.7,19.11,11.82,30.33,13.1,10.86,1.23,22,1.16,32.5-2,8.57-2.59,16.45-7.19,25.11-9.47,6.74-1.77,13.82-2.11,20.41-4.36,1.86-.64,3.81-1.55,4.71-3.29,1.47-2.86-.63-6.3-3.1-8.35a21,21,0,0,0-16.08-4.53c-1.12.16-2.48.67-2.56,1.8-.07.91.8,1.63,1.68,1.87,3.56,1,6.45-3.95,5-7.34s-5.29-5.06-8.89-5.84c-4-.88-8.92-.69-11.14,2.73,1.6,1.36,4.38.21,5-1.79a5,5,0,0,0-2.33-5.37,10.11,10.11,0,0,0-6.06-1.2c-3.91.24-4,2.73-7.17,5-1.64,1.16-3.05,3.86-1.31,4.86,1.16.67,2.73-.49,2.8-1.82A3.48,3.48,0,0,0,85,128.29c-2.36-1.11-5.15-.37-7.6.54-14.12,5.23-26.92,15.6-42,15.68-2.68,0-5.77-.57-7.08-2.9a22.77,22.77,0,0,0,13.24,1.45c-3.64-2.43-5.55-6.95-5.48-11.33a21.83,21.83,0,0,1,4.45-12.13C44.62,113.89,51,109.47,58,109.15s14.36,4.25,15.9,11.1a9.31,9.31,0,0,1-1.26,7.5,6,6,0,0,1-7,2.13c.52.24,3.35-2,3.85-2.31a41.29,41.29,0,0,0,4-3.07,45.38,45.38,0,0,0,6.39-7l3.51-4.22s.14,8.57-1.63,14"/><path class="cls-3" d="M99.09,112.25c8,5.87,5.06-8.79,5.06-8.79-.17-.85-.4-1.67-.5-2.55-.63-5.57.61-11.18,2.4-16.43a18.78,18.78,0,0,1,7.24-9.36,20.47,20.47,0,0,1,8.93-3.86,16.36,16.36,0,0,1,7.73.65,13.17,13.17,0,0,1,5.85,3.67,6.08,6.08,0,0,0,3.34,2.24,13.87,13.87,0,0,0-5-4.33,36.7,36.7,0,0,0,3-6.63,11.39,11.39,0,0,0,.53-6.16,10.15,10.15,0,0,0-3.29-5c-2.81-2.5-6.41-3.93-10-5.06A11.3,11.3,0,0,0,127.76,57c1.69,1.77,3.66,3.27,5.29,5.09A9.94,9.94,0,0,1,136,69.48"/><path class="cls-3" d="M125.06,50.3a54.56,54.56,0,0,0,2.09,8.16,32,32,0,0,0,1.73,4.2,41,41,0,0,0,3,4.69c.68,1,1.66,2.75,2.88,3.13,1.05.33,2.05-.91,2.57-1.65a23.65,23.65,0,0,0,2-4.09,22.53,22.53,0,0,0,.83-2.11,2.46,2.46,0,0,0,.21-1.43,3.15,3.15,0,0,0,3.49,1.41s-.55-1.1-3.29-1.57c0,0,3-.35,4.14,1.69,0,0,.15.75-2.18,1.69a11.17,11.17,0,0,0-3.14,4s-2.23,4.23-4.65,4.94l-.37.08s6.92-.27,11.35,4.74a12.31,12.31,0,0,1,3.33,7.48,4.66,4.66,0,0,1-1.27,3.86c-1.85,1.68-4.47,1.75-6.81,2.12s-5.22,1.4-6.11,3.93a3.39,3.39,0,0,0-.14.57c-.22,1.84,2.41,2.68,3.85,2.59s3.08-1.33,4.25-2.24a5.38,5.38,0,0,1,6.07-.27,8,8,0,0,1,3.59,5.45,9.12,9.12,0,0,1-.08,4.06,37.22,37.22,0,0,1-8.51,13.89,53.94,53.94,0,0,0,4.79-6.53c2.83-4.42,5.31-9.35,6.14-14.58a30.61,30.61,0,0,0-.21-11.25c-.92-3.94-3.23-7.87-6.8-10s-7.89-2.77-11.94-3"/><path class="cls-3" d="M133.84,73.83s-1.17.94-5.61.29a26.73,26.73,0,0,0-10.59.68c-5,1.56-8.88,7.77-8.88,7.77s-5.11,7.9-5.11,15.52a34.87,34.87,0,0,0,1.06,7.86c1.23,5.08,3.15,9.42,3.66,10,0,0,1.47,3.46,3.73,4,0,0,3.76-2.79,7.25-2s5.54,1.5,5.71,1.87.54-.43,1.12-.46a6.19,6.19,0,0,0,2.48-1.17,8.17,8.17,0,0,1,6.56-.52,11.53,11.53,0,0,1,8,7.93s2-11,1.9-9.34c0,0-.06,1.9,1.72.49s2.56,4.93,2.56,4.93,3.85-14,4.89-13.87"/><path class="cls-3" d="M2.94,119.72a10.5,10.5,0,0,1-2.3-4c-1.22-3.86.48-8.88,4.13-10.84,3.22-1.72,9.27-.46,9.1,4a16.39,16.39,0,0,1-1.29,5.45c-.92,2.37-.27,5.18-2.82,6.62S4.66,121.55,2.94,119.72Z"/><path class="cls-3" d="M21.88,26.42A17.81,17.81,0,0,1,18,19.68c-2-6.48.8-14.9,6.93-18.19C30.35-1.4,40.51.72,40.21,8.22a27.27,27.27,0,0,1-2.16,9.14c-1.54,4-.45,8.69-4.73,11.11C28.8,31,24.77,29.49,21.88,26.42Z"/><path class="cls-3" d="M23.93,98.4c-2.33-2.08-3.17-5.88-.39-7.94s6.38.71,8.09,2.93a5.31,5.31,0,0,1,1.14,3.9,3.84,3.84,0,0,1-2.48,3.09,5,5,0,0,1-2.73-.06A8.61,8.61,0,0,1,23.93,98.4Z"/><path class="cls-3" d="M111.7,19a13.09,13.09,0,0,0-6,.42c-4.63,1.47-9.45,7-7.42,12.14,1.16,2.94,4.23,4.28,6.83,5.67a34.55,34.55,0,0,1,5.56,3.52c1.3,1.07,2.31,2.71,4.17,2.65a8.54,8.54,0,0,0,5.39-2.86c2.47-3.06,3-9.11,1.91-12.76A12.9,12.9,0,0,0,111.7,19Z"/><path class="cls-3" d="M128.43,28.76c-2.51-1.68-3.72-5.58-1.08-7.76,3.38-2.78,6.52.36,7.07,3.91.48,3.05-1.64,5.44-4.76,4.45A5.19,5.19,0,0,1,128.43,28.76Z"/><path class="cls-3" d="M172.7,130.82c-.48-2.44,1.1-5.42,3.91-5.16,3.59.34,3.58,4,1.82,6.39-1.51,2.06-4.14,2.23-5.36-.16A3.57,3.57,0,0,1,172.7,130.82Z"/><path class="cls-3" d="M161.47,70.61c-.09-.15-.18-.3-.26-.46-2.57-4.85-.32-12.57,4.19-13,2.28-.24,4.58,2.6,6.55,4.15C176.86,65.14,167,79.63,161.47,70.61Z"/><path class="cls-3" d="M178.88,116.91c-2.51-1.67-3.72-5.57-1.07-7.75,3.38-2.78,6.52.36,7.07,3.91.47,3-1.65,5.43-4.76,4.45A4.93,4.93,0,0,1,178.88,116.91Z"/><path class="cls-3" d="M109.11,52.67C108,48.88,113,47,115.74,47.36c6.86.9,6.69,6.2,6.69,6.23-.14,4.31-6.37,5-9.33,3.35a10.72,10.72,0,0,1-3.18-2.86,4.45,4.45,0,0,1-.8-1.38Z"/><path class="cls-7" d="M104.15,103.46S87.92,106.52,92.32,117"/><path class="cls-3" d="M102.75,106s-15.23,17.41,22.31,17.23,30.35-16.7,30.22-18.12"/><path class="cls-3" d="M155.28,102.62s19.93,7.63,7.15,15.27S134,129.3,120.69,128.55"/><path class="cls-3" d="M166.71,112.92c-.2.73-5.71,16.51-3,25.57s9.41,15.1,12.43,18.83"/></g></g></svg>