<svg xmlns="http://www.w3.org/2000/svg" viewBox="0 0 192.55 180.2"><defs><style>.cls-1{isolation:isolate;}.cls-2{fill:#cfe0ab;mix-blend-mode:multiply;opacity:0.22;}.cls-3{fill:#cbdfb6;opacity:0.5;}.cls-4{fill:#a3c4c6;}.cls-4,.cls-5{opacity:0.3;}.cls-5{fill:#727272;}.cls-6,.cls-7{fill:none;stroke:#231815;stroke-width:0.5px;}.cls-6{stroke-miterlimit:10;}.cls-7{stroke-linecap:round;stroke-linejoin:round;}</style></defs><g class="cls-1"><g id="레이어_2" data-name="레이어 2"><g id="color"><path class="cls-2" d="M54.47,166c1.33-1.64,3-3.22,4.5-4.75q2.78-2.85,6-5.56a87.22,87.22,0,0,1,19.19-12.41,78.82,78.82,0,0,1,18.23-6.06c20.38-4.07,38.13,7.77,47.72,15.59a78.69,78.69,0,0,1,8.94,8.07c2.28,2.54,5.36,6.16,4.27,9-.82,2.17-4.38,3.79-8.23,4.65-7.25,1.63-15.86,2-23.57,2.71-8.48.81-17,1.61-25.54,2.15-12.52.8-26,1.4-38.31-.4C59.81,177.87,51.45,176,52,171A10,10,0,0,1,54.47,166Z"/><path class="cls-3" d="M108.25,82.85c1.53-15.13,10.68-27.85,21.83-37.77a100.38,100.38,0,0,1,16.2-12.16,41.89,41.89,0,0,1,9.85-4.54c2.72-.74,8.29-1.9,9.49,1.64,1.14,3.38-1.44,8.68-2.92,11.65-3.37,6.75-9,12-14.18,17.35-7.24,7.55-15.1,14.63-24,20.19C119.53,82.34,114.18,84.77,108.25,82.85Z"/><path class="cls-3" d="M115.33,81.36a23.55,23.55,0,0,1,3.57-5.58,52.45,52.45,0,0,1,14-11.89,76.31,76.31,0,0,1,27.34-10.14,51.69,51.69,0,0,1,30.38,4.77l1,.52c2.07,1.1.26,2.9-1.13,3.67-3.57,2-7.12,4-10.68,6-4.65,2.63-9.3,5.26-14.15,7.53a68,68,0,0,1-15.17,4.81l-1,.2A140.47,140.47,0,0,1,116.65,84h-.15a1.82,1.82,0,0,1-1.51-.56C114.54,82.76,115.07,82,115.33,81.36Z"/><path class="cls-3" d="M118.08,80.2c11.93-6.32,25.84-7.15,39.06-6.09a80.67,80.67,0,0,1,21.94,4.66,75.07,75.07,0,0,1,7.76,3.36c1.7.87,5.62,2.47,5.16,5a2,2,0,0,1-1.06,1.27c-8.3,4.82-18.14,8.85-27.85,8.94-11.07.11-21.28-2.74-31.35-7.12a160.72,160.72,0,0,1-16-7.71.47.47,0,0,1-.23-.21c-.07-.17.07-.36.2-.49A10.42,10.42,0,0,1,118.08,80.2Z"/><path class="cls-3" d="M82.54,92.9a29.74,29.74,0,0,1,2.51-5.8c1.24-2.32,3-5.82,5.62-6.78A29.4,29.4,0,0,1,89,86.85c-.87,2.64-2,5.17-2.94,7.78-.43,1.21-1.31,4.19-3,4a1.08,1.08,0,0,1-.84-.67C81.47,96.53,82.12,94.33,82.54,92.9Z"/><path class="cls-3" d="M70.57,108.84a37.15,37.15,0,0,1-1-6A75.86,75.86,0,0,1,69.18,89a52.09,52.09,0,0,1,2.94-14.12c1.79-4.94,4-9.51,7.74-13.26-.11.11.9,3.2,1,3.59a21.7,21.7,0,0,1,.32,3.86c0,1.65-.28,3.29-.45,4.93-.33,3.08-.68,6.15-1,9.23-1.19,10.52-2.49,20.92-2.6,31.53,0,2.67-.36,5.32.35,7.93a20.17,20.17,0,0,1-1.85-3.15c-.69-1.23-1.37-2.48-2-3.73a40.68,40.68,0,0,1-2.73-6.15C70.73,109.39,70.64,109.12,70.57,108.84Z"/><path class="cls-3" d="M39,79.25c-.41-1.14.27-1.58,1.34-1.57,1.64,0,3.36,1.19,4.71,2.06,3.59,2.36,6.43,5.85,9.22,9.07a112,112,0,0,0,9.59,9.65,12.59,12.59,0,0,1,3,3.62.89.89,0,0,1,.11.77c-.68,1.39-6.52-1.36-7.51-1.84a31.57,31.57,0,0,1-6.86-4.52A73.74,73.74,0,0,1,42.05,85.1a23.57,23.57,0,0,1-3-5.74A1.17,1.17,0,0,0,39,79.25Z"/><path class="cls-3" d="M94.8,156.14s-11.15-19.09-12.39-35.7,3.85-2.38,3.85-2.38S96,143.75,94.8,156.14Z"/><path class="cls-3" d="M36.41,99.65S61,102,69.2,112.32a127.45,127.45,0,0,1,9.86,14.5c3,5.06,6.35,10.52,8.31,16.08a18.24,18.24,0,0,1-3.43-2.12c-1.46-1.13-2.91-2.29-4.36-3.45q-5.3-4.25-10.56-8.52c-6.39-5.24-13.31-9.79-19.74-15a87.23,87.23,0,0,1-7.52-6.73,30.4,30.4,0,0,1-2.9-3.31C38.51,103.32,36.69,99.68,36.41,99.65Z"/><path class="cls-3" d="M88.25,148.12c-.35-.51-1.86-1-2.45-1.33l-2.72-1.46c-1.85-1-3.7-2-5.5-3.08a57.11,57.11,0,0,1-5.91-3.8A21.4,21.4,0,0,1,69,136c-.39-.44-2.29-2.91-.8-3.06,1-.11,2.51,1,3.31,1.49a91.39,91.39,0,0,1,9.68,6.62A32.21,32.21,0,0,1,88.25,148.12Z"/><path class="cls-3" d="M60.41,37.35c-.86-.87-1.71-1.75-2.53-2.64A192.66,192.66,0,0,1,44.67,19c-.64-.86-1.27-1.73-1.9-2.6-1.54-2.13-3.11-4.41-3.41-7.1a133.71,133.71,0,0,1,19.71-.39c5.43.32,11,1.24,15.85,3.78,5.34,2.79,9.06,7.69,12,12.81a118.8,118.8,0,0,1,8.35,18.64l0,0a7.06,7.06,0,0,1,.44,4.17c-.7,2.57-3.39,2.83-5.64,2.7A45.54,45.54,0,0,1,73,46.69,47.09,47.09,0,0,1,60.41,37.35Z"/><path class="cls-3" d="M89.75,41.43c-.4-10.83-.29-21.58,4.32-31.66,1.19-2.6,2.37-5.38,4.32-7.53A6.58,6.58,0,0,1,101.68.17c4.22-1,8,2.32,10.69,5.13a86.06,86.06,0,0,1,6.88,8.14c1.85,2.49,3.91,4.92,2.88,8.21a14.2,14.2,0,0,1-3.19,4.93c-5.31,6.09-9.09,13.4-15.17,18.82-2.3,2.07-5.74,4.89-9.09,4.24A5.51,5.51,0,0,1,91.16,47,11.65,11.65,0,0,1,89.75,41.43Z"/><path class="cls-4" d="M32,81.13c-1.81-3.3,2-9.63,3.26-12.77a46.43,46.43,0,0,1,13-17.57,6.11,6.11,0,0,1,1.86-1.22C54.52,48,53,46.17,49.17,45c-3.51-1.05-6.93.63-10.55-.27-4.74-1.19-7.53-5.28-9.58-9.42-1.1-2.2-2.16-4-2.25-.64,0,1.2.81,13.28,1.66,13.38C19.24,46.93,10,45.74.82,44.66,1,44.68,3.25,50,3.75,50.6a15.32,15.32,0,0,0,5,3.58c4.06,2,8.6,2.72,13,3.64,2.48.53,7,.41,9.12,1.69,3.16,1.89-.21,7.14-1.53,9.31a2.11,2.11,0,0,1-.6.72,2.78,2.78,0,0,1-.85.3c-3.93,1-6.58,5.37-7.17,9.15a6.09,6.09,0,0,0,1.39,5.18,4,4,0,0,1,1.44-3.44C25.93,78.78,29.45,80.24,32,81.13Z"/><path class="cls-5" d="M118.88,173.1s-5.06-3.06,2.13-7.63a21.16,21.16,0,0,1,7.44-3.21,18.27,18.27,0,0,1,6.33.41c.68.11,1.94-.6,2.65-.73,2.52-.46,6.32-.24,8,1.93,1.9,2.37,1.36,6.9-1.36,8.45a8.83,8.83,0,0,1-2.56.83,58.1,58.1,0,0,1-13.72,1.25,54.26,54.26,0,0,1-5.69-.43C121.22,173.85,119.61,173.8,118.88,173.1Z"/><path class="cls-5" d="M81.6,167.45s.59-2.89,8.06-3.7,8.76-1.2,12.07,1.85.55,6.33-2.3,7.32-16.14.17-17.49-.9S80.86,169.3,81.6,167.45Z"/><path class="cls-5" d="M61.07,159.94c-2.53-7.69,11.6-8.49,16.14-8.59a2.54,2.54,0,0,1,1.1.16,3.26,3.26,0,0,1,1.13,1.2c1.36,1.88,3.8,3.4,2.14,6-2.41,3.82-12.48,3-16.38,2.72C63.79,161.38,61.64,161.63,61.07,159.94Z"/><path class="cls-5" d="M133.35,153.32a3.35,3.35,0,0,1,2.45-2.86c2-.82,6.26-2.31,9-1.56s4.08-.62,4,2.11-1,4.62-5.18,4.15-5,.47-6.67,0A14.54,14.54,0,0,1,133.35,153.32Z"/><path class="cls-5" d="M101,159.07a3,3,0,0,1-.16-.31c-.79-1.6-1.64-3,.44-3.75,2.64-.88,4.26-2.54,7.15-1.57,1.8.61,5.32,1.12,5.54,3.52a6.18,6.18,0,0,1-.21,1.81c-.22,1-.61,1.29-1.58,1.58-2.4.71-7.36,2.3-9.61.66A5.5,5.5,0,0,1,101,159.07Z"/></g><g id="drawing"><path class="cls-6" d="M97.88,159.17s-3.89-4.53-5-8.47l-3.54-12.38S85.7,127,85.5,125.4c0,0-2.33-8.56-2.57-11.8.14-.06,3,9.76,3.16,10.34s3.8,14,3.8,14l3,10.93s2.3,6.65,3,7.19a59.18,59.18,0,0,1-8.79-8.18s-7.17-7.59-8.36-8a49.36,49.36,0,0,0-6.84-4.18s-5.9-3.43-6-3.57-5.11-3.47-5.71-4.29a34.34,34.34,0,0,1-2.76-2.35,61.36,61.36,0,0,1,5.55,3.18s5.67,3.65,5.86,4l3.71,2.64,5.78,3.22,3.69,2.24s5,3.51,5.77,4.49c0,0,4.74,4.84,4.77,5.14,0,0-3.16-4.51-3.21-4.73"/><path class="cls-6" d="M89.07,144.58S72.83,120.69,68.2,118.29c0,0-16.73-13.76-19.23-14.82l-5.35-2.66s13.3,9.09,15.23,11.6c0,0,4.53,4.64,5.33,5.79,0,0,8.07,9.45,8.58,9.79l12.31,13,4.9,4.91s-7.13-13.06-7.57-14.12l-5.52-11.54a35.6,35.6,0,0,0-2.5-4.84,21.73,21.73,0,0,1-3.14-6.68c-.3-1.85-1.32-12.43-1.32-12.43s-.69-9.47.58-15.7c0,0,1.67-9.43,6.63-14.91,0,0-4.22,32.87-5,34.51a22.65,22.65,0,0,0,.23,3.25c.2.5,1.56,7.9,1.56,7.9s1.52,6.75,1.89,7"/><path class="cls-6" d="M77,65.47S75.46,83,75.55,85c0,0-.38,11.74-.68,13s-1.07,10.48-1.07,10.48,0,4.31,1,6.34-1.38-4.18-1.38-4.18l-2-4.48a49.28,49.28,0,0,0-6.06-7.2s-7.42-8-8.47-8.6c0,0-5.34-4.54-7.1-5.45s-6.23-3.84-7.58-5.43-2.45-2.68-2.45-2.68a38.17,38.17,0,0,0,6.46,10.8c4.55,5,10.12,9.09,15.72,12.85a82.17,82.17,0,0,0,8.93,5.63"/><path class="cls-7" d="M33.42,50.25a15.71,15.71,0,0,0,4-6c1.18-3.05,5.46-4.82,8.39-3.25a22.81,22.81,0,0,1,2.4,1.77c2.74,2,6.31,2.27,9.69,2.49a33.87,33.87,0,0,0-7.26.31,11.56,11.56,0,0,0-6.39,3.21c-3.33,3.55-3.25,9.41-6.7,12.86a14.44,14.44,0,0,1-4,2.59c-2.89,1.39-6,2.57-8.23,4.88a10.91,10.91,0,0,0-2.22,11.35A14.21,14.21,0,0,1,26,77.34a4.87,4.87,0,0,1,3.92-1,3,3,0,0,1,2.35,3c.25-7.18,1.59-14.49-.12-21.47A52.75,52.75,0,0,0,29,49.49c-2.43-5.54-4.8-11.2-5.71-17.18.1.61,2.55,1.39,3,1.63a15.46,15.46,0,0,1,4.86,3.71c1.58,1.78,6.41,8,2.11,9.52-2.18.75-5.21,0-7.45-.21-2.63-.24-5.25-.49-7.88-.75C12.69,45.7,7.45,45.15,2.19,44.7L.25,44.53a25,25,0,0,0,10.61,8.4c7,2.88,11.19,3.36,17.58,2.25"/><path class="cls-7" d="M112.26,160.76c.2-1.31,4.24-47,2.33-68.48s8.16-30,8.16-30,15.36-21.08,38-22.23a5.32,5.32,0,0,1-.61,3.74c-1.09,1.84-15.38,19.41-24.64,24.3s-16,7.86-20.7,7.52a150.8,150.8,0,0,1,17.8-20.5c9.57-8.86,20.35-13.71,21.46-13.83s2.55-1.64,6.28-.11l.86.63L157.65,46,151,53.62"/><path class="cls-7" d="M114.31,82.16s14.21-2.62,38.27.42,29,9.12,28.93,10.21-6,4.51-20.53,3.48-26.07-7.12-29.42-8.4"/><path class="cls-7" d="M113,88.56a52.3,52.3,0,0,1,1.54,9"/><path class="cls-7" d="M114.31,81.5c0-7.16-2.88-13.84-6.06-20.1-1.35-2.66-3.72-12.35-6.74-13,0,0-21.18.15-31-7.58,0,0-22.53-15.18-28.48-21.5,0,0,16.42-10.61,38.67-3.86,0,0,8.94,2.13,19.86,31.81,0,0-3.36-3.86-6.59-5.25,0,0-28.63-19.44-32.94-20.82s-10.69-4.93-17.86-1.42c0,0-1.17,0-.31-.79s1.83.31,2,.57"/><path class="cls-7" d="M102.59,47.92s-3.26,2.5-3.81-13.3,1.27-25.21,1.91-27.72c0,0,18.59,7.16,18.73,16.72,0,0,.64,3.67-7.77,13.66s-9.3,10.17-9.3,10.17l11.19-9.76s5.26-3.92,5.61-8.27,0-7.24-.6-8.37"/><path class="cls-7" d="M101.83,46.71s1.34-38.82.69-39.81c0,0,.91,21.25-1.59,39.55,0,0,.38,1.3,1.42,1"/><path class="cls-6" d="M89.42,145.65l-4.67-4.58a10.87,10.87,0,0,1-1.94-1.9l-2-2-4-4-7.94-7.76-5.26-5.14c-3.61-3.54-7.42-6.87-11.08-10.35a95.4,95.4,0,0,1-8.71-8.82c-.1-.12-.2-.28-.11-.41a.35.35,0,0,1,.24-.12c2-.33,4.22.22,6.15.5,1.4.2,2.79.41,4.18.68,3,.55,6,1,8.69,2.57,5.55,3.2,9,9.09,12.28,14.4a110.23,110.23,0,0,1,7,13.32q1.09,2.52,2,5.1"/><path class="cls-6" d="M115.76,77.76c3.16,1.24,8.72-1.61,11.72-2.62,4.64-1.57,9.17-3.46,13.67-5.38,9-3.85,18-7.93,27.58-10,1.64-.36,3.3-.66,5-.9,1-.13,1.92-.24,2.89-.3a23.46,23.46,0,0,1,13.17,2.55c-1-.57-4.09,2.24-4.95,2.76-2.73,1.67-5.55,3.24-8.32,4.86-17.08,10-37.39,17.22-57.31,12.55-1-.22-1.9-.47-2.83-.76a7.57,7.57,0,0,1-2.15-.91c-1.61-1.08-2-3.35-1.93-5.15"/><path class="cls-6" d="M116.66,172s-5.07-3.06,2.13-7.63a21,21,0,0,1,7.43-3.21,18.24,18.24,0,0,1,6.33.41c.68.11,1.95-.6,2.66-.73,2.51-.46,6.32-.24,8,1.92,1.89,2.38,1.36,6.91-1.37,8.45a8.75,8.75,0,0,1-2.56.84,58,58,0,0,1-13.72,1.24,54.05,54.05,0,0,1-5.68-.42C119,172.72,117.39,172.67,116.66,172Z"/><path class="cls-6" d="M79.46,166.15s.6-2.88,8.07-3.7,8.76-1.19,12.06,1.85.55,6.34-2.3,7.32-16.13.17-17.48-.89S78.72,168,79.46,166.15Z"/><path class="cls-6" d="M58.68,159.23c-2.53-7.68,11.59-8.48,16.14-8.58a2.41,2.41,0,0,1,1.1.15A3.44,3.44,0,0,1,77,152c1.37,1.87,3.8,3.39,2.14,6-2.4,3.82-12.48,3-16.37,2.72C61.4,160.68,59.24,160.93,58.68,159.23Z"/><path class="cls-6" d="M133.8,152a3.38,3.38,0,0,1,2.45-2.86c2-.82,6.27-2.31,9-1.56s4.09-.61,3.95,2.11-.95,4.62-5.17,4.15-5,.47-6.68,0A14.76,14.76,0,0,1,133.8,152Z"/><path class="cls-6" d="M98.89,157.77l-.15-.3c-.79-1.61-1.65-3.06.44-3.75,2.64-.89,4.26-2.55,7.14-1.58,1.81.61,5.33,1.13,5.55,3.53a6.12,6.12,0,0,1-.21,1.8c-.22,1-.62,1.29-1.58,1.58-2.4.71-7.37,2.31-9.62.67A5.64,5.64,0,0,1,98.89,157.77Z"/></g></g></g></svg>