<svg xmlns="http://www.w3.org/2000/svg" viewBox="0 0 145.08 172.39"><defs><style>.cls-1{fill:#956134;}.cls-1,.cls-3{opacity:0.5;}.cls-2,.cls-3,.cls-4{fill:#baae54;}.cls-2{opacity:0.48;}.cls-4{opacity:0.51;}.cls-5,.cls-6{fill:none;stroke:#000;stroke-width:0.5px;}.cls-5{stroke-linecap:round;stroke-linejoin:round;}.cls-6{stroke-miterlimit:10;}</style></defs><g id="레이어_2" data-name="레이어 2"><g id="color"><path class="cls-1" d="M68.48,169.25c-.64-.52-.4-1.3-.2-3.83.32-4.11.6-8.22.73-12.34a219.71,219.71,0,0,0-1.5-33.43c-.58-4.8-2.44-10.41-1.86-15.16.68-5.6,1.68-9.11.23-14.92-1.35-5.45-2.14-11.15-1.12-16.68,1.93-10.44,6.61-16.73,2.95-27.49L62.43,29.91c-.61-1.81-.31-4.79,2.54-3.56a4.83,4.83,0,0,1,2.33,3.06c1.21,3.68.77,7.83,2.51,11.29,1.94,3.85,5.79,6.15,7.1,10.4C78.44,56,77,61.62,76.1,66.51c-.74,4.06-5,22.3.62,24.27A6.27,6.27,0,0,0,79.2,91l19-1.13c-5.39,5-14.58,4.93-18.91,10.88-3.1,4.26-2.53,10.06-2,15.3a302.22,302.22,0,0,1,1.72,30.37c0,2.42-1.9,24.25,1.39,25-3-.71-6.78-.12-9.74-1.2A9.06,9.06,0,0,1,68.48,169.25Z"/><path class="cls-2" d="M63.91,62.8c-.85.38-1.77.67-2.61,1.06-4.5,2.07-7.91,7.27-13.5,4.21a.76.76,0,0,0-1,.06c-1.83,1.47-3.89,2.78-5.66,4.25C39.15,74,38.44,75.94,35.94,77c-3.75,1.58-8.85,1.68-12.93,2a6.11,6.11,0,0,0-2,.36c-3.46,1.49-4.41,8.49-.86,10.31,5.22,2.68,6.17,3,13.31,2.86,10.8-.27,13.7-8.68,22.12-12.88,2-1,4.29-1.59,6.33-2.57a9.77,9.77,0,0,0,5.23-6.39,10.47,10.47,0,0,0,.54-4.86c-.07-.4-1.84-4.28-2-4.09A6,6,0,0,1,63.91,62.8Z"/><path class="cls-2" d="M51.85,118.82a1.71,1.71,0,0,1-1.24-.17,22.6,22.6,0,0,0-4-1.16c-.68-.13-1.51-.18-1.94.36s-.14,1.56-.52,2.23a2.33,2.33,0,0,1-1.68.88c-2.84.56-10.89,4.1-11.72-.23-.76-4,1.59-6.37,2.31-9s.61-10.14.61-10.14l5.08.05c1.76.67,4,1.57,5.94,1.48,3-.15,3.56-2.41,6-3.74a.72.72,0,0,1,.48-.13c.38.06.48.55.51.93a4.72,4.72,0,0,0,.83,2.68,2,2,0,0,0,2.53.58,2.69,2.69,0,0,0,.86-2.23c0-2.11-.88-8.27-3.16-9.42-1-.51,6-3.73,7-3.65,1.64.12,3.33,1.3,3.43,2.94.08,1.38-.9,2.93-.07,4a4.6,4.6,0,0,0,1.58,1c2.17,1.24,2.76,4,3.12,6.52a1.65,1.65,0,0,1-.11,1.12,1.43,1.43,0,0,1-.75.49c-1.56.52-3.39.08-4.83.89C60,106.35,59,109,57.75,111c-1.61,2.49-3.48,4.84-5.22,7.24A1.59,1.59,0,0,1,51.85,118.82Z"/><path class="cls-2" d="M78.34,83.58c-3.16-.14-12.8-.9-7.57-5.82s-1-5.85,7.57-7.16a43.5,43.5,0,0,0,9.09-2.82,1.59,1.59,0,0,1,1.22-.12,1.44,1.44,0,0,1,.66,1.16,5.79,5.79,0,0,1-.88,4c.75-1.13,6.53-.4,7.72-.41,3.64,0,8.37-2.08,11.7-1.06,1.86.57,3.12,2.25,4.24,3.84,4.2,5.94-10.76,6.86-14,7.33a106,106,0,0,1-19.74,1Z"/><path class="cls-2" d="M51.3,28l6.41,7.4c1.56,1.8,15.52,5.45,15.32,6.89a27.75,27.75,0,0,1,1.39-6A3.71,3.71,0,0,1,76,34c1.21-.6,2.62.13,4,.25,1.78.16,3.47-.8,4.92-1.86a29.89,29.89,0,0,0,12-21.88,1.68,1.68,0,0,0-.1-.86A1.66,1.66,0,0,0,95.92,9c-3.37-1.45-7.28-1.14-10.71-2.47-2.69-1-4.92-3-7.57-4.19C74.5,1,71,.83,67.55.73,64.63.64,61.41.66,59.22,2.6c-1.75,1.54-2.4,4-3.8,5.84-3.11,4.19-9.11,4.84-13.36,7.86-1.35,1-2.63,2.5-2.26,4.11A4.54,4.54,0,0,0,41,22.32"/><path class="cls-2" d="M77.59,46.25l0,.25c4.43-1.42,10-1.16,14.66-1.59l16.11-1.47a6.24,6.24,0,0,0,2.1-.43,5.65,5.65,0,0,0,1.86-1.62c2.88-3.57,5.3-8.84,1.25-12.52-6.39-5.81-8.53-4.54-10.32-11-1.09-4-3.22-6.05-7.29-6.63-4.64-.67-11.47-.93-15.78.9-5.13,2.17-6.65,6.92-6,12.06C75.28,31.49,76.25,39,77.59,46.25Z"/><path class="cls-3" d="M66.23,54.75c-10.37.56-6.27.59-14.32,1.24s-10.64.93-13.67.36-9-2.31-11.12-1.6-3,3.15-4.79,5.6S19.72,64,19.21,69.28,20.79,80.15,23,79s-.27.18,4.11,3.05.11,3.25,7.55,2.65,7,1.57,11.57-2.65,1.48-5.27,7.94-7.87,8.2.93,10.58-1.28.12-5.46,2.91-7.07S73,63,70.5,60.35A39.42,39.42,0,0,1,66.23,54.75Z"/><path class="cls-4" d="M66.68,50.08c-2.31.78-4.81.24-7.07,1.07S55.69,54.07,53.44,55s-4.76.68-7,1.59-3.77,2.73-6,3c-2.69.36-5.05-1.62-7.41-3a16.44,16.44,0,0,1-3.48-2.21,22,22,0,0,1-2.13-2.91,10.74,10.74,0,0,0-7.24-4.21c2.92-2.09,6.32-3.4,9.15-5.61,3.21-2.51,6.14-5.35,9.23-8,6-5.19,13.5-9.91,21.35-8.75,6.43,1,11.78,5.84,14.76,11.62a14.88,14.88,0,0,1,2,8.41C76,50.91,70.3,51.8,66.23,54.75"/><path class="cls-3" d="M78.06,63.89c4.47.3,3,.21,7.94,1.18s5,2.76,6.8.54.17.6,3.47,1.3,2.88,0,7.23,2.2,5,1.93,11.58,1.49,10.52-.33,12.37-1.32,5.91-8.78,2.38-13.74-7.07-8.5-8.16-10.14-3-5.17-7.1-3.78-6.84,5.73-12.25,3.3S87.57,42.7,86.25,42.16,73.71,38,73,42.24s-2.66,7.65-.41,12.19S78.06,63.89,78.06,63.89Z"/><path class="cls-3" d="M105.56,114.73a19.35,19.35,0,0,1-12.08-4.46c-4-3.56-4.52-9.06-9.93-11-4-1.45-9.11-2.33-10.64-7-1.82-5.62,5.43-8.62,5.43-8.62s5-.47,8.21,1.11c6.8,3.31,11.37,8.63,14.37,15.41.91,2.06,7.17,10.16,5.18,11.88-.56.49-1.31.83-1.6,1.51S105,115.19,105.56,114.73Z"/><path class="cls-3" d="M91.19,84.69c6.94-2.16,10.08,2.83,12.11,3.3s-.54,4.34,2.48,5.68,11.33,1.52,15.65,1.56,4.84-4.24,4.31-7.69-5.25-6-7.11-6.48-11.23-6.27-11.23-6.27-6.37.57-10.49,2.35-13.13.28-13.53,2,.78,4.27,3.17,5.57A5,5,0,0,0,91.19,84.69Z"/></g><g id="drawing"><path class="cls-5" d="M68.88,129.92c.31,2.4.35,4.83.48,7.24.24,4.65.18,9.3.08,13.94a166.53,166.53,0,0,1-1.59,19.57H78.23c.07-1.55.15-3.1.21-4.65.35-9.59-3.51-18.77-3.25-28.21.11-4,.41-8,.66-12,.14-2.3.36-4.61.41-6.91.06-2.91-.32-5.51.52-8.28a14,14,0,0,0,0-8.91,9.27,9.27,0,0,1-.23-1.19"/><path class="cls-5" d="M109.35,87.88a1.79,1.79,0,0,1-1.42-.41A24.7,24.7,0,0,0,102,85.06a37.45,37.45,0,0,0-11.24-1.5c-2.77,0-5.47.67-8.22.93-1.15.11-2.19.6-3.33.74a1.28,1.28,0,0,0-1.09,1.24c0,.54-.34.84-.65,1.19a9.45,9.45,0,0,0-1.93,5.62,1.16,1.16,0,0,0,.21.75.85.85,0,0,1-.14,1.27,1.2,1.2,0,0,1-1.49,0A4.08,4.08,0,0,1,73,90.09c0-.07,0-.18,0-.27"/><path class="cls-5" d="M92.17,92.42a7.16,7.16,0,0,1,1.4,4.75,4.06,4.06,0,0,0,.56,2.15c.76,1.16,2.06,1.4,3.55.77a7.82,7.82,0,0,1,1.86-.76c.75,1.15.75,2.52,1,3.79a5.9,5.9,0,0,0,1.29,2.73,8.21,8.21,0,0,1,1.88,7.65,1.23,1.23,0,0,1-1.2,1.09c-1.77.2-3.53.5-5.29.74-1.54.2-2.39-.62-2.17-2"/><path class="cls-5" d="M122.32,72.53c-.26-3.73-1.07-4.89-5.09-6.58-1.71-.72-3.58-1-5.3-1.72s-3.1-1.57-3.78-3.37c-.2-.52-.58-.62-1.18-.46-1.57.43-3.17.75-4.75,1.11-1.1.24-1.24.12-1.53-1a5.54,5.54,0,0,1-.09-2.71c.26-1.11.4-1.28,1.51-1.18a13,13,0,0,1,5.83,1.94"/><path class="cls-5" d="M67.53,48.86a28.73,28.73,0,0,0-5.93-3.39,6.76,6.76,0,0,0-5.19.07,16.69,16.69,0,0,1-6.5,1.16,11.4,11.4,0,0,0-1.84.09,1.59,1.59,0,0,1-1.7-.62c.63-1,1.81-1,2.79-1.29,1.67-.56,3.39-1,5.07-1.54a1.58,1.58,0,0,0,1.21-1.28,2,2,0,0,1,1.06-1.63"/><path class="cls-5" d="M67.85,66.15A2,2,0,0,0,68.49,65c.37-2.44.67-4.9-.44-7.23-.79-1.65-1.68-3.31-3.82-3.73-1.19,2.72-3.74,3.83-6.11,5.12S53.38,61.59,51,62.79a1.68,1.68,0,0,1-1.42.12,3.46,3.46,0,0,0-4.19,2.81,6.4,6.4,0,0,0-.11,1"/><path class="cls-5" d="M64.07,54.16A3.7,3.7,0,0,0,60.94,54a40.47,40.47,0,0,1-5.08,1.36,2.61,2.61,0,0,1-1.61-.2c-1.82-1.13-3.53-.52-5.32.1-1.48.52-2.38,1.77-3.65,2.53-.31.18-.1.63-.12,1"/><path class="cls-5" d="M64.72,108a2.54,2.54,0,0,1,.22-.64c.33-.48.67-.58,1.2-.13.7.6,1,1.61,1.94,2,1.45-1.42,1.63-5.06.31-6.8-1.49-2-4.21-2.8-6-2-.61.29-.78.56-.74,1.13a10,10,0,0,1-3,8,.68.68,0,0,0-.2.55c0,.22,0,.44,0,.65-.13,2.42-.22,2.47-2.59,2.83a8.87,8.87,0,0,0-3.25.94c-.14.08-.36,0-.54,0"/><path class="cls-5" d="M51,79.23a2.06,2.06,0,0,1,2.5.43c.52.5,1.23.25,1.82.19a21.36,21.36,0,0,1,6.17.77c1.62.31,3,1.25,4.64,1.56.66.13,1,.95,1.26,1.5.51.94,1.12,1.93.49,3.13-.35.67.08,1.43.12,2.15.18,3,.46,6.05.73,9.08.08.83-.59,1.68.1,2.48"/><path class="cls-5" d="M96.71,24.33c-.65-.59-.46-1.28-.22-1.95.49-1.3,1-2.58,1.51-3.89,1.47-4-2.29-6.84-5.08-6.71-1.77.09-1.65.12-2.31,1.78a2.23,2.23,0,0,0,.56,2.8c.26.25.46.1.67.19"/><path class="cls-5" d="M86.87,69.29c.82-.08.83.65.95,1.09a4.28,4.28,0,0,1-.4,3.88c-.77,1-1.41,1-2.06-.11-.39-.7-.7-1.45-1.09-2.16-1.06-1.93-2.84-1.92-3.93-.07a3.72,3.72,0,0,0-.52,3.32c.15.38.34.29.57.32"/><path class="cls-5" d="M88.28,100.85a2.06,2.06,0,0,0,0-1.84c-.48-1.37-1-2.73-1.5-4.11A1.23,1.23,0,0,0,85.69,94c-2.34-.34-4.33.53-6.27,1.64a13.12,13.12,0,0,1-2.62,1.53c-.7-.37-.63-1.21-1.06-1.75"/><path class="cls-5" d="M36.08,116.63c-.53.59-1.36.66-2,1.17-1.19,1-1.62,1.94-1.28,2.93a3.46,3.46,0,0,0,2.91,2c2.3.26,5-1.93,5.3-4.44,0-.18.07-.36.11-.54"/><path class="cls-5" d="M95,104.09a1.93,1.93,0,0,1-1.52.22c-1-.2-2-.71-3-.92-.72-.14-1-1-1.51-1.59s-.5-.94-1.19-1.11c-.44-.11-.71-.71-.89-1.24a6.79,6.79,0,0,0-2-3.14,2.42,2.42,0,0,0-2.16-.49,1.11,1.11,0,0,0-1,.91c-.2.85-.56,1.66-.84,2.5-.1.31-.14.66-.54.69-1.33.12-2.67.22-4,.33"/><path class="cls-5" d="M45.16,32.87c-.09.63-.57.81-1.08.85a3.73,3.73,0,0,1-2.38-.42c-.45-.28-.93-.52-1.41-.76-1.36-.66-2.41-.59-3.24.22a3.2,3.2,0,0,0-.56,3.57,5.61,5.61,0,0,0,1.66,2c.3.31.67.52.74,1"/><path class="cls-5" d="M109.67,39.35a2.49,2.49,0,0,1-.43-.22c-1.41-1.11-2.08-.61-3.34.23a14.68,14.68,0,0,1-1.53,1.16c-1.46.66-2.68.63-3.17-1.17a2.7,2.7,0,0,0-.82-1.41,2.21,2.21,0,0,0-2.59-.21,2.06,2.06,0,0,0-.52,2.68c.77.94.31,1.48-.35,2.07"/><path class="cls-5" d="M68.07,67.78c.24-1.76-1.22-2.29-2.29-3-1.77-1.2-3.87-1.31-5.93-1.3A12.25,12.25,0,0,0,55,64.53c-.07,0-.15,0-.21.06-.5.27-1.37.51-1.12,1.1a1.65,1.65,0,0,0,1.76,1,32.74,32.74,0,0,1,6.49-.07,8.45,8.45,0,0,1,4.53,1.6,2.32,2.32,0,0,1,1.09,1.5"/><path class="cls-5" d="M101.57,67c.7.63.93,1.64,1.93,2.09a5.32,5.32,0,0,0,3.21.41c.51,1.49,1.11,2.93,3.07,2.9s2.55-1.43,2.91-3.14c2.13.63,4.26,0,6.39.21.91.09,1.65.74,2.59.66"/><path class="cls-5" d="M106.65,77.18a11.44,11.44,0,0,0-5.94-4.24,17.5,17.5,0,0,0-5.09-.53c-.31,0-.59.09-.63.34-.12,1-1,1.4-1.53,2"/><path class="cls-5" d="M72.61,77.93c-1.32-.52-2.66.13-4-.07-.73-.11-.71.51-.53,1a8.14,8.14,0,0,0,2.8,4,18.21,18.21,0,0,0,4,2.36,2.86,2.86,0,0,1,.86.66"/><path class="cls-5" d="M96.38,41.4a29.1,29.1,0,0,0,.68,3.24,1.87,1.87,0,0,0,1.7,1.18c.55.06,1,.06,1.23-.73a3.71,3.71,0,0,1,4.28-2.38A1.77,1.77,0,0,1,105.68,44a4.85,4.85,0,0,0,8.83.53,5.71,5.71,0,0,1,.67-.85"/><path class="cls-5" d="M52.72,91.77a7.15,7.15,0,0,1,1,4c0,.7-.41,1.27-.48,2a6.84,6.84,0,0,1,3,2.75c1.18,2.48-.35,4.87-2.3,6a1.16,1.16,0,0,1-1.28-.25,3.22,3.22,0,0,1-1.39-1.81,1.17,1.17,0,0,0-1.22-1,7.08,7.08,0,0,1-4.85-2.21A2.82,2.82,0,0,0,43.12,104a7.59,7.59,0,0,1-.23,1.19"/><path class="cls-5" d="M115,42.7c-.06.61.4.93.76,1.3,1.59,1.64,3,3.43,4.73,5a70.35,70.35,0,0,0,6.28,5.17,6.61,6.61,0,0,1,.71.7c-1.18,1.21-2.65,1.19-4.16,1.08a8.53,8.53,0,0,1-4.31-2,1.58,1.58,0,0,1-.55-1.28"/><path class="cls-5" d="M47.86,81.72a4,4,0,0,0-5.52-1.09,4.73,4.73,0,0,0-1.5,1.85,2.91,2.91,0,0,0,.4,3.15,3.71,3.71,0,0,1-.51,5.06,2.9,2.9,0,0,1-4.41-1.63c-.07-.25-.29-.81.41-.75"/><path class="cls-5" d="M72.39,15.46c-2.36-.57-4.68.16-7,.22-1.58.05-1.68.18-1.19,1.62.37,1.07.47,2.26,1.29,3.14"/><path class="cls-5" d="M67.4,116.83c.3-.08.46.32.5.63.2,2,2.12,11.34.6,12.35"/><path class="cls-5" d="M90.76,78.26c-1.51-.06-2.18,1.12-3,2.06a8.56,8.56,0,0,0-.63.85,13,13,0,0,0-3.26-2.49c-2.82-1.35-5.65-.2-6.15,3-.07.42-.4.68-.45,1.08"/><path class="cls-5" d="M54.67,19.14c-.34,1.15-1.58.82-2.28,1.4a1.08,1.08,0,0,1-.42.11c-1.61-1.27-3-1.29-4,.13-.75,1.11-.38,2.33.2,3.43a7.27,7.27,0,0,1,1,1.85"/><path class="cls-5" d="M99.73,90.26a3.91,3.91,0,0,0-3.57-2.48,18.73,18.73,0,0,0-7.64,1.29A15.53,15.53,0,0,1,85,90.47"/><path class="cls-5" d="M90.76,13.74c.9.64,1.84,1.25,2.7,1.95,1.5,1.24,1.26,3.06-.42,4.12a5.15,5.15,0,0,1-2.71.72,3.09,3.09,0,0,0-1.41.34"/><path class="cls-5" d="M118,56.75a.58.58,0,0,0-.43-.65,30.13,30.13,0,0,0-4-1.51c-2.79-.62-4.69.59-5.83,3.67"/><path class="cls-5" d="M75.42,29.57c-.85.13-.84.89-1.08,1.46s-.34,1.3-1.18,1.55c-.43.13-.78.65-1.09,1.05-1,1.4-1,2,0,3.45.46.61,1.18,1,1.51,1.73.16.35.35.68.11,1.08s-.69.28-1,.19c-.67-.21-1.3.11-2,0"/><path class="cls-5" d="M95.62,61c-.21.1-.5,0-.64.27a5.05,5.05,0,0,0,1.29,5.62,4.82,4.82,0,0,0,5.19,0,.7.7,0,0,0,.32-.65"/><path class="cls-5" d="M52.83,31.24a5.32,5.32,0,0,1,4-.67,3.07,3.07,0,0,1,2.06,2.29,6.76,6.76,0,0,0,5.83,5.75c.9,0,1.25-.12,1.17-1a20.68,20.68,0,0,0-.41-4.22,1.07,1.07,0,0,1,0-.64c.86-2.41-1.33-3-2.49-4.22-2.45-.28-2.85-2.35-3.54-4.12-.22-.57-.67-1-.89-1.5"/><path class="cls-5" d="M41.92,39.89a1.62,1.62,0,0,1-.44,0,13.23,13.23,0,0,0-5.14-.18,2.48,2.48,0,0,1-1.21,2.38,4.49,4.49,0,0,1-4.13.33,13.29,13.29,0,0,0-3.46-1c-1.33-.09-1.65.09-1.49,1.42.25,2,1.16,3.82,3.11,3.57"/><path class="cls-5" d="M106,81.61a3.73,3.73,0,0,0,1,1.18,5.27,5.27,0,0,1,1.37,1.94c.63,1.5,1.51,2.1,3.27,1,1.16-.74,2.3-1.51,3.46-2.26"/><path class="cls-5" d="M98.43,89.07c-1.06.92-2.49,1.13-3.67,1.83a14.8,14.8,0,0,1-2.52,1.31,22.16,22.16,0,0,1-2.88,1.09c-.94.2-1.12.6-.75,1.49a19.27,19.27,0,0,0,2.59,4.65,24.25,24.25,0,0,0,3.33,3.69c.52.44.65,1.39,1.63,1.18"/><path class="cls-5" d="M92.6,81.93c-.07-.35.3-.37.44-.41a3.35,3.35,0,0,0,1.54-1.07A5.35,5.35,0,0,1,99,79.16a7.68,7.68,0,0,1,3.54,1.36,4.5,4.5,0,0,0,4.25.66c.7-.3,1.49-.24,2.18-.73a3.38,3.38,0,0,0,1.37-1.87,1.93,1.93,0,0,0-2.59-2.38,11.4,11.4,0,0,1-1.07.44"/><path class="cls-5" d="M45.16,57.72c-1.24-1.22-1.43-1.21-3-.35-.39.21-.66.72-1.42.42a1.49,1.49,0,0,1-1.17-1.58c0-.32-.07-.65-.1-1-.11-1.45-.81-2-2.27-1.85-.58.06-.69.35-.77.87a3.68,3.68,0,0,1-3.55,2.81c-.22,0-.49,0-.64-.11-1.11-.91-2.59-.88-3.79-1.52a3.23,3.23,0,0,0-3.45,0,3.79,3.79,0,0,0-1.72,3.66c0,.76.38,1.5.5,2.27.08.5.43.63.78.81"/><path class="cls-5" d="M82.55,9.84a.7.7,0,0,0,.83-.64c-.1-1.73.1-3.58-1.48-4.87h-.18c-.58.4-.93,1.27-2,1.14-.53-1-.75-2.35-1.84-3.21A5.78,5.78,0,0,0,75,1.1,1.11,1.11,0,0,0,73.69,2"/><path class="cls-5" d="M71.53,77.5a3.58,3.58,0,0,1,2-4.9,2.24,2.24,0,0,1,2.42.25,3,3,0,0,0-.17,1.63,28.71,28.71,0,0,1,.11,5.08,4.22,4.22,0,0,0,2.39,4.22c.51.26.62.83.87,1.29"/><path class="cls-5" d="M43.86,67.13a5.13,5.13,0,0,1-1.51-1.73c-1.33.12-2,1.15-2.7,2a14.23,14.23,0,0,1-1.85,2.37,4,4,0,0,1-4.53.55"/><path class="cls-5" d="M44.51,70.59c-.26,0-.46,0-.43-.33a6.35,6.35,0,0,0-.22-1.84c-.1-.49-.26-1.13.23-1.36A2,2,0,0,1,46,67c.58.36,1.18.68,1.72,1.09a3.51,3.51,0,0,0,3.14.73,7,7,0,0,0,4-2"/><path class="cls-5" d="M56.5,38.92c-.17,1.65.88,2.82,1.63,4.1.23.4.64.24,1,.16,2.06-.51,3.83.33,5.62,1.14.55.25.42.75.43,1.19"/><path class="cls-5" d="M35.43,56.21c.77.73.46,1.72.64,2.6s.21,1.72,1.2,2a2.27,2.27,0,0,0,2.49-.75,3.7,3.7,0,0,0,1.29-2.05"/><path class="cls-5" d="M36.4,88.31c-1-1-1.33-1-2.6-.23a4.16,4.16,0,0,0-1.93,2.61,3.28,3.28,0,0,0-.21.86c-.08,1.59-1.27,2.49-2.17,3.57"/><path class="cls-5" d="M66,38.16c1.2,1,.91,2.43,1.17,3.68s.35,2.74.58,4.1a1.7,1.7,0,0,0,.63,1.3"/><path class="cls-5" d="M90.33,38.59a2.45,2.45,0,0,1,1.61,2.59c-.26,1-1.14,1.09-1.94,1.3-1.82.5-3.45-.15-5.07-.86s-3.3-1.49-5-2.14a2.56,2.56,0,0,0-2-.13"/><path class="cls-5" d="M57,50.7c-1.57.72-3.06.14-4.53-.34-1.63-.52-3.11-.51-4.33.88"/><path class="cls-5" d="M77.36,20.44a.56.56,0,0,1-.33.63c-1.33.42-2.38,1.35-3.65,1.88-.7.3-.81,1.2-1.19,1.82-.8,1.27-1.57,2.56-2.25,3.9a2.32,2.32,0,0,1-.59.81c-1.24.54-1,1.49-.73,2.41.43,1.59.89,3.18,1.41,4.75a3.64,3.64,0,0,1,.09,2.28"/><path class="cls-5" d="M64.39,108c2.63,2.53,4.9,4.88,3.29,8.84"/><path class="cls-5" d="M45.16,20.65c-1.06.25-2.23,0-3.16.85a3.3,3.3,0,0,0-.84,1.12.9.9,0,0,0,.54.52,3.52,3.52,0,0,1,2.5,2.7c.07.41.4.59.85.55,1.29-.13,2.6.2,3.9-.2a3.44,3.44,0,0,1,1.18.08"/><path class="cls-5" d="M75.09,87.12a3.53,3.53,0,0,0-4-.54c-1.3.71-1.29,2,0,3.15.47.39,1,.5,1.53.85"/><path class="cls-5" d="M95.41,43.24c-.64,1.18-1.32,2.34-2,3.49a1.4,1.4,0,0,1-1.23.78c-1.27.09-3.66-.84-4-1.89a1.22,1.22,0,0,1,0-.33"/><path class="cls-5" d="M106.32,29.84c0-.58.44-1,.54-1.51a2.48,2.48,0,0,0-2.27-3,5.78,5.78,0,0,0-3.35.4"/><path class="cls-5" d="M26.68,69.18c-.47.47.15.84.13,1.3-.12,2.55-.17,5.11-.24,7.67"/><path class="cls-5" d="M84.6,90.36A38.51,38.51,0,0,0,77,94.14a4.1,4.1,0,0,1-1,.33"/><path class="cls-5" d="M73.58,50.59a3.19,3.19,0,0,0,1.62.63c2.6.41,3.15,2.58,3,4.23a3.71,3.71,0,0,0,.13,1.63"/><path class="cls-5" d="M43.1,105.49c-1-.5-2.14-.81-2.81-1.83a4.63,4.63,0,0,0-.54-.75c-.39-.39-.32-1.18-1-1.29a3.52,3.52,0,0,0-2.48.52c-1.21.76-1.27,1.09-.44,2.28s1.8,2.59,2.71,3.88"/><path class="cls-5" d="M88.38,20a3.74,3.74,0,0,0,1.52,2.17,1.65,1.65,0,0,1,.94,1.72c-.15.84-1,1.05-1.7,1.19a2.08,2.08,0,0,1-.86,0,8.42,8.42,0,0,0-2.92.12"/><path class="cls-5" d="M54.88,14.38c.07-.52-.31-.47-.64-.54a6.14,6.14,0,0,0-3.36.42A12.32,12.32,0,0,0,45.7,17c-.15.14-.41.28-.42.43,0,1.25-.91,1.41-1.85,1.51"/><path class="cls-5" d="M118.53,91.55c.42,1.47-.61,2.26-1.52,3a4.34,4.34,0,0,1-6,0,2.32,2.32,0,0,0-.87-.53"/><path class="cls-5" d="M26.73,79.12c.17-.22-.11-.55.21-.74A5.06,5.06,0,0,0,23.87,78a2.64,2.64,0,0,0-1.95,2.84,2.8,2.8,0,0,0,2.6,2.38h.54"/><path class="cls-5" d="M68.28,70.59a.73.73,0,0,0-1-.75,6,6,0,0,0-4.45,2.79c-.7,1.15-.45,2.37-.52,3.58"/><path class="cls-5" d="M91.74,81.39a7.25,7.25,0,0,1-3.61.25,4.36,4.36,0,0,0-.87-.13,5,5,0,0,0-1.07.24c-2.4.67-5.62-.28-7.42,1.91"/><path class="cls-5" d="M61.8,93.07a20,20,0,0,0,1.73-3.14c-2.11-2.1-5.14-1.68-6.92,1-.23.34-.43.71-.65,1.07"/><path class="cls-5" d="M93.68,74.37A2.31,2.31,0,0,1,92.93,73c-.58-1.86-1.49-3.39-3.57-3.9a2,2,0,0,0-1.84.34"/><path class="cls-5" d="M93,55c-.23.09-.48,0-.67.37a4.07,4.07,0,0,1-4,2.06A2.93,2.93,0,0,0,86,59.13a8.18,8.18,0,0,1-2,3,1.17,1.17,0,0,1-2.12-.43,8,8,0,0,1-.23-2.26.68.68,0,0,1,.63-.62c1.11.08,2.14-.48,3.24-.34a1.47,1.47,0,0,1,.44.21"/><path class="cls-5" d="M89.46,30.27c-1.24-.27-2.57.08-3.78-.54a8.14,8.14,0,0,1-3.57-4s-.07-.07-.1-.11c-2.82.66-3.69,3.92-1.84,6.87a3.77,3.77,0,0,1-5.84.16,2.42,2.42,0,0,0-.32-.32"/><path class="cls-5" d="M85.9,48.65c-.41,1-.29,1.58.76,1.91a23.45,23.45,0,0,0,5.18,1.25c.48,0,.73-.23,1.08-.35"/><path class="cls-5" d="M27,45.73a2.37,2.37,0,0,1-1.95.23.91.91,0,0,0-1.12.5c-.53.89-1,1.81-1.46,2.73s-.32,1.09.64,1.28A6.33,6.33,0,0,0,28.4,49.4c.2-.16.35-.38.55-.53s.58-.35.85-.21a.79.79,0,0,1,.45.85,10.83,10.83,0,0,1-.18,1.29,5.66,5.66,0,0,0,.16,4.44c.09.17,0,.43,0,.65"/><path class="cls-5" d="M121.13,85.5a2.15,2.15,0,0,1,2.9,1.41c1.16,3.49-1.15,7.65-4.52,8.32-.55-.45-.42-1.28-1-1.73"/><path class="cls-5" d="M56.29,3.9c.07,0,.19-.12.21-.1,1.42,1.35,2.89,2.67,3.22,4.9-1,.93-2.36.75-3.65.65A13.86,13.86,0,0,1,51.75,7.9"/><path class="cls-5" d="M51.32,119.54a6,6,0,0,0-3.79-1.43c-1.48.07-2.48,1-3.55,1.77-.31.23,0,.65-.17,1"/><path class="cls-5" d="M104.92,30c3.06-.06,5.68,1.22,8.21,2.77a.78.78,0,0,1,.11,1.39,3.3,3.3,0,0,1-3,1"/><path class="cls-5" d="M58.45,72.64A8.77,8.77,0,0,0,53.06,76c-.37.51-.92,1-.55,1.83.16.35-.19.63-.11,1"/><path class="cls-5" d="M74.34,4.44a3.62,3.62,0,0,0-.82-2.3C72.39,1.33,71.27.32,69.69.25c-.72,0-1.12.21-1.17.84-.1,1.12-1,1.81-1.36,2.79-.24.67-1.07.82-1.79.89a7.29,7.29,0,0,1-4.22-.87,8.48,8.48,0,0,0-2.92-.81"/><path class="cls-5" d="M65.26,32.65c-2.08-.78-4.12-1.62-6.18-2.45A8.4,8.4,0,0,1,56,28.12a2.9,2.9,0,0,0,.67-2.39,3.74,3.74,0,0,1,.5-2.16"/><path class="cls-5" d="M90.33,103.55c-.35,1.13.49,2,.68,3a3.21,3.21,0,0,1,.24,1.09c-.34,3.34,1.62,5.5,4.91,5.4"/><path class="cls-5" d="M44.13,70.69c-.16,2.38-1.38,3.62-3.4,3.46-1-.08-1.51-.5-1.62-1.4"/><path class="cls-5" d="M61.48,21.84c-.79,1.07-.24,2.11.12,3.13a8.09,8.09,0,0,0,.87,1.83,2.59,2.59,0,0,1,.41,1.63"/><path class="cls-5" d="M102.32,80.64a8.84,8.84,0,0,1-3.56.63c-1.11.12-2.24.07-3.35.2-.46.06-.71-.24-1.08-.29"/><path class="cls-5" d="M46.24,46.27,39.75,47"/><path class="cls-5" d="M68.39,99.44a1.44,1.44,0,0,1-1.2-.75,32.41,32.41,0,0,0-3.12-3.89c-.35-.36-.65-.81-1.3-.68-.18,0-.51-.21-.63-.41a2.9,2.9,0,0,0-2-1.36c-.06,0-.07-.24-.11-.37"/><path class="cls-5" d="M91.19,16.65a4.79,4.79,0,0,1-2.92,1.4c-.57.11-1,.33-1,1-.07.86-.72,1.58-.58,2.49"/><path class="cls-5" d="M121,86.15c0-.3,0-.57-.2-.88a10,10,0,0,0-4.77-3.45,1.26,1.26,0,0,0-1.43.35c.14.58.25,1.19.89,1.49"/><path class="cls-5" d="M43.64,29.3a12.74,12.74,0,0,1,4.74,2.29C49,32,50,32,50.13,33"/><path class="cls-5" d="M86.87,42.7a1.93,1.93,0,0,1-1.73,1.1,13.32,13.32,0,0,0-2,.42,2.34,2.34,0,0,0-1.51,1.18"/><path class="cls-5" d="M82.22,58.8c-.33-.64-.2-1.39-.44-2s-.35-1.11-1.07-1.21-.82.32-1.1.76a1.38,1.38,0,0,1-1,.68,1.11,1.11,0,0,0-.74.53c-.55,1.48-2,1.19-3,1.46a3.67,3.67,0,0,1-3.35-.49,2,2,0,0,0-1.29-.23"/><path class="cls-5" d="M67.31,27.35a2.55,2.55,0,0,0,1.06-1.84,3.84,3.84,0,0,1,.56-1.72c.25-.38.09-.8.1-1.19s-.19-.58-.2-.87c0-.67.11-1.39-.87-1.51s-1.85-.38-2.59.43c-1.1,1.22-1.09,1.92,0,3.25A2.18,2.18,0,0,1,66,25.41a.71.71,0,0,0,.11.43c.91,1.22,1.26,2.79,2.37,3.89"/><path class="cls-5" d="M52.72,78a25,25,0,0,0,3.88-1.65,1.59,1.59,0,0,1,1.31-.09,6.32,6.32,0,0,0,2.7.66c.77-.06,1,.72,1.62,1a11.54,11.54,0,0,1,3,1.95c.65.58,1.18,1.2.86,2.16"/><path class="cls-5" d="M79.2,48.54a6.57,6.57,0,0,0,.43-1.62c.41-1.42,1.59-1.9,2.68-1s2,1.41,3,2.15a1.21,1.21,0,0,0,1.52.2,1,1,0,0,1,1.08.11,15.83,15.83,0,0,0,3.24,1.62A3.35,3.35,0,0,1,93,51.24a.61.61,0,0,0,.54.21A8.66,8.66,0,0,0,96.92,51c.32-.1.34-.29.33-.55"/><path class="cls-5" d="M23.76,61.72c-1.1.29-2.32.2-3.25,1.08A4.79,4.79,0,0,0,19,65.39a1,1,0,0,0,.35,1.09"/><path class="cls-5" d="M78.23,59.89l-1.6,1.24c.67.82.83,1.91,1.43,2.76,2.63-.06,5.28-.37,6.92,2.27a2.72,2.72,0,0,0,2.15-.91c.32-.51.09-1.39.55-2.09,1.32.71,3,1,3.3,2.89"/><path class="cls-5" d="M33.05,69.07c.24,1.92-.73,3.47-1.51,5.08-.29.62-.87,1.15-.65,1.95"/><path class="cls-5" d="M85.47,49.51a2.46,2.46,0,0,1-1.63.12A25,25,0,0,0,80,48.86a26.71,26.71,0,0,0-3.69-.42c-1.35,0-3.81,1.63-4.19,2.81a4.26,4.26,0,0,0,0,1.29"/><path class="cls-5" d="M25,86.42c-1.66-.29-3,.74-4.61.84.31,1.23,1.18,1.34,2,1.48.39.06.79.07,1.18.11a1.7,1.7,0,0,1,1.78,1.59,1.32,1.32,0,0,1-1,.79"/><path class="cls-5" d="M101.35,25.52a.92.92,0,0,1-.32-.87c.09-.74-.4-1-1-.95a6.69,6.69,0,0,0-3.57.95"/><path class="cls-5" d="M65.37,38.81c0,1.26,0,2.52,0,3.78a3,3,0,0,1-.44,1.84"/><path class="cls-5" d="M80.06,85.28c.39.69,1.15.92,1.75,1.27,1.65,1,2.32,2.58,3.1,4.14.07.14,0,.36,0,.54"/><path class="cls-5" d="M89.68,8.55a3.76,3.76,0,0,1-2,.15,6.18,6.18,0,0,0-2.8.4,3.59,3.59,0,0,1-1.52.2"/><path class="cls-5" d="M48.18,52.21c0-1.26-1.19-1.62-1.76-2.46-.23-.34-1.33.5-1.7,1.27A3,3,0,0,0,44.54,53a5.47,5.47,0,0,1-.68,3.68"/><path class="cls-5" d="M77.15,46.05A6.38,6.38,0,0,0,77,45c-.28-1-1-1.69-2.15-.75a1.86,1.86,0,0,0-.76,1.4"/><path class="cls-5" d="M25.49,90.36a17,17,0,0,0,1.72.13,3,3,0,0,1,2.39,2.25c.12.44.28.87.43,1.3"/><path class="cls-5" d="M95,61.18c-1.6-.49-3.24.42-4,2.28a4.54,4.54,0,0,1-.56,1.07"/><path class="cls-5" d="M92.38,55.24h-.11l.06-.11a3.6,3.6,0,0,0-4.27,2.16"/><path class="cls-5" d="M24.19,65.4c-.37,0-.55.16-.66.53a22.6,22.6,0,0,0-.73,4.22c0,.18.13.36.2.54"/><path class="cls-5" d="M62.88,49.51a3.1,3.1,0,0,0,3.8.57c.35-.19.51-.53.85-.68"/><path class="cls-5" d="M85.9,25.3a5.8,5.8,0,0,0,1.43,3.23A5.62,5.62,0,0,1,88.06,30"/><path class="cls-5" d="M69.26,51.89A7.72,7.72,0,0,0,73.72,55,4,4,0,0,1,72,57.36a4.41,4.41,0,0,0-.84.9"/><path class="cls-5" d="M39,73.29a5.27,5.27,0,0,0-3.12,2.28c-.41.58-1.25.92-1.15,1.82"/><path class="cls-5" d="M35.22,55.78a3.23,3.23,0,0,0-4.44,0"/><path class="cls-5" d="M52.51,114.68a13,13,0,0,1-.22,3.24c-.09.37-.11.84-.35,1.06a2,2,0,0,0-.51,1.75"/><path class="cls-5" d="M78.12,64a22.06,22.06,0,0,0-1.22,2.37,1.19,1.19,0,0,1-1.38.89c-.83-.13-2.45,1.74-2.59,2.58s.34,1,1.08.75c.48-.19.86-.6,1.41-.64"/><path class="cls-5" d="M38,108a9.43,9.43,0,0,1-2.05.33,3.19,3.19,0,0,0-2.16.75"/><path class="cls-5" d="M108.38,88c-.12.49-.59.72-.89,1.05-.77.87-.75,1.95-1.06,2.94"/><path class="cls-5" d="M87.52,89.93c.49.64,1.3.56,2,.85s1.66.52,2,1.42"/><path class="cls-5" d="M41.48,117.71c-.81,0-.18-.75-.55-.95a1.72,1.72,0,0,1,2-.45c.17,1.25-.1,2.63.94,3.67"/><path class="cls-5" d="M77.47,46.27c-.43-.53-.86.13-1.3,0A4.86,4.86,0,0,1,74,45.59c-.78.83-.79,2.34-2.3,2.41a3.12,3.12,0,0,1-2.87-.91c-.77.18-.59.93-.92,1.33-.48.61.09.88.3,1.32a16.16,16.16,0,0,0,.68,1.61"/><path class="cls-5" d="M110.75,35.46a6.42,6.42,0,0,1-1.29,4.75"/><path class="cls-5" d="M23.54,65.72c-1.13-.75-2.15-.06-3.11.37-.46.21-1.37.21-1.26,1.14"/><path class="cls-5" d="M62.88,48.54c-.52,2-1.93,3.25-3.55,4.44A6.91,6.91,0,0,1,57,50.27"/><path class="cls-5" d="M34.67,76.64a3.88,3.88,0,0,0-4.85.43,4.4,4.4,0,0,1-2.93,1.4"/><path class="cls-5" d="M68.5,38.27c1.78.42,2.34,1.64,2.41,3.35a3.44,3.44,0,0,0,1.16,2.65"/><path class="cls-5" d="M54.45,19.9c.61,1.41,1.21,2.82,2.73,3.52A2.79,2.79,0,0,0,59,22.07a1.07,1.07,0,0,1,1.27-.54c.95.23,2,.09,2.83.73a1.58,1.58,0,0,0,1.18.23"/><path class="cls-5" d="M53.48,65.61a5.59,5.59,0,0,1-3.73-1.08"/><path class="cls-5" d="M52.4,26.16a17.7,17.7,0,0,0,3.67,1.63"/><path class="cls-5" d="M51.53,81.39c-1.31-1.17-2.1-1.17-3.56,0"/><path class="cls-5" d="M77.47,58.59c.66.87,1.79,1.35,1.87,2.7A7.84,7.84,0,0,1,79,63.67"/><path class="cls-5" d="M43.27,28.87c.09.18.3.4.25.53-.64,1.77.95,2.36,1.76,3.35.07.08.35,0,.53,0"/><path class="cls-5" d="M33.7,113.38c.41,1.4,2.36,3.21,3.57,3.3"/><path class="cls-5" d="M106.11,92c.44,0,.41.23.44.54a4.05,4.05,0,0,0,1.06,2.39c.39.44.78.33,1.2.1a2.21,2.21,0,0,0,1.32-2.49c-.14-.91.64-1.74.41-2.7"/><path class="cls-5" d="M68.82,51.78a6.85,6.85,0,0,1-2.59,3"/><path class="cls-5" d="M79.41,74.58c-1-.43-1.76-1.4-2.91-1.61a2.14,2.14,0,0,0-.44,0"/><path class="cls-5" d="M26.35,69.5A21.4,21.4,0,0,0,23,70.91"/><path class="cls-5" d="M71.63,44.21c-.84,1-2.18,1.57-2.81,2.81"/><path class="cls-5" d="M92.17,42.16a6.32,6.32,0,0,0,4.32.76"/><path class="cls-5" d="M62.66,94.25a3.13,3.13,0,0,0,0,1.52,3.09,3.09,0,0,1-.1,1.62"/><path class="cls-5" d="M32.62,109a1.92,1.92,0,0,1,1.55.62,9.38,9.38,0,0,0,2.88,2.14"/><path class="cls-5" d="M56.18,92.63a2.57,2.57,0,0,0-3-1.18,1.38,1.38,0,0,1-1,0"/><path class="cls-5" d="M84.12,19.57c-.42.94-.81,1.88-1.26,2.8-.09.18-.19.46-.53.45a2.9,2.9,0,0,1-1.94-2.17"/><path class="cls-5" d="M72.07,51c-.51,0-1-.08-1.52-.1s-1.28-.07-1.62.64"/><path class="cls-5" d="M36.51,111.76a4.24,4.24,0,0,1-3.46,1.41"/><path class="cls-5" d="M90.82,77.93c.3,1,.62,1.95.91,2.92a1.12,1.12,0,0,0,.76.76"/><path class="cls-5" d="M59.42,66.8l.47,1.29c-.77.81-1.81,1.17-2.63,1.89,0,.91.85,1.59.87,2.55"/><path class="cls-5" d="M51.64,28.87c0,.18.07.46,0,.52-1,.68-1.08,1.93-1.72,2.83"/><path class="cls-5" d="M88.6,9a.81.81,0,0,1,0,.22c-.46,1.61-.46,1.62,1.08,2a2.41,2.41,0,0,1,1.41.77"/><path class="cls-5" d="M49.26,10.49a.59.59,0,0,0,.23.63,16.21,16.21,0,0,1,2.58,2.08c.14.1.27.22.22.43"/><path class="cls-5" d="M76.17,67.34v.11c.19.93-.58,1.67-.59,2.49a5.47,5.47,0,0,1-.06,2.48"/><path class="cls-5" d="M52,8.22c-.37.5-.15.95.1,1.41s.36.72.54,1.08"/><path class="cls-5" d="M81.58,59.34a4.09,4.09,0,0,0-2.49.55"/><path class="cls-5" d="M61.58,93.82A5.6,5.6,0,0,0,60.27,96c1,1.14,2.83,1.38,3.58,2.89"/><path class="cls-5" d="M53.8,80c-.4.8-1.29,1-2,1.38-.24.15-.24.18-.09.35"/><path class="cls-5" d="M80.28,21.52c-.63.2-.93.79-1.41,1.19-.68.57-1,.45-1.31-.43-.13-.36,0-.84-.41-1.09"/><path class="cls-5" d="M78,86.15c-1.68-.61-2.13-.51-3,.7"/><path class="cls-5" d="M72.93,23c-.83-1-1.53-.15-2.14.25s-.93.65-1.53.29"/><path class="cls-5" d="M45.05,18.6a1.64,1.64,0,0,1,.34,1.95c-.09.16,0,.43,0,.64"/><path class="cls-5" d="M70.23,17.63c.18,0,.45,0,.52.11,1,1.58,2.58,1.4,4.13,1.24"/><path class="cls-5" d="M23.44,83.23c-.43.8-.69,1.58.2,2.28.15.12.16.42.23.64"/><path class="cls-5" d="M72.5,19.25a3.81,3.81,0,0,0-.33,3.24"/><path class="cls-5" d="M53.48,11a4,4,0,0,0-3.14.22"/><path class="cls-5" d="M81,147.35a1,1,0,0,0,0-.16c0-.14-.07-.29-.1-.44a6.44,6.44,0,0,1-.09-1.52,6.18,6.18,0,0,1,.48-2,6.59,6.59,0,0,1,.6-1,3.81,3.81,0,0,1,.94-1,2,2,0,0,1,0,.64,2.53,2.53,0,0,1,0,.91c1.37-.31,2.74-.62,4.13-.83a3,3,0,0,0,1-.21,1.46,1.46,0,0,1,.5-.16c.34,0,.26.25.15.45-.33.66-.7,1.31-1.06,2-.18.3-.35.61-.54.91s-.34.46-.49.7A5.19,5.19,0,0,1,85,147.08a4.35,4.35,0,0,1-1.75.64,3.71,3.71,0,0,1-1.69,0s-.25-.26-.52.84a12.53,12.53,0,0,0-.25,1.61c0,.19,0,.38,0,.58a.47.47,0,0,1,0,.17.17.17,0,0,1-.19.09c-.16,0-.11-.11-.11-.25,0-.29,0-.58,0-.87a8.94,8.94,0,0,1,.09-.89C80.65,148.44,80.85,147.89,81,147.35Z"/><path class="cls-5" d="M80.78,131.56s-1.63,3.18.33,4.9a6.15,6.15,0,0,1,1.33,1.9c.07.15.12.24.28.25a1.35,1.35,0,0,0,.36-.19,1.83,1.83,0,0,1,0-1.77c.64-1.19,1.51-3.17.47-4.4a2.88,2.88,0,0,0-2.3-.87,10.62,10.62,0,0,0-.72-1.74c-.24-.33-.4-.45-.41.06A3.9,3.9,0,0,0,80.78,131.56Z"/><path class="cls-5" d="M92.9,128.52c-.24.2-1,0-1.21-.12s-.48-.48-.81-.49c-.15,0-.31,0-.46,0a1.43,1.43,0,0,1-.52-.23c-1.18-.71-2.81-2-2.57-3.51a.71.71,0,0,0,0-.2.49.49,0,0,0-.08-.18,11.28,11.28,0,0,0-.76-1.18c-.24-.32-.54-.6-.51-1a.08.08,0,0,1,0-.08s.1,0,.13,0a5.61,5.61,0,0,1,.65,1,2.42,2.42,0,0,0,.4.55,1.06,1.06,0,0,0,.61.31c.44,0,.84-.27,1.24-.41a2.92,2.92,0,0,1,1.31-.14,5.93,5.93,0,0,1,.82.16,4.89,4.89,0,0,1,.73.35l1.13.61a.44.44,0,0,1,.21.17c.13.24-.21.29-.36.3s-.34,0-.5,0a2.45,2.45,0,0,0-.81.13.17.17,0,0,0-.14.1.25.25,0,0,0,0,.12,14.29,14.29,0,0,0,.8,2.09c.15.33.3.68.48,1s.3.37.2.59A.09.09,0,0,1,92.9,128.52Z"/><path class="cls-5" d="M94.71,138.61c0-.08-.63-.25-.72-.3a1.7,1.7,0,0,1-.54-.46,2,2,0,0,1-.59-1.42,12.55,12.55,0,0,1,0-1.37c0-.16.11-.85.36-.82.67.08.72.82,1.07,1.29a6,6,0,0,0,.49.52,2.57,2.57,0,0,1,.67,1.86,3.07,3.07,0,0,1-.06.53l0,.27a13.26,13.26,0,0,0-.15,1.89c0,.31-.37.25-.38,0Z"/><path class="cls-5" d="M57.53,141c.13,0,1.29.15,1.29,0,0-1,1.43-1.52,2.23-1.52.34,0,2.34-.11,2.4.38s-.78.94-1,1.12a3,3,0,0,1-2.06.84A11.53,11.53,0,0,1,57.53,141Z"/><path class="cls-5" d="M104.37,133.37h.09c1.12-.13,2.31-1,3.45-.83a4,4,0,0,1,2.19,1c1.17,1.14,2.33,2.51,4,2.78.73.12.92.44.11.64s-1.58.82-2.46,1a10.77,10.77,0,0,1-2.89.18c-1.27-.05-2.46.1-3.39-.94a7.66,7.66,0,0,1-1.07-1.78c-.17-.35-.29-1-.61-1.22s-.9-.11-1.29-.15-1.32-.24-1.55-.67a1.44,1.44,0,0,1,.59-.11C102.5,133.28,103.45,133.46,104.37,133.37Z"/><path class="cls-5" d="M110.6,125c.22-.58,1.63-2.88,1.63-2.88s-.4-.45-.57-.67a5.9,5.9,0,0,1-.25-1.24c-.08-.33.14-1.73,0-2.13a3.06,3.06,0,0,1,.31-1.9c.28-.4,1-1.18,1.12-.73a7.11,7.11,0,0,0,1,2.07,2.53,2.53,0,0,1,.73,2.13,5.41,5.41,0,0,1-1,1.8c-.33.44-.05,1.12-.67.89s-.56.62-.73,1.07a6.15,6.15,0,0,1-.84,1.59A1.62,1.62,0,0,1,110.6,125Z"/><path class="cls-5" d="M128.5,138.25c-.3.07-.56.22-.87.28a3.43,3.43,0,0,1-3-.93,5.62,5.62,0,0,1-1.45-1.8,10.79,10.79,0,0,1-.58-2.45c0-.22-.48-1.49-.35-1.65,0,0,.18-.21.68,0a6.41,6.41,0,0,1,1.84,1.08,6,6,0,0,0,1.2,1,3.68,3.68,0,0,0,.86.39c.29.07.63,0,.88.2a.9.9,0,0,1,.25.38c.3.8.1,1.64.54,2.42a1.35,1.35,0,0,0,.72.63c.18,0,.77.14.49.43s-.61,0-.83,0A1.42,1.42,0,0,0,128.5,138.25Z"/><path class="cls-5" d="M106.28,154.26c.17-.48-.34-1-.17-1.54a2.79,2.79,0,0,1,1.72-1.55,8.15,8.15,0,0,1,4.59.1,1.07,1.07,0,0,1-.25.51,10.06,10.06,0,0,0-.78,1.31c-.79,1.12-2.68,2.52-4.12,1.93a2.74,2.74,0,0,0-.53-.23c-.48-.08-.49.48-.8.64-.82.44,0-.66.2-.93A1.08,1.08,0,0,0,106.28,154.26Z"/><path class="cls-5" d="M54.36,170l.12,0,.49.12c.34.08.67.16,1,.21a20.22,20.22,0,0,0,2.46.08h2c.91,0,1.81,0,2.72,0a9,9,0,0,0,1.63-.12,3.51,3.51,0,0,0,1.26-.61l.54-.38c.05,0,.48-.32.14-.32a.25.25,0,0,0-.14.06,3.56,3.56,0,0,1-1.33.85l-.92.11,0-.19a1.06,1.06,0,0,1-.75-.31,1.72,1.72,0,0,1-.45-.81,1.59,1.59,0,0,0-.26-.43l-.35-.52a1,1,0,0,1-.17-.27c0,.3,0,.6-.08.89A12.9,12.9,0,0,1,61,166.49a2.82,2.82,0,0,1-.07.44c0,.21,0,.42,0,.64a1,1,0,0,0,0,.25,1.87,1.87,0,0,0-.22-.39l-.31.17c-.06-.24-.09-.8-.31-1s-.22.07-.28.15a15,15,0,0,0-1.26-1.12,5.33,5.33,0,0,1,0,1.14.26.26,0,0,1-.06.19l0,.06a.08.08,0,0,0,0,.07c.07.33.4.78.21,1.12a.37.37,0,0,1-.61.11c-.13-.15-.85-.91-.85-.91a2.42,2.42,0,0,1-.38,0c-.24,0-.38-.28-.61-.3a1.34,1.34,0,0,0,.08.56c0,.18.07.36.1.55,0-.08-.48-.08-.55-.09a1.55,1.55,0,0,1,0,.21c-.16-.06-.32-.28-.5-.32s-.08.34-.1.34a3.44,3.44,0,0,1-.85,0v.2h-.9a6.14,6.14,0,0,0,.85.84l0,0a.14.14,0,0,1,0,.11,1.12,1.12,0,0,1-.28.33C54.11,169.92,54.25,170,54.36,170Z"/><path class="cls-5" d="M82.35,168.8l.09.09.39.27a6.79,6.79,0,0,0,.81.5,10.45,10.45,0,0,0,2.12.6l1.78.43c.78.18,1.57.39,2.37.53a5.5,5.5,0,0,0,1.46.16,3,3,0,0,0,1.3-.61l.6-.42s.52-.36.22-.42c0,0-.09,0-.14,0-.43.33-1,.92-1.43.92l-.85,0,0-.29a.79.79,0,0,1-.55-.58,3.05,3.05,0,0,1-.13-1.23,2.93,2.93,0,0,0-.08-.67c0-.26-.09-.53-.14-.8a1.76,1.76,0,0,1-.06-.41l-.36,1.24a22.57,22.57,0,0,1-.52-3,6.1,6.1,0,0,1-.2.61c-.08.3-.17.6-.25.89,0,.12-.06.24-.08.36a2.9,2.9,0,0,0-.07-.6l-.32.19a4.37,4.37,0,0,0,0-1.43c-.07-.14-.22.05-.29.15a19.52,19.52,0,0,0-.74-1.83,11.81,11.81,0,0,1-.35,1.61.45.45,0,0,1-.12.25s0,0-.07.08,0,.06,0,.09c0,.49.1,1.18-.18,1.63s-.47.36-.56,0-.45-1.46-.45-1.46a1.32,1.32,0,0,1-.34,0c-.2-.09-.24-.48-.43-.56a2.87,2.87,0,0,0-.11.81c0,.27-.06.53-.1.79,0-.11-.39-.2-.45-.23a3,3,0,0,1,0,.31c-.12-.13-.19-.47-.34-.55s-.18.45-.2.46c-.23.06-.52-.09-.74-.13l-.07.29-.79-.18a8.8,8.8,0,0,0,.46,1.37s0,0,0,0a.28.28,0,0,1,0,.15,1.45,1.45,0,0,1-.36.41C82.17,168.61,82.27,168.71,82.35,168.8Z"/><path class="cls-5" d="M112.58,170.41a3.8,3.8,0,0,1-1-2.27,3.28,3.28,0,0,1,2-3.17c.09,0,.18-.1.27-.13a6.88,6.88,0,0,0,2.61-1.5s.68,2.17.27,3.08.4,1.21,1.15,1.09c1.44-.23,2.89-.64,4.2.26.25.17.18.37.11.62a3.58,3.58,0,0,1-.74,1.53,2.21,2.21,0,0,1-1.77.52,40,40,0,0,0-5.69.15c-.74.12-1.46.3-2.2.41-.43.06-1.23.3-1.54-.16A14.78,14.78,0,0,1,112.58,170.41Z"/><path class="cls-5" d="M100,170.18a5.27,5.27,0,0,1-.62-2.27,3.71,3.71,0,0,1,1.29-3.17.7.7,0,0,1,.17-.13,4.36,4.36,0,0,0,1.66-1.5,9.82,9.82,0,0,1,.17,3.08c-.25.86.25,1.21.73,1.09.91-.23,1.83-.64,2.67.25.15.17.11.38.07.63a4.65,4.65,0,0,1-.48,1.53c-.31.52-.7.5-1.12.52a15.67,15.67,0,0,0-3.62.15c-.46.12-.92.3-1.39.4-.28.06-.78.3-1-.15C99,170.29,99.48,170.38,100,170.18Z"/><path class="cls-5" d="M2.75,114.81s0-.13,0-.16.1-.28.16-.41a6,6,0,0,1,.8-1.31,5.89,5.89,0,0,1,1.52-1.34,5.68,5.68,0,0,1,1.09-.51,3.48,3.48,0,0,1,1.34-.3,1.77,1.77,0,0,1-.31.55,2.84,2.84,0,0,1-.56.73c1.3.52,2.61,1,3.87,1.67a3.14,3.14,0,0,0,.91.38,1.77,1.77,0,0,1,.51.15c.3.16.07.35-.14.46-.64.36-1.32.67-2,1-.31.15-.63.3-1,.44s-.54.19-.8.3a5.19,5.19,0,0,1-2,.42,4.3,4.3,0,0,1-1.79-.48,3.57,3.57,0,0,1-1.39-1s0-.36-.9.4A11.34,11.34,0,0,0,1,117l-.36.46a1.34,1.34,0,0,1-.11.14.17.17,0,0,1-.21,0c-.11-.1,0-.14.06-.26l.53-.69c.19-.23.38-.46.58-.67C1.85,115.52,2.33,115.18,2.75,114.81Z"/><path class="cls-5" d="M11.59,101.73S8.44,103.41,9.07,106a6.4,6.4,0,0,1,0,2.31c0,.17-.05.26.09.36a1.16,1.16,0,0,0,.4,0,1.82,1.82,0,0,1,1-1.45c1.22-.61,3-1.74,2.9-3.35a2.88,2.88,0,0,0-1.39-2,10.8,10.8,0,0,0,.4-1.84c0-.41-.07-.6-.37-.19A4,4,0,0,0,11.59,101.73Z"/><path class="cls-5" d="M23.27,106.15c-.3,0-.81-.59-.91-.79s-.12-.67-.39-.87a3.28,3.28,0,0,1-.38-.27,1.39,1.39,0,0,1-.3-.48c-.56-1.25-1.18-3.21-.1-4.35a.61.61,0,0,0,.13-.15,1.29,1.29,0,0,0,0-.19,13.09,13.09,0,0,0,0-1.4,1.63,1.63,0,0,1,.17-1.15.1.1,0,0,1,.07,0c.05,0,.08.06.09.11a5.9,5.9,0,0,1,0,1.19,2,2,0,0,0,0,.69,1,1,0,0,0,.32.6c.34.29.85.25,1.26.37a3,3,0,0,1,1.15.63,5.48,5.48,0,0,1,.58.6,6.1,6.1,0,0,1,.41.7L26,102.5a.5.5,0,0,1,.08.26c0,.27-.34.11-.47,0a3.81,3.81,0,0,1-.41-.29,2.49,2.49,0,0,0-.73-.36.2.2,0,0,0-.17,0,.24.24,0,0,0-.06.11,14.77,14.77,0,0,0-.54,2.18,9.71,9.71,0,0,0-.17,1.08c0,.19,0,.48-.17.6Z"/><path class="cls-5" d="M19,115.47c0-.07-.37-.57-.42-.66a1.82,1.82,0,0,1-.19-.69,2,2,0,0,1,.34-1.51,10.58,10.58,0,0,1,.74-1.14c.11-.13.57-.64.76-.48.5.46.13,1.09.14,1.68,0,.24.08.47.11.71a2.62,2.62,0,0,1-.51,1.91,4.48,4.48,0,0,1-.36.4l-.19.19a15.28,15.28,0,0,0-1.19,1.47c-.18.25-.45,0-.29-.25Z"/><path class="cls-5" d="M21.71,161.49c.05-.07-.37-.57-.42-.66a1.82,1.82,0,0,1-.19-.69,2.05,2.05,0,0,1,.33-1.51,12.45,12.45,0,0,1,.75-1.14c.11-.13.57-.64.75-.48.51.46.14,1.09.15,1.68,0,.24.08.47.11.71a2.62,2.62,0,0,1-.51,1.91,4.48,4.48,0,0,1-.36.4l-.19.2a14,14,0,0,0-1.19,1.46c-.18.25-.46,0-.29-.25Z"/><path class="cls-5" d="M29.93,116.67l.09,0c1,.52,2.47.49,3.3,1.28a4,4,0,0,1,1.22,2.08c.31,1.6.48,3.39,1.73,4.58.53.51.5.88-.27.59s-1.77-.22-2.62-.55a11,11,0,0,1-2.48-1.5c-1-.76-2.08-1.33-2.24-2.71a7.23,7.23,0,0,1,.14-2.07c.05-.38.3-1,.18-1.35s-.67-.6-1-.86-1-.95-.89-1.44a1.54,1.54,0,0,1,.55.26C28.45,115.53,29.13,116.22,29.93,116.67Z"/><path class="cls-5" d="M39.8,113.38c.52-.35,3-1.44,3-1.44s-.06-.59-.08-.87.38-.83.5-1.16,1.11-1.34,1.22-1.75a3,3,0,0,1,1.34-1.39c.45-.16,1.45-.42,1.33,0a7,7,0,0,0-.4,2.24,2.55,2.55,0,0,1-.61,2.17,5.56,5.56,0,0,1-1.86.89c-.53.18-.68.89-1.06.36s-.81.19-1.21.46a6.47,6.47,0,0,1-1.6.83A1.86,1.86,0,0,1,39.8,113.38Z"/><path class="cls-5" d="M47,134.44c-.29-.11-.59-.14-.87-.27a3.39,3.39,0,0,1-1.9-2.44,5.48,5.48,0,0,1-.17-2.31,11.24,11.24,0,0,1,.92-2.35c.09-.2.45-1.49.66-1.55,0,0,.26-.07.56.39a6,6,0,0,1,.88,1.94,7.2,7.2,0,0,0,.42,1.51,4.08,4.08,0,0,0,.49.8c.2.23.52.35.61.67a.87.87,0,0,1,0,.45c-.2.83-.85,1.41-.93,2.3a1.29,1.29,0,0,0,.23.92c.12.15.56.56.16.64-.24.05-.49-.38-.66-.51A1.23,1.23,0,0,0,47,134.44Z"/><path class="cls-5" d="M19.59,134.92c.41-.3.31-1,.74-1.36a2.79,2.79,0,0,1,2.29-.3,8.2,8.2,0,0,1,3.72,2.7,1,1,0,0,1-.5.28,10.79,10.79,0,0,0-1.39.63c-1.28.48-3.64.54-4.48-.77a2.63,2.63,0,0,0-.31-.48c-.34-.34-.67.11-1,.07-.92-.11.39-.54.7-.66A.77.77,0,0,0,19.59,134.92Z"/><path class="cls-5" d="M120.5,66a.66.66,0,0,0,0-.15c0-.14.11-.28.17-.42a6.23,6.23,0,0,1,.8-1.3A5.75,5.75,0,0,1,123,62.81a5.68,5.68,0,0,1,1.09-.51,3.84,3.84,0,0,1,1.34-.3,1.69,1.69,0,0,1-.32.55,2.34,2.34,0,0,1-.55.73c1.3.53,2.61,1,3.87,1.68a3.14,3.14,0,0,0,.91.38,1.49,1.49,0,0,1,.51.14c.3.16.07.36-.14.47-.65.35-1.32.67-2,1a10.45,10.45,0,0,1-1,.44c-.26.12-.54.19-.8.3a5.19,5.19,0,0,1-2,.42,4.15,4.15,0,0,1-1.79-.47,3.6,3.6,0,0,1-1.39-1s-.06-.36-.91.39a12.49,12.49,0,0,0-1.12,1.18l-.36.45s-.07.12-.11.14a.19.19,0,0,1-.21,0c-.11-.11,0-.15.06-.26s.35-.47.53-.69.38-.46.58-.68C119.6,66.74,120.08,66.4,120.5,66Z"/><path class="cls-5" d="M129,107.62s-.11-.05-.14-.07-.26-.15-.39-.23a6.13,6.13,0,0,1-1.16-1,5.77,5.77,0,0,1-1.09-1.72,5.64,5.64,0,0,1-.34-1.15,3.72,3.72,0,0,1-.08-1.37,1.69,1.69,0,0,1,.49.4,2.33,2.33,0,0,1,.63.66c.72-1.21,1.45-2.42,2.26-3.56a2.86,2.86,0,0,0,.52-.85,1.68,1.68,0,0,1,.22-.47c.21-.27.36,0,.44.21.25.69.46,1.41.67,2.12.11.33.21.67.29,1s.1.57.17.85a5.4,5.4,0,0,1,.1,2.08,4.41,4.41,0,0,1-.75,1.7,3.62,3.62,0,0,1-1.18,1.22s-.37,0,.25,1a11,11,0,0,0,1,1.29c.12.14.25.29.39.43s.1.08.12.13a.17.17,0,0,1-.08.19c-.12.1-.14,0-.25-.09l-.6-.63c-.2-.22-.39-.45-.57-.68C129.55,108.62,129.28,108.09,129,107.62Z"/><path class="cls-5" d="M129.33,53s-3.14,1.67-2.51,4.21a6.41,6.41,0,0,1,0,2.31c0,.17,0,.27.08.37a1.18,1.18,0,0,0,.4,0,1.87,1.87,0,0,1,1-1.45c1.21-.61,3.05-1.73,2.9-3.34a2.88,2.88,0,0,0-1.39-2,10.88,10.88,0,0,0,.39-1.85c0-.41-.06-.6-.36-.18A3.94,3.94,0,0,0,129.33,53Z"/><path class="cls-5" d="M141,57.37c-.3,0-.81-.59-.91-.79s-.12-.67-.39-.87a3.19,3.19,0,0,1-.38-.26A1.5,1.5,0,0,1,139,55c-.56-1.26-1.18-3.21-.1-4.35a.61.61,0,0,0,.12-.16.59.59,0,0,0,.05-.19,13,13,0,0,0,0-1.4,1.6,1.6,0,0,1,.17-1.14s0,0,.07,0,.08.06.08.12a4.76,4.76,0,0,1,0,1.19,2.28,2.28,0,0,0,0,.69,1,1,0,0,0,.32.59c.33.29.85.26,1.25.38a2.76,2.76,0,0,1,1.15.63,4.77,4.77,0,0,1,.59.6,4.38,4.38,0,0,1,.4.7l.58,1.15a.48.48,0,0,1,.07.26c0,.27-.33.11-.46,0a3.81,3.81,0,0,1-.41-.29,2.49,2.49,0,0,0-.73-.36c-.06,0-.12,0-.17,0s0,.07-.06.1a15.09,15.09,0,0,0-.54,2.18c-.07.36-.14.72-.18,1.08,0,.19,0,.48-.16.61Z"/><path class="cls-5" d="M136.76,66.69c.05-.07-.37-.57-.42-.65a1.87,1.87,0,0,1-.19-.69,2,2,0,0,1,.33-1.51,10.79,10.79,0,0,1,.75-1.15c.11-.12.57-.64.75-.47.51.45.14,1.09.15,1.67a5.81,5.81,0,0,0,.11.71,2.61,2.61,0,0,1-.51,1.91,4.48,4.48,0,0,1-.36.4l-.19.2A13.17,13.17,0,0,0,136,68.58c-.18.25-.46,0-.29-.26Z"/><path class="cls-5" d="M137.33,86.14c.42-.3.32-1,.74-1.36a2.81,2.81,0,0,1,2.3-.29,8,8,0,0,1,3.71,2.7,1.09,1.09,0,0,1-.49.28,9.58,9.58,0,0,0-1.39.63c-1.29.47-3.64.54-4.48-.77a3.12,3.12,0,0,0-.31-.49c-.35-.34-.67.11-1,.07-.92-.1.39-.54.7-.65A.9.9,0,0,0,137.33,86.14Z"/><path class="cls-3" d="M82,148.35a1,1,0,0,0,0-.16c0-.14-.07-.29-.1-.44a6.44,6.44,0,0,1-.09-1.52,6.18,6.18,0,0,1,.48-2,6.59,6.59,0,0,1,.6-1,3.81,3.81,0,0,1,.94-1,2,2,0,0,1,0,.64,2.53,2.53,0,0,1,0,.91c1.37-.31,2.74-.62,4.13-.83a3,3,0,0,0,1-.21,1.46,1.46,0,0,1,.5-.16c.34,0,.26.25.15.45-.33.66-.7,1.31-1.06,2-.18.3-.35.61-.54.91s-.34.46-.49.7A5.19,5.19,0,0,1,86,148.08a4.35,4.35,0,0,1-1.75.64,3.71,3.71,0,0,1-1.69,0s-.25-.26-.52.84a12.53,12.53,0,0,0-.25,1.61c0,.19,0,.38,0,.58a.47.47,0,0,1,0,.17.17.17,0,0,1-.19.09c-.16,0-.11-.11-.11-.25,0-.29,0-.58,0-.87a8.94,8.94,0,0,1,.09-.89C81.65,149.44,81.85,148.89,82,148.35Z"/><path class="cls-3" d="M81.78,132.56s-1.63,3.18.33,4.9a6.15,6.15,0,0,1,1.33,1.9c.07.15.12.24.28.25a1.35,1.35,0,0,0,.36-.19,1.83,1.83,0,0,1,0-1.77c.64-1.19,1.51-3.17.47-4.4a2.88,2.88,0,0,0-2.3-.87,10.62,10.62,0,0,0-.72-1.74c-.24-.33-.4-.45-.41.06A3.9,3.9,0,0,0,81.78,132.56Z"/><path class="cls-3" d="M93.9,129.52c-.24.2-1,0-1.21-.12s-.48-.48-.81-.49c-.15,0-.31,0-.46,0a1.43,1.43,0,0,1-.52-.23c-1.18-.71-2.81-2-2.57-3.51a.71.71,0,0,0,0-.2.49.49,0,0,0-.08-.18,11.28,11.28,0,0,0-.76-1.18c-.24-.32-.54-.6-.51-1a.08.08,0,0,1,0-.08s.1,0,.13,0a5.61,5.61,0,0,1,.65,1,2.42,2.42,0,0,0,.4.55,1.06,1.06,0,0,0,.61.31c.44,0,.84-.27,1.24-.41a2.92,2.92,0,0,1,1.31-.14,5.93,5.93,0,0,1,.82.16,4.89,4.89,0,0,1,.73.35l1.13.61a.44.44,0,0,1,.21.17c.13.24-.21.29-.36.3s-.34,0-.5,0a2.45,2.45,0,0,0-.81.13.17.17,0,0,0-.14.1.25.25,0,0,0,0,.12,14.29,14.29,0,0,0,.8,2.09c.15.33.3.68.48,1s.3.37.2.59A.09.09,0,0,1,93.9,129.52Z"/><path class="cls-3" d="M95.71,139.61c0-.08-.63-.25-.72-.3a1.7,1.7,0,0,1-.54-.46,2,2,0,0,1-.59-1.42,12.55,12.55,0,0,1,0-1.37c0-.16.11-.85.36-.82.67.08.72.82,1.07,1.29a6,6,0,0,0,.49.52,2.57,2.57,0,0,1,.67,1.86,3.07,3.07,0,0,1-.06.53l0,.27a13.26,13.26,0,0,0-.15,1.89c0,.31-.37.25-.38,0Z"/><path class="cls-3" d="M58.53,142c.13,0,1.29.15,1.29,0,0-1,1.43-1.52,2.23-1.52.34,0,2.34-.11,2.4.38s-.78.94-1,1.12a3,3,0,0,1-2.06.84A11.53,11.53,0,0,1,58.53,142Z"/><path class="cls-3" d="M105.37,134.37h.09c1.12-.13,2.31-1,3.45-.83a4,4,0,0,1,2.19,1c1.17,1.14,2.33,2.51,4,2.78.73.12.92.44.11.64s-1.58.82-2.46,1a10.77,10.77,0,0,1-2.89.18c-1.27-.05-2.46.1-3.39-.94a7.66,7.66,0,0,1-1.07-1.78c-.17-.35-.29-1-.61-1.22s-.9-.11-1.29-.15-1.32-.24-1.55-.67a1.44,1.44,0,0,1,.59-.11C103.5,134.28,104.45,134.46,105.37,134.37Z"/><path class="cls-3" d="M111.6,126c.22-.58,1.63-2.88,1.63-2.88s-.4-.45-.57-.67a5.9,5.9,0,0,1-.25-1.24c-.08-.33.14-1.73,0-2.13a3.06,3.06,0,0,1,.31-1.9c.28-.4,1-1.18,1.12-.73a7.11,7.11,0,0,0,1,2.07,2.53,2.53,0,0,1,.73,2.13,5.41,5.41,0,0,1-1,1.8c-.33.44-.05,1.12-.67.89s-.56.62-.73,1.07a6.15,6.15,0,0,1-.84,1.59A1.62,1.62,0,0,1,111.6,126Z"/><path class="cls-3" d="M129.5,139.25c-.3.07-.56.22-.87.28a3.43,3.43,0,0,1-3-.93,5.62,5.62,0,0,1-1.45-1.8,10.79,10.79,0,0,1-.58-2.45c0-.22-.48-1.49-.35-1.65,0,0,.18-.21.68,0a6.41,6.41,0,0,1,1.84,1.08,6,6,0,0,0,1.2,1,3.68,3.68,0,0,0,.86.39c.29.07.63,0,.88.2a.9.9,0,0,1,.25.38c.3.8.1,1.64.54,2.42a1.35,1.35,0,0,0,.72.63c.18,0,.77.14.49.43s-.61,0-.83,0A1.42,1.42,0,0,0,129.5,139.25Z"/><path class="cls-3" d="M107.28,155.26c.17-.48-.34-1-.17-1.54a2.79,2.79,0,0,1,1.72-1.55,8.15,8.15,0,0,1,4.59.1,1.07,1.07,0,0,1-.25.51,10.06,10.06,0,0,0-.78,1.31c-.79,1.12-2.68,2.52-4.12,1.93a2.74,2.74,0,0,0-.53-.23c-.48-.08-.49.48-.8.64-.82.44,0-.66.2-.93A1.08,1.08,0,0,0,107.28,155.26Z"/><path class="cls-3" d="M55.36,171l.12,0,.49.12c.34.08.67.16,1,.21a20.22,20.22,0,0,0,2.46.08h2c.91,0,1.81,0,2.72,0a9,9,0,0,0,1.63-.12,3.51,3.51,0,0,0,1.26-.61l.54-.38c.05,0,.48-.32.14-.32a.25.25,0,0,0-.14.06,3.56,3.56,0,0,1-1.33.85l-.92.11,0-.19a1.06,1.06,0,0,1-.75-.31,1.72,1.72,0,0,1-.45-.81,1.59,1.59,0,0,0-.26-.43l-.35-.52a1,1,0,0,1-.17-.27c0,.3,0,.6-.08.89A12.9,12.9,0,0,1,62,167.49a2.82,2.82,0,0,1-.07.44c0,.21,0,.42,0,.64a1,1,0,0,0,0,.25,1.87,1.87,0,0,0-.22-.39l-.31.17c-.06-.24-.09-.8-.31-1s-.22.07-.28.15a15,15,0,0,0-1.26-1.12,5.33,5.33,0,0,1,0,1.14.26.26,0,0,1-.06.19l0,.06a.08.08,0,0,0,0,.07c.07.33.4.78.21,1.12a.37.37,0,0,1-.61.11c-.13-.15-.85-.91-.85-.91a2.42,2.42,0,0,1-.38,0c-.24,0-.38-.28-.61-.3a1.34,1.34,0,0,0,.08.56c0,.18.07.36.1.55,0-.08-.48-.08-.55-.09a1.55,1.55,0,0,1,0,.21c-.16-.06-.32-.28-.5-.32s-.08.34-.1.34a3.44,3.44,0,0,1-.85,0v.2h-.9a6.14,6.14,0,0,0,.85.84l0,0a.14.14,0,0,1,0,.11,1.12,1.12,0,0,1-.28.33C55.11,170.92,55.25,171,55.36,171Z"/><path class="cls-3" d="M83.35,169.8l.09.09.39.27a6.79,6.79,0,0,0,.81.5,10.45,10.45,0,0,0,2.12.6l1.78.43c.78.18,1.57.39,2.37.53a5.5,5.5,0,0,0,1.46.16,3,3,0,0,0,1.3-.61l.6-.42s.52-.36.22-.42c0,0-.09,0-.14,0-.43.33-1,.92-1.43.92l-.85,0,0-.29a.79.79,0,0,1-.55-.58,3.05,3.05,0,0,1-.13-1.23,2.93,2.93,0,0,0-.08-.67c0-.26-.09-.53-.14-.8a1.76,1.76,0,0,1-.06-.41l-.36,1.24a22.57,22.57,0,0,1-.52-3,6.1,6.1,0,0,1-.2.61c-.08.3-.17.6-.25.89,0,.12-.06.24-.08.36a2.9,2.9,0,0,0-.07-.6l-.32.19a4.37,4.37,0,0,0,0-1.43c-.07-.14-.22.05-.29.15a19.52,19.52,0,0,0-.74-1.83,11.81,11.81,0,0,1-.35,1.61.45.45,0,0,1-.12.25s0,0-.07.08,0,.06,0,.09c0,.49.1,1.18-.18,1.63s-.47.36-.56,0-.45-1.46-.45-1.46a1.32,1.32,0,0,1-.34,0c-.2-.09-.24-.48-.43-.56a2.87,2.87,0,0,0-.11.81c0,.27-.06.53-.1.79,0-.11-.39-.2-.45-.23a3,3,0,0,1,0,.31c-.12-.13-.19-.47-.34-.55s-.18.45-.2.46c-.23.06-.52-.09-.74-.13l-.07.29-.79-.18a8.8,8.8,0,0,0,.46,1.37s0,0,0,0a.28.28,0,0,1,0,.15,1.45,1.45,0,0,1-.36.41C83.17,169.61,83.27,169.71,83.35,169.8Z"/><path class="cls-3" d="M113.58,171.41a3.8,3.8,0,0,1-1-2.27,3.28,3.28,0,0,1,2-3.17c.09,0,.18-.1.27-.13a6.88,6.88,0,0,0,2.61-1.5s.68,2.17.27,3.08.4,1.21,1.15,1.09c1.44-.23,2.89-.64,4.2.26.25.17.18.37.11.62a3.58,3.58,0,0,1-.74,1.53,2.21,2.21,0,0,1-1.77.52,40,40,0,0,0-5.69.15c-.74.12-1.46.3-2.2.41-.43.06-1.23.3-1.54-.16A14.78,14.78,0,0,1,113.58,171.41Z"/><path class="cls-3" d="M101,171.18a5.27,5.27,0,0,1-.62-2.27,3.71,3.71,0,0,1,1.29-3.17.7.7,0,0,1,.17-.13,4.36,4.36,0,0,0,1.66-1.5,9.82,9.82,0,0,1,.17,3.08c-.25.86.25,1.21.73,1.09.91-.23,1.83-.64,2.67.25.15.17.11.38.07.63a4.65,4.65,0,0,1-.48,1.53c-.31.52-.7.5-1.12.52a15.67,15.67,0,0,0-3.62.15c-.46.12-.92.3-1.39.4-.28.06-.78.3-1-.15C100,171.29,100.48,171.38,101,171.18Z"/><path class="cls-3" d="M3.75,115.81s0-.13,0-.16.1-.28.16-.41a6,6,0,0,1,.8-1.31,5.89,5.89,0,0,1,1.52-1.34,5.68,5.68,0,0,1,1.09-.51,3.48,3.48,0,0,1,1.34-.3,1.77,1.77,0,0,1-.31.55,2.84,2.84,0,0,1-.56.73c1.3.52,2.61,1,3.87,1.67a3.14,3.14,0,0,0,.91.38,1.77,1.77,0,0,1,.51.15c.3.16.07.35-.14.46-.64.36-1.32.67-2,1-.31.15-.63.3-1,.44s-.54.19-.8.3a5.19,5.19,0,0,1-2,.42,4.3,4.3,0,0,1-1.79-.48,3.57,3.57,0,0,1-1.39-1s0-.36-.9.4A11.34,11.34,0,0,0,2,118l-.36.46a1.34,1.34,0,0,1-.11.14.17.17,0,0,1-.21,0c-.11-.1,0-.14.06-.26l.53-.69c.19-.23.38-.46.58-.67C2.85,116.52,3.33,116.18,3.75,115.81Z"/><path class="cls-3" d="M12.59,102.73s-3.15,1.68-2.52,4.22a6.4,6.4,0,0,1,0,2.31c0,.17-.05.26.09.36a1.16,1.16,0,0,0,.4,0,1.82,1.82,0,0,1,1-1.45c1.22-.61,3-1.74,2.9-3.35a2.88,2.88,0,0,0-1.39-2,10.8,10.8,0,0,0,.4-1.84c0-.41-.07-.6-.37-.19A4,4,0,0,0,12.59,102.73Z"/><path class="cls-3" d="M24.27,107.15c-.3,0-.81-.59-.91-.79s-.12-.67-.39-.87a3.28,3.28,0,0,1-.38-.27,1.39,1.39,0,0,1-.3-.48c-.56-1.25-1.18-3.21-.1-4.35a.61.61,0,0,0,.13-.15,1.29,1.29,0,0,0,0-.19,13.09,13.09,0,0,0,0-1.4,1.63,1.63,0,0,1,.17-1.15.1.1,0,0,1,.07,0c.05,0,.08.06.09.11a5.9,5.9,0,0,1,0,1.19,2,2,0,0,0,0,.69,1,1,0,0,0,.32.6c.34.29.85.25,1.26.37a3,3,0,0,1,1.15.63,5.48,5.48,0,0,1,.58.6,6.1,6.1,0,0,1,.41.7L27,103.5a.5.5,0,0,1,.08.26c0,.27-.34.11-.47,0a3.81,3.81,0,0,1-.41-.29,2.49,2.49,0,0,0-.73-.36.2.2,0,0,0-.17,0,.24.24,0,0,0-.06.11,14.77,14.77,0,0,0-.54,2.18,9.71,9.71,0,0,0-.17,1.08c0,.19,0,.48-.17.6Z"/><path class="cls-3" d="M20,116.47c0-.07-.37-.57-.42-.66a1.82,1.82,0,0,1-.19-.69,2,2,0,0,1,.34-1.51,10.58,10.58,0,0,1,.74-1.14c.11-.13.57-.64.76-.48.5.46.13,1.09.14,1.68,0,.24.08.47.11.71a2.62,2.62,0,0,1-.51,1.91,4.48,4.48,0,0,1-.36.4l-.19.19a15.28,15.28,0,0,0-1.19,1.47c-.18.25-.45,0-.29-.25Z"/><path class="cls-3" d="M22.71,162.49c.05-.07-.37-.57-.42-.66a1.82,1.82,0,0,1-.19-.69,2.05,2.05,0,0,1,.33-1.51,12.45,12.45,0,0,1,.75-1.14c.11-.13.57-.64.75-.48.51.46.14,1.09.15,1.68,0,.24.08.47.11.71a2.62,2.62,0,0,1-.51,1.91,4.48,4.48,0,0,1-.36.4l-.19.2a14,14,0,0,0-1.19,1.46c-.18.25-.46,0-.29-.25Z"/><path class="cls-3" d="M30.93,117.67l.09,0c1,.52,2.47.49,3.3,1.28a4,4,0,0,1,1.22,2.08c.31,1.6.48,3.39,1.73,4.58.53.51.5.88-.27.59s-1.77-.22-2.62-.55a11,11,0,0,1-2.48-1.5c-1-.76-2.08-1.33-2.24-2.71a7.23,7.23,0,0,1,.14-2.07c.05-.38.3-1,.18-1.35s-.67-.6-1-.86-1-.95-.89-1.44a1.54,1.54,0,0,1,.55.26C29.45,116.53,30.13,117.22,30.93,117.67Z"/><path class="cls-3" d="M48,135.44c-.29-.11-.59-.14-.87-.27a3.39,3.39,0,0,1-1.9-2.44,5.48,5.48,0,0,1-.17-2.31,11.24,11.24,0,0,1,.92-2.35c.09-.2.45-1.49.66-1.55,0,0,.26-.07.56.39a6,6,0,0,1,.88,1.94,7.2,7.2,0,0,0,.42,1.51,4.08,4.08,0,0,0,.49.8c.2.23.52.35.61.67a.87.87,0,0,1,0,.45c-.2.83-.85,1.41-.93,2.3a1.29,1.29,0,0,0,.23.92c.12.15.56.56.16.64-.24.05-.49-.38-.66-.51A1.23,1.23,0,0,0,48,135.44Z"/><path class="cls-3" d="M20.59,135.92c.41-.3.31-1,.74-1.36a2.79,2.79,0,0,1,2.29-.3,8.2,8.2,0,0,1,3.72,2.7,1,1,0,0,1-.5.28,10.79,10.79,0,0,0-1.39.63c-1.28.48-3.64.54-4.48-.77a2.63,2.63,0,0,0-.31-.48c-.34-.34-.67.11-1,.07-.92-.11.39-.54.7-.66A.77.77,0,0,0,20.59,135.92Z"/><path class="cls-3" d="M121.5,67a.66.66,0,0,0,0-.15c0-.14.11-.28.17-.42a6.23,6.23,0,0,1,.8-1.3A5.75,5.75,0,0,1,124,63.81a5.68,5.68,0,0,1,1.09-.51,3.84,3.84,0,0,1,1.34-.3,1.69,1.69,0,0,1-.32.55,2.34,2.34,0,0,1-.55.73c1.3.53,2.61,1,3.87,1.68a3.14,3.14,0,0,0,.91.38,1.49,1.49,0,0,1,.51.14c.3.16.07.36-.14.47-.65.35-1.32.67-2,1a10.45,10.45,0,0,1-1,.44c-.26.12-.54.19-.8.3a5.19,5.19,0,0,1-2,.42,4.15,4.15,0,0,1-1.79-.47,3.6,3.6,0,0,1-1.39-1s-.06-.36-.91.39a12.49,12.49,0,0,0-1.12,1.18l-.36.45s-.07.12-.11.14a.19.19,0,0,1-.21,0c-.11-.11,0-.15.06-.26s.35-.47.53-.69.38-.46.58-.68C120.6,67.74,121.08,67.4,121.5,67Z"/><path class="cls-3" d="M130,108.62s-.11-.05-.14-.07-.26-.15-.39-.23a6.13,6.13,0,0,1-1.16-1,5.77,5.77,0,0,1-1.09-1.72,5.64,5.64,0,0,1-.34-1.15,3.72,3.72,0,0,1-.08-1.37,1.69,1.69,0,0,1,.49.4,2.33,2.33,0,0,1,.63.66c.72-1.21,1.45-2.42,2.26-3.56a2.86,2.86,0,0,0,.52-.85,1.68,1.68,0,0,1,.22-.47c.21-.27.36,0,.44.21.25.69.46,1.41.67,2.12.11.33.21.67.29,1s.1.57.17.85a5.4,5.4,0,0,1,.1,2.08,4.41,4.41,0,0,1-.75,1.7,3.62,3.62,0,0,1-1.18,1.22s-.37,0,.25,1a11,11,0,0,0,1,1.29c.12.14.25.29.39.43s.1.08.12.13a.17.17,0,0,1-.08.19c-.12.1-.14,0-.25-.09l-.6-.63c-.2-.22-.39-.45-.57-.68C130.55,109.62,130.28,109.09,130,108.62Z"/><path class="cls-3" d="M130.33,54s-3.14,1.67-2.51,4.21a6.41,6.41,0,0,1,0,2.31c0,.17,0,.27.08.37a1.18,1.18,0,0,0,.4,0,1.87,1.87,0,0,1,1-1.45c1.21-.61,3.05-1.73,2.9-3.34a2.88,2.88,0,0,0-1.39-2,10.88,10.88,0,0,0,.39-1.85c0-.41-.06-.6-.36-.18A3.94,3.94,0,0,0,130.33,54Z"/><path class="cls-3" d="M142,58.37c-.3,0-.81-.59-.91-.79s-.12-.67-.39-.87a3.19,3.19,0,0,1-.38-.26A1.5,1.5,0,0,1,140,56c-.56-1.26-1.18-3.21-.1-4.35a.61.61,0,0,0,.12-.16.59.59,0,0,0,.05-.19,13,13,0,0,0,0-1.4,1.6,1.6,0,0,1,.17-1.14s0,0,.07,0,.08.06.08.12a4.76,4.76,0,0,1,0,1.19,2.28,2.28,0,0,0,0,.69,1,1,0,0,0,.32.59c.33.29.85.26,1.25.38a2.76,2.76,0,0,1,1.15.63,4.77,4.77,0,0,1,.59.6,4.38,4.38,0,0,1,.4.7l.58,1.15a.48.48,0,0,1,.07.26c0,.27-.33.11-.46,0a3.81,3.81,0,0,1-.41-.29,2.49,2.49,0,0,0-.73-.36c-.06,0-.12,0-.17,0s0,.07-.06.1a15.09,15.09,0,0,0-.54,2.18c-.07.36-.14.72-.18,1.08,0,.19,0,.48-.16.61Z"/><path class="cls-3" d="M137.76,67.69c.05-.07-.37-.57-.42-.65a1.87,1.87,0,0,1-.19-.69,2,2,0,0,1,.33-1.51,10.79,10.79,0,0,1,.75-1.15c.11-.12.57-.64.75-.47.51.45.14,1.09.15,1.67a5.81,5.81,0,0,0,.11.71,2.61,2.61,0,0,1-.51,1.91,4.48,4.48,0,0,1-.36.4l-.19.2A13.17,13.17,0,0,0,137,69.58c-.18.25-.46,0-.29-.26Z"/><path class="cls-3" d="M138.33,87.14c.42-.3.32-1,.74-1.36a2.81,2.81,0,0,1,2.3-.29,8,8,0,0,1,3.71,2.7,1.09,1.09,0,0,1-.49.28,9.58,9.58,0,0,0-1.39.63c-1.29.47-3.64.54-4.48-.77a3.12,3.12,0,0,0-.31-.49c-.35-.34-.67.11-1,.07-.92-.1.39-.54.7-.65A.9.9,0,0,0,138.33,87.14Z"/><path class="cls-6" d="M31.7,171.47s4.46-3.61,12.16-1.78c0,0,5.72,1.46,8.25.05,0,0-5.47,1.78-8.61,1.73,0,0-5.07-.12-7-2.74,0,0-1.94-2.77,2.09-5.74,0,0,2.69-1.36,2.88.49a1.63,1.63,0,0,1-.61,2.07s-1.78.79-.53,1.76c0,0,.5,1.06,4.07,1.45a3.66,3.66,0,0,0,1.86-.27s-2.2-.14-2.77-1.5c0,0-1.21-2.42-1.61-3s-2.08-4.58-2.08-4.58a6.88,6.88,0,0,1,0-5.45s1.64-3,3-3.33c0,0-3,.75-4.86-.62s.08-2.79.08-2.79a5.72,5.72,0,0,0,1.4-3.8,17.53,17.53,0,0,1-.07-2.74l1.86,2.12a12,12,0,0,1,.19-2.51,32.9,32.9,0,0,0,3.8,4,7.4,7.4,0,0,1,2.62,4l.64,2.16a9.37,9.37,0,0,0,2,3.17A39.46,39.46,0,0,1,55,158.69s3.3,4.16,2.47,7.33c0,0-1.45,3.68-2.89,4s-.23-.67-.23-.67a5.71,5.71,0,0,1,3,0s3.35.86,3.92,1.06,3.11.55,4.48-.43a15.32,15.32,0,0,0,1.71-1.33"/></g></g></svg>