<svg xmlns="http://www.w3.org/2000/svg" viewBox="0 0 175.4 193.02"><defs><style>.cls-1{fill:#a87a64;}.cls-2{fill:#ceab75;}.cls-3{fill:#dbd1be;}.cls-4{fill:#fff;stroke:#000;stroke-miterlimit:10;stroke-width:0.25px;}.cls-5{fill:#504744;}</style></defs><g id="레이어_2" data-name="레이어 2"><g id="color"><path class="cls-1" d="M112.05,15.06c-.31-.32-.83-.22-1.26-.09a26.73,26.73,0,0,0-2.64.95l-.4.06-.08,0a3.21,3.21,0,0,0-4.88-1,.85.85,0,0,0-.39.86,1,1,0,0,0,.37.42c.58.43,1.17.84,1.76,1.25a35.32,35.32,0,0,0,3.24,2,1.06,1.06,0,0,0,1,0,.49.49,0,0,0,.27-.13l0,0a16.48,16.48,0,0,0,1.29-1.12,4.86,4.86,0,0,0,1.83-2.25A1,1,0,0,0,112.05,15.06Z"/><path class="cls-2" d="M174.18,76c-6.15,27.13-42.54,36.63-61.35,16.26A48.41,48.41,0,0,1,106.22,83c9.92,6,23,6.88,33.42,1.7A35.47,35.47,0,0,0,158.34,60a36.56,36.56,0,0,0-6.07-27.4C170.24,39.19,178.75,55.84,174.18,76Z"/><path class="cls-3" d="M17.31,81.51A41.36,41.36,0,0,0,3.66,117.1c1.49,12.34,8.79,23.69,18.93,30.88s22.92,10.29,35.32,9.43c11.86-.82,24.26-5.9,30.08-16.27,3.85-6.86,4.32-15.18,3.17-23a61.31,61.31,0,0,0-20.4-36.77C61.33,73.21,53.21,71,40.85,71.9A40.7,40.7,0,0,0,17.31,81.51Z"/><path class="cls-4" d="M67.25,131.05c1.19-3.69,4-6.38,7.09-8.57s6.42-3.77,9.36-6.07A23.35,23.35,0,0,0,90.8,108a14.08,14.08,0,0,0,1.23-6.3c0-1.17-.16-2.35-.3-3.51a19.36,19.36,0,0,1-.23-3.64.46.46,0,0,0-.89-.2c-2.1,6.34-7,11.55-12,15.74a51.54,51.54,0,0,0-7.52,7,27.69,27.69,0,0,0-4.83,9.81c-.59,2-1.08,4.08-1.59,6.13,0,.13-.06.27-.1.41,0-.37,0-.75,0-1.12,0-6.26.92-12.37,1.7-18.55.16-1.29.32-2.57.47-3.86A8.61,8.61,0,0,1,68.8,106a15.19,15.19,0,0,1,4-3.29c1.59-.9,3.29-1.57,4.94-2.35a16.2,16.2,0,0,0,4.66-3.14,17.85,17.85,0,0,0,4.9-9.85,24.86,24.86,0,0,0,0-5.91,55.64,55.64,0,0,1,0-6.71c.26-5,1.19-9.87,1.41-14.83,0-.49-.71-.69-.87-.19a8.75,8.75,0,0,1-2.79,3.64c-1.23,1.07-2.45,2.19-3.57,3.37-2.52,2.66-3.69,6.13-4.28,9.69S76.56,83.68,76,87.26a38.19,38.19,0,0,1-1.35,5.46,28.16,28.16,0,0,1-2.2,5.22c-1,1.89-2.44,3.53-3.65,5.31a19.87,19.87,0,0,0-1.18,2c-.15.17-.29.34-.43.52.37-3.57.66-7.16.78-10.77.1-3.12.08-6.24-.09-9.36-.13-2.4-.37-4.79-.58-7.19.11-.62.24-1.23.33-1.86a19.4,19.4,0,0,1,.7-3.37A17.18,17.18,0,0,1,69.84,70l1.79-3.23q1.78-3.24,3.5-6.52a31.48,31.48,0,0,0,2.68-6.13,20.44,20.44,0,0,0,.71-5.66,46.8,46.8,0,0,0-2-11.25c-1.13-4.2-2.32-8.52-2.32-12.9,0-.55-.84-.64-.86-.08a14.09,14.09,0,0,1-1,4.32c-.55,1.52-1.17,3-1.67,4.56a18.65,18.65,0,0,0-.92,5A37.28,37.28,0,0,0,70,43.37c.18,1.73.41,3.47.43,5.21s0,3.55-.12,5.32a50.67,50.67,0,0,1-.54,5.36,44,44,0,0,1-1.24,5.19c-.53,1.9-.94,3.83-1.36,5.76-.14.65-.26,1.31-.37,2a81.8,81.8,0,0,0-1.1-9.26,52.5,52.5,0,0,0-4.4-23.06,46.34,46.34,0,0,0-6.47-10.48A91.76,91.76,0,0,1,47.16,18.3c-1.32-2.17-2.61-4.35-3.94-6.51s-2.79-4.18-4-6.35c-.21-.37-.89-.36-.89.15a72.85,72.85,0,0,0,1.22,14.59A29.66,29.66,0,0,0,45,33.34c3,3.88,6.78,7.1,10.16,10.66a31.83,31.83,0,0,1,7.77,12.43,51.3,51.3,0,0,1,1.54,8.07c.4,2.76.64,5.53.87,8.3.33,4.07.75,8.14,1,12.22-.06-.12-.11-.24-.17-.35a23.6,23.6,0,0,0-1.75-2.48A15.23,15.23,0,0,1,62,76.69c-.26-1-.47-2-.69-3s-.49-2-.68-3c-.37-2-.51-4-.87-5.93a17.05,17.05,0,0,0-.81-3,14.4,14.4,0,0,0-1.42-2.69A53.19,53.19,0,0,0,49,49.57c-1.77-1.68-3.61-3.32-5.24-5.14a22.68,22.68,0,0,1-2.07-2.82,12.55,12.55,0,0,0-2.05-2.54.52.52,0,0,0-.89.28,41.85,41.85,0,0,0-.4,11.45A13.3,13.3,0,0,0,40,55.86a25,25,0,0,0,3.86,4.83c2.88,2.9,6.17,5.5,8.17,9.14,1.17,2.13,2,4.44,3,6.64a15.31,15.31,0,0,0,1.75,3.08,10.69,10.69,0,0,0,2.17,2,21.54,21.54,0,0,1,5,4.29,17.15,17.15,0,0,1,2.53,5.57c0,.4,0,.8,0,1.19a.25.25,0,0,0,.06.2c-.07,5.15-.48,10.29-1,15.41-.17-1-.35-1.89-.55-2.82a13.54,13.54,0,0,0-.85-2.87,19.93,19.93,0,0,0-3.58-5.06c-1.48-1.62-2.9-3.26-4.28-5a27.24,27.24,0,0,1-2.12-2.9,20.76,20.76,0,0,1-1.46-3.09A65.64,65.64,0,0,0,49.9,80a55.59,55.59,0,0,0-3.51-6,23.46,23.46,0,0,0-4.31-5.15c-1-.81-2-1.51-3-2.26a19.84,19.84,0,0,1-1.67-1.5,12.57,12.57,0,0,0-2-1.69,1.89,1.89,0,0,0-1.84-.38.45.45,0,0,0-.22.58c.39.84.72,1.7,1.18,2.51s1.09,1.74,1.67,2.58,1.16,1.63,1.68,2.49a16.83,16.83,0,0,1,1.33,2.85A46.45,46.45,0,0,1,41.08,81c.46,2.15.74,4.36,1.34,6.48A16.41,16.41,0,0,0,47.67,96a26.08,26.08,0,0,0,5.09,2.82,31.15,31.15,0,0,1,5.74,3.82c1,.82,2,1.68,2.87,2.57a14.07,14.07,0,0,1,2.08,2.41,8.42,8.42,0,0,1,1,2.42,13.68,13.68,0,0,1,.31,3.13.36.36,0,0,0,.08.24c-.63,4.81-1.38,9.62-1.61,14.47-.17,3.64-.12,7.27,0,10.91-2-2.23-2.7-5.22-3-8.14-.39-3.34-.32-6.75-1-10.06-.7-3.51-1.76-7.11-4-10a26.67,26.67,0,0,0-4.6-4.41c-1.81-1.46-3.69-2.82-5.59-4.14a52.46,52.46,0,0,1-6.23-4.64c-.88-.84-1.7-1.72-2.53-2.59s-1.71-1.71-2.52-2.61a.57.57,0,0,0-1,.17,10.6,10.6,0,0,0,.32,5.44,29,29,0,0,0,2,5.31,21.79,21.79,0,0,0,3.2,5,14.12,14.12,0,0,0,2.3,2.07c.83.58,1.73,1,2.6,1.53a18.57,18.57,0,0,1,4.57,3.76,21.61,21.61,0,0,1,2.94,4.29A37.44,37.44,0,0,1,53,124.8c.61,1.74,1.07,3.54,1.76,5.25a12.31,12.31,0,0,0,3.54,5,17.54,17.54,0,0,1,2.39,2.09,5.21,5.21,0,0,1,.41.52,10.45,10.45,0,0,0,1,1.38c.26.35.52.7.8,1a.29.29,0,0,0,.31.08h0l.09,0c.24,5.43.61,10.86.68,16.29-.19-1.26-.38-2.52-.64-3.77a24.31,24.31,0,0,0-1.32-4.41,34.84,34.84,0,0,0-1.9-3.76,23.36,23.36,0,0,0-2.36-3.45,32.2,32.2,0,0,0-3-3,39,39,0,0,1-5.93-6.26c-1-1.42-1.82-2.94-2.72-4.41a38.61,38.61,0,0,0-2.91-4.15.47.47,0,0,0-.8.14A22.35,22.35,0,0,0,42,132a14.75,14.75,0,0,0,3.54,7.89A11.7,11.7,0,0,0,49,142.58a49,49,0,0,1,4.7,2.48,21.58,21.58,0,0,1,3.87,3.05,18.52,18.52,0,0,1,2.71,3.64A39.73,39.73,0,0,1,64,161.2l.06.1c0,1-.08,2-.14,3q-.13,2.23-.42,4.47c-.11.84,1.18.94,1.31.11a74.56,74.56,0,0,0,.79-11.74.75.75,0,0,1,.07-.12.33.33,0,0,0,.22-.17c.17-.28.34-.56.53-.83A12.11,12.11,0,0,1,68,154.63c1.06-.79,2.2-1.46,3.33-2.14a18.32,18.32,0,0,0,6-5.14c1.79-2.67,2.31-5.75,3-8.83a64.1,64.1,0,0,1,3.3-9.48,51.36,51.36,0,0,0,3.34-10.87.55.55,0,0,0-.9-.47,41.6,41.6,0,0,0-3,3.11c-1.06,1.11-2.34,2-3.46,3a24.77,24.77,0,0,0-5.11,7.1,33.76,33.76,0,0,0-2.78,8.54c-.32,1.66-.64,3.31-.94,5a30,30,0,0,1-1.14,4.76,13.66,13.66,0,0,1-2.2,3.64c-.41.52-.79,1.06-1.15,1.6-.26.23-.5.46-.73.7-.09-4.75-.43-9.51-.69-14.27.07-.46.15-.92.25-1.38a.51.51,0,0,0,.19-.48c0-.1,0-.21,0-.31.14-.68.3-1.36.47-2C66.2,134.81,66.66,132.9,67.25,131.05Z"/><polygon class="cls-4" points="19.53 53.8 21.97 57.03 19.71 60.29 17.07 57.09 19.53 53.8"/><polygon class="cls-4" points="81.2 0.21 83.64 3.44 81.37 6.7 78.73 3.5 81.2 0.21"/><polygon class="cls-4" points="159.77 112.26 162.21 115.49 159.94 118.75 157.3 115.55 159.77 112.26"/><polygon class="cls-4" points="21.99 165.29 24.43 168.53 22.16 171.79 19.52 168.59 21.99 165.29"/><path class="cls-5" d="M128.76,30.4c-.56-.95-1.13-1.89-1.7-2.83a6.54,6.54,0,0,1-.72-1.45,6.72,6.72,0,0,1-.15-2.37.23.23,0,0,1,.08-.21c.07-.06.18,0,.26,0A3,3,0,0,1,127.69,25a8.77,8.77,0,0,1,.47,1.81c.28,1.48.55,3,.82,4.42"/><path class="cls-5" d="M93.42,18a3.9,3.9,0,0,1,1.66-2.4,5,5,0,0,1,3-.82,10.79,10.79,0,0,1,3.1.74l.94.34a.25.25,0,0,0,.08.26c.71.53,1.42,1.06,2.14,1.58l1.07.8a1.63,1.63,0,0,0,.89.36.26.26,0,0,0,.29-.29,3.4,3.4,0,0,0-2.17-2.33c-.52-.25-1-.47-1.59-.67a2.29,2.29,0,0,1,2.05-1,3.66,3.66,0,0,1,2.54,1.49.26.26,0,0,0,.13.3,20.15,20.15,0,0,0,.44,2.42c.1.39.39,1.72,1,1.26a9.47,9.47,0,0,0,.81-.74l.73-.68a6.4,6.4,0,0,0,1.25-1.45,2.94,2.94,0,0,0,.45-1.7,1,1,0,0,0,0-.17,5.39,5.39,0,0,0,.5.33,5.34,5.34,0,0,1,.82.51,2.78,2.78,0,0,1,.69,1.17,5.39,5.39,0,0,0,.78,2.49c.55.93,1.7,2.16,2.9,1.65a.27.27,0,0,0,0-.49,5.52,5.52,0,0,1-2.7-3,5.52,5.52,0,0,0,1.45-1.32,1.53,1.53,0,0,0,.37-1.59.86.86,0,0,0-1.29-.37,5.47,5.47,0,0,0-.66.7c-.08.1-.66.84-.77.52a.22.22,0,0,0-.13-.15c.43-1.05,1-2.2,2.28-2.36A1.47,1.47,0,0,1,118,14c.41.52.75,1.1,1.12,1.66.75,1.13,1.53,2.25,2.24,3.41a31.9,31.9,0,0,1,3.12,7.48.22.22,0,0,0,.16.16,4.25,4.25,0,0,0,.27.52,11.2,11.2,0,0,0,1.8,2.46.27.27,0,0,0,.46-.25,12.93,12.93,0,0,0-1.77-2.4c-.1-.19-.2-.37-.29-.56h0a4.3,4.3,0,0,0,.84-.22,3.39,3.39,0,0,0,.18.39c.52.94,1.1,1.85,1.6,2.8s1,2,1.48,3c.13.25.58.18.51-.12-.41-1.69-.82-3.37-1.13-5.08a13.66,13.66,0,0,0-.32-1.44c.24,0,.5-.05.73-.07l.85-.08,0,0c.81.38,1.61.8,2.38,1.24a8.08,8.08,0,0,1,1.95,1.35,1.91,1.91,0,0,1,.54,1,2.38,2.38,0,0,1-.25,1.25l-1,2.53a.26.26,0,0,0,.4.31,4.62,4.62,0,0,0,1.53-2.75,4.31,4.31,0,0,0-.06-2.54c.23.23.45.47.67.7l2.59,2.7a20.28,20.28,0,0,1,4,5.27c.14.31.63.11.49-.19a14.77,14.77,0,0,0-2.22-3.35c-1.66-1.93-3.5-3.73-5.26-5.56-1.44-1.5-3.39-3.2-5.6-2.49l-.13,0-1,.1-.45,0a.71.71,0,0,1-.29,0c-.14-.05-.08,0-.15-.13a.22.22,0,0,1,0-.08s0-.05,0-.07a1.71,1.71,0,0,0-.13-.23,3,3,0,0,0-.17-.36,8.35,8.35,0,0,0-.47-.74c-.2-.28-.47-.79-.87-.75s-.46.45-.48.75a8.89,8.89,0,0,0,0,2,.37.37,0,0,1-.26.27c-.23.06-.46.06-.68.13a42.15,42.15,0,0,0-1.55-4.38,26.18,26.18,0,0,0-2.16-3.87q-1.25-1.9-2.53-3.8a2.23,2.23,0,0,0-1.29-1,2.4,2.4,0,0,0-1.54.16,4.36,4.36,0,0,0-2,2.56c-.27-.19-.57-.33-.86-.51a6,6,0,0,0-.85-.57,3.34,3.34,0,0,0-2.19.27,14.16,14.16,0,0,0-2,1A4.13,4.13,0,0,0,104.8,14a2.83,2.83,0,0,0-2.46,1.34l-1.45-.52a8.5,8.5,0,0,0-3.49-.58,4.83,4.83,0,0,0-4.5,3.65C92.84,18.26,93.36,18.33,93.42,18Zm37.68,7.66a3.71,3.71,0,0,1,3.62,2.16,3.81,3.81,0,0,1,.15.44l-.15-.22a6.93,6.93,0,0,0-2-1.52C132.16,26.22,131.63,25.93,131.1,25.66Zm-4.83,0a7.82,7.82,0,0,0,.06-1.08c0-.09,0-.7,0-1a9.66,9.66,0,0,1,.95,1.35,3.55,3.55,0,0,0,.2.39,9.55,9.55,0,0,1,.55,2.18c.16.87.35,1.74.55,2.61-.23-.47-.47-.94-.72-1.4s-.59-1.07-.9-1.59A5.24,5.24,0,0,1,126.27,25.63Zm-11-6.42A6.16,6.16,0,0,0,117,21a3.64,3.64,0,0,1-1.64-1.7Zm-.41-2.88a3.08,3.08,0,0,0,.57-.57,3.5,3.5,0,0,1,.63-.7c.35-.22.6.2.56.51a1.69,1.69,0,0,1-.43.8,5.12,5.12,0,0,1-1,.95A5.68,5.68,0,0,0,114.9,16.33Zm-5.6.89a1.72,1.72,0,0,0-.9-1.16,3.17,3.17,0,0,1,.66-.34l.75-.29a6,6,0,0,1,1.55-.41c.27,0,.35.1.39.36a2.07,2.07,0,0,1,0,.7,3.12,3.12,0,0,1-.7,1.35,11.21,11.21,0,0,1-1.09,1.09l-.66.61h0c0-.21.07-.43.09-.64A3.44,3.44,0,0,0,109.3,17.22Zm-1-.35,0-.32a1.42,1.42,0,0,1,.6,1.07,4.36,4.36,0,0,1,0,1l0,.24a6.25,6.25,0,0,1-.36-1.11A7,7,0,0,1,108.27,16.87Zm-4.84-.51c.29.13.58.25.86.39A3.32,3.32,0,0,1,106,18.22a4.31,4.31,0,0,1-.56-.39l-.94-.69Z"/><path class="cls-5" d="M82.37,47.26l4.08-6.06c1.12-1.67,2.28-3.31,3.27-5.05a17,17,0,0,0,2-5.34c.37-2,.54-4.12.78-6.18l.36-3.21c.07-.57.14-1.13.24-1.7.11.59.28,1.18.4,1.76l.87,3.82q.75,3.38,1.52,6.75c.49,2.17.88,4.4,1.57,6.53a9.9,9.9,0,0,0,3,4.79c1.52,1.22,3.47,1.61,5.2,2.42.2.09.45-.14.35-.34-1.07-2.05-2.17-4.08-3.11-6.2a39.77,39.77,0,0,1-2-5.81,52.68,52.68,0,0,0-1.74-5.65,33.37,33.37,0,0,0-5.73-9.59,2.81,2.81,0,0,1,0-.29c0-.33-.49-.41-.52-.07,0,.12,0,.24,0,.37a16.39,16.39,0,0,0-.6,3.27c-.14,1.2-.27,2.4-.41,3.6-.23,2-.39,4-.79,6a17.11,17.11,0,0,1-2.17,5.4c-1,1.72-2.2,3.37-3.32,5L82,46.94C81.77,47.22,82.18,47.54,82.37,47.26ZM93.47,19.1a33.68,33.68,0,0,1,3.13,4.55,33.08,33.08,0,0,1,2.34,5.1c.68,1.87,1.15,3.81,1.69,5.73a36.67,36.67,0,0,0,2.05,5.65c.77,1.65,1.63,3.27,2.47,4.88-1.72-.7-3.55-1.16-4.91-2.5a11.23,11.23,0,0,1-2.65-5.2c-.57-2.14-1-4.32-1.48-6.47l-1.47-6.5c-.24-1.08-.48-2.16-.73-3.25C93.77,20.45,93.57,19.78,93.47,19.1Z"/><path class="cls-5" d="M14.83,113.6a40.22,40.22,0,0,1,4.69-4.15,33.68,33.68,0,0,0,3.92-4c1.33-1.55,2.62-3.13,3.93-4.7l8-9.55a.2.2,0,0,0,0-.2c1.63-1.85,3.1-3.79,4.55-5.78a57.47,57.47,0,0,1,4.77-6c1.88-2,3.91-3.78,5.74-5.79A57.11,57.11,0,0,0,59,61.08a.26.26,0,0,0,.18-.15,27,27,0,0,1,1.4-2.59c.25-.42.51-.82.78-1.22a1.86,1.86,0,0,1,1-.87c1.27-.42,2.53-.87,3.78-1.37-.88.63-1.73,1.29-2.54,2-1,.86-2.18,1.84-2.35,3.24a.27.27,0,0,0,.36.28,7.42,7.42,0,0,0,1.8-1.78c.58-.63,1.18-1.25,1.8-1.85a47.49,47.49,0,0,1,7.37-5.89,46.66,46.66,0,0,1,4.11-2.38c.44-.23.88-.44,1.33-.65q-4.3,2.63-8.5,5.42a.18.18,0,0,0-.09.12,32.59,32.59,0,0,0-2.71,3.15,31.94,31.94,0,0,0-2,3c-.2.33-.58,1-.05,1.2s.92-.38,1.18-.67A23.24,23.24,0,0,0,67.93,57c.68-1.11,1.35-2.23,2-3.35q4.86-3.23,9.86-6.24l-.09.08a.23.23,0,0,0-.1.19l-.44.42a1.66,1.66,0,0,0-.47.52v0l0,0a51.42,51.42,0,0,1-4,3.7,29.43,29.43,0,0,0-3.63,4.62c-1.1,1.31-2.52,2.33-3.5,3.74-.27.39-.94,1.42-.11,1.65.34.09.64-.2.85-.43a12.3,12.3,0,0,0,.74-1c.86-1.22,1.67-2.49,2.5-3.73.06-.08.13-.15.19-.22a.39.39,0,0,0,0-.14c0-.07.09-.14.14-.21a26.2,26.2,0,0,1,3.29-4.06c1.2-1.17,2.59-2.13,3.69-3.4a1.91,1.91,0,0,0,1.13.43,1.57,1.57,0,0,0,1-.67,4.91,4.91,0,0,0,.82-1.11,2,2,0,0,0,.14-.41c.16,0,.36-.06.31-.27,0,0,0,0,0,0l.33-.43a2.34,2.34,0,0,0,.36-.58,1.61,1.61,0,0,0-.07-1.2.54.54,0,0,0-.5-.31,1.06,1.06,0,0,0-.53.33,10.7,10.7,0,0,0-1,1,.24.24,0,0,0-.16,0c-1.6.91-3.34,1.59-5,2.46a47.91,47.91,0,0,0-7.7,5.12l-.16.13a.25.25,0,0,0-.19,0c-1,.45-2,.87-3,1.25-.5.19-1,.36-1.5.53a14.82,14.82,0,0,0-1.42.48,2.34,2.34,0,0,0-.91.91c-.3.44-.58.88-.85,1.33-.44.72-.83,1.47-1.21,2.23a.23.23,0,0,0-.17.14,56.51,56.51,0,0,1-9.37,13.38c-1.86,2-3.89,3.74-5.7,5.75-3.36,3.7-5.89,8.07-9.29,11.78a.27.27,0,0,0-.06.25l-3.88,4.66c-2.61,3.12-5.16,6.31-7.84,9.37a32.76,32.76,0,0,1-4.05,3.94,31.46,31.46,0,0,0-4.08,3.65C14.2,113.53,14.61,113.85,14.83,113.6ZM69.52,59.26l-.36.54-.7,1a6.43,6.43,0,0,1-.64.84c-.09.08-.3.32-.24,0a1.14,1.14,0,0,1,.1-.19A3.76,3.76,0,0,1,68,61a7.82,7.82,0,0,1,.67-.85C68.93,59.84,69.23,59.55,69.52,59.26ZM81.45,46.32a.83.83,0,0,0-.27,0,10.2,10.2,0,0,1,1.24-1.22l.06,0a1.27,1.27,0,0,0,.06.18,1,1,0,0,1,0,.58,1.93,1.93,0,0,1-.29.47l-.19.25A.93.93,0,0,0,81.45,46.32Zm-.78,1A3.75,3.75,0,0,1,81,47a.85.85,0,0,1,.22-.09,1.09,1.09,0,0,1,.25,0s0,0,0,0l0,.07a1.15,1.15,0,0,1-.29.88,7.14,7.14,0,0,1-.61.75c-.18.19-.39.44-.68.42a1.09,1.09,0,0,1-.43-.14l-.19-.11-.11-.07,0,0a.6.6,0,0,1,.08-.08l.16-.16.38-.36C80.15,47.84,80.41,47.59,80.67,47.34ZM68.14,55.57c-.23.39-.45.77-.69,1.16a32.72,32.72,0,0,1-1.81,2.76,4.79,4.79,0,0,1-.53.58,2.43,2.43,0,0,0-.23.23A2.35,2.35,0,0,1,65,60c.28-.47.56-.93.86-1.39A34.68,34.68,0,0,1,68.14,55.57Zm-4,1.48c-.38.38-.77.76-1.14,1.16l-.82.92c-.08.08-.15.17-.23.26a8.19,8.19,0,0,1,2.17-2.33Z"/><path class="cls-5" d="M14.47,113.27a137.92,137.92,0,0,0,7.21-12.54c2.21-4.31,4.25-8.71,6.25-13.12,1-2.22,2-4.44,3-6.66s1.9-4.54,2.8-6.83c1.62-4.13,3.44-8.35,6.72-11.46,2.91-2.76,7.11-4.4,11.09-3.24A9.06,9.06,0,0,1,53,60c.3.15.13.65-.17.5-3.77-1.87-8.25-.61-11.33,2-3.42,2.88-5.33,7-6.95,11.1-.88,2.22-1.73,4.44-2.68,6.63s-2,4.47-3,6.7c-1.95,4.31-3.93,8.61-6,12.83s-4.4,8.37-6.92,12.36c-.31.5-.63,1-.95,1.48A.26.26,0,0,1,14.47,113.27Z"/><path class="cls-5" d="M.91,139a12.83,12.83,0,0,0,.46-2.69c0-.95,0-1.9.08-2.85a20.16,20.16,0,0,1,1-5.27A22.93,22.93,0,0,1,7.75,120c2.5-2.64,5.28-5,7.56-7.86a.32.32,0,0,1,.12-.08c1.05-1.21,2.25-2.31,3.37-3.45,1.5-1.51,3-3,4.41-4.61q4.34-4.68,8.43-9.57c2.27-2.7,4.48-5.44,6.67-8.2l.73-.09c-2,2.49-3.94,5-6,7.4-2.72,3.27-5.51,6.49-8.38,9.62q-2.14,2.35-4.37,4.65c-1.47,1.51-3,3-4.44,4.53-.34.39-.67.79-1,1.21a.23.23,0,0,1-.19.1c-3.75,4.23-8.58,7.66-11,12.87a18.7,18.7,0,0,0-1.51,5,21.61,21.61,0,0,0-.24,2.54c0,.92,0,1.84-.09,2.76a47.76,47.76,0,0,1-1.17,5,6.78,6.78,0,0,0-.06,2.54A11.26,11.26,0,0,0,1.54,147a13.49,13.49,0,0,0,3,4.64,4.26,4.26,0,0,0,4.69.82c.3-.16.49.33.2.49a4.51,4.51,0,0,1-4.3-.26A8.67,8.67,0,0,1,2,149.05a14.84,14.84,0,0,1-1.93-5A12.9,12.9,0,0,1,.91,139Z"/><path class="cls-5" d="M55.13,87c1.52-2.55,4.11-4.13,6.46-5.81a21.52,21.52,0,0,0,3.56-3.1,33.19,33.19,0,0,0,3.12-4.16,44.53,44.53,0,0,0,4.44-9.16c.57-1.57,1.12-3.15,1.82-4.66a19.33,19.33,0,0,1,2.52-4c1-1.29,2.21-2.47,3.2-3.81a11.14,11.14,0,0,0,1.29-2.15c.35-.78.8-1.86.3-2.66-.18-.29.24-.61.41-.32.82,1.31-.09,3.08-.78,4.25A24.6,24.6,0,0,1,78.66,55a24.41,24.41,0,0,0-2.83,3.73,30.17,30.17,0,0,0-2.06,4.65C73.18,65,72.63,66.57,72,68.13a40.09,40.09,0,0,1-2.35,4.62,27.67,27.67,0,0,1-6.49,7.94c-2.62,2.06-5.8,3.65-7.56,6.61C55.38,87.59,55,87.27,55.13,87Z"/><path class="cls-5" d="M9.15,152.51a40.06,40.06,0,0,0,6.1-3.49,59.6,59.6,0,0,0,5.56-4,24.8,24.8,0,0,0,4.29-5.18,18.59,18.59,0,0,0,1.84-2.92,83.34,83.34,0,0,1,5.18-10.16l.14-.26,0,0q3.34-5.7,6.72-11.38l3.06-5.14a.21.21,0,0,1,.1-.09q2.49-4.53,5-9.06c1.73-3.15,3.43-6.33,5.26-9.44,1-1.69,2-3.35,3.16-5,.19-.27.6,0,.41.33a98.86,98.86,0,0,0-5.47,9l-5.23,9.5-3,5.46a.27.27,0,0,1-.15.13q-4.71,7.92-9.39,15.87L30.85,130c-.59,1-1.2,2.08-1.73,3.15s-.86,2.24-1.39,3.31A26.78,26.78,0,0,1,26,139.45a30.08,30.08,0,0,1-4.13,5.32A43,43,0,0,1,16.21,149a43.7,43.7,0,0,1-6.87,4C9,153.14,8.84,152.65,9.15,152.51Z"/><path class="cls-5" d="M97.66,75.25l2-2.94a12.24,12.24,0,0,1,1.92-2.43,13.55,13.55,0,0,1,2.81-1.63,3.71,3.71,0,0,1,1.49-.7c.37,0,.94.3.74.74-.11.23.2.48.39.31a16.42,16.42,0,0,0,1.86-1.87,3.64,3.64,0,0,1-.61,1.09,1.9,1.9,0,0,0-.39,1.39.27.27,0,0,0,.42.18c1.63-1.29,2.72-3.16,4.58-4.18a8.05,8.05,0,0,1,5.77-.74.35.35,0,0,0,.15,0l.42.11a4.83,4.83,0,0,0,5.26-5.64,5.51,5.51,0,0,0-1-2.16l-.13-.15a5,5,0,0,0-.75-1.06l-.14-.13a1.3,1.3,0,0,1-.14-.42.21.21,0,0,0,0-.14,6.47,6.47,0,0,1,1.62-4.06,16.25,16.25,0,0,1,2.57-3,5.86,5.86,0,0,1,1.72-1,15.49,15.49,0,0,1,2.24-.52,15.19,15.19,0,0,0,4.11-1.52c1.24-.66,2.47-1.36,3.7-2.05a4.19,4.19,0,0,1-.22,1.89.27.27,0,0,0,.14.34,1.35,1.35,0,0,0,1.26-.36c.12-.1.27-.26.44-.39a5.1,5.1,0,0,0-1,2c-.06.19.19.35.35.28a7.61,7.61,0,0,0,4-10.14c-.13-.31-.62-.12-.48.19a7.08,7.08,0,0,1-3.17,9.2A4.59,4.59,0,0,1,140.81,44a.26.26,0,0,0-.06-.45,1.15,1.15,0,0,0-1.22.29c-.23.19-.58.6-.94.67a4.67,4.67,0,0,0,.12-2.2.27.27,0,0,0-.42-.18c-1.6.89-3.18,1.84-4.83,2.63a12.84,12.84,0,0,1-2.16.83c-.76.21-1.55.31-2.32.49a7,7,0,0,0-3.54,2,21.52,21.52,0,0,0-2.51,3.21,6.36,6.36,0,0,0-1.18,3.25s0,0,0,0a1.49,1.49,0,0,0,0,.47,1.52,1.52,0,0,0-1,0,3.26,3.26,0,0,0-1.44,1.62c-.33.6-1.08,1.65-1.88,1.07a1.85,1.85,0,0,1-.44-2,3.15,3.15,0,0,1,.62-1.06A2.23,2.23,0,0,0,118,54c.15-.69-.4-1-.9-1.38s-.77-1.19-1.36-1.63a1,1,0,0,0-.86-.22c-.3.13-.29.44-.26.71.11.93.24,1.85.35,2.78a21.78,21.78,0,0,0,.39,2.53,3.49,3.49,0,0,0,2.85,2.83,2.68,2.68,0,0,0,2-.44,2.71,2.71,0,0,0,.82-1.72c.07-.34.18-.66.28-1,0-.12,0-.13.09-.08a1.16,1.16,0,0,1,.18.2,2.66,2.66,0,0,1,.29.45,3.63,3.63,0,0,1,.29,2.08,4.1,4.1,0,0,1-.82,2.1,2.53,2.53,0,0,1-2.07.86c-1.69-.06-2.85-1.41-3.72-2.71-1-1.55-2-3.11-3.08-4.67-.52-.78-1.06-1.56-1.56-2.36a1.08,1.08,0,0,1-.09-1.19c.16-.29.4-.54.55-.85.29-.58,0-1.2-.68-1.11a3.56,3.56,0,0,0-2,1,1.53,1.53,0,0,0-.24,1.92c.37.68,1,1.16,1.45,1.82.84,1.35,1.15,3,2,4.29a16.12,16.12,0,0,0,1.64,1.95c.57.62,1.15,1.24,1.75,1.83a15.53,15.53,0,0,0,2.07,1.75,8.57,8.57,0,0,0-4.56.94,9.47,9.47,0,0,0-2.4,1.87c-.64.67-1.23,1.38-1.91,2a7.38,7.38,0,0,1,.62-1,1.62,1.62,0,0,0,.22-1.54.26.26,0,0,0-.45-.07,14.58,14.58,0,0,1-1.73,1.87,1.33,1.33,0,0,0-1.25-.78,3,3,0,0,0-1.28.5c-.47.29-1,.52-1.45.76a7.29,7.29,0,0,0-2.31,1.61,15.33,15.33,0,0,0-1.71,2.29l-1.83,2.74C97.06,75.2,97.47,75.53,97.66,75.25Zm21-11.36a7.82,7.82,0,0,1-2-1.31,32.39,32.39,0,0,1-3.41-3.42,10,10,0,0,1-1.43-2c-.34-.69-.6-1.41-.89-2.12a8.55,8.55,0,0,0-1-1.9c-.43-.57-1.25-1.1-1.28-1.88s1-1.33,1.69-1.51c.19-.05.57-.2.59.08s-.15.34-.23.45a5,5,0,0,0-.48.8,1.88,1.88,0,0,0,.44,1.85l1.49,2.26c1,1.48,2,3,2.94,4.45a6.15,6.15,0,0,0,3.31,2.8,3.16,3.16,0,0,0,3.53-1.24,4.91,4.91,0,0,0,.59-3.86,2.47,2.47,0,0,0-1-1.53c-.61-.27-.84.73-.93,1.13-.14.61-.18,1.36-.7,1.77a2.26,2.26,0,0,1-2.14.21c-1.56-.56-1.91-2.17-2.1-3.64l-.33-2.64-.09-.76a2.13,2.13,0,0,1-.08-.63c.16-.14.58.41.67.56a5.18,5.18,0,0,0,.63.9,4.69,4.69,0,0,0,.68.49c.28.2.49.42.32.78a4.28,4.28,0,0,1-.56.78c-.67,1-.85,2.78.33,3.48A1.52,1.52,0,0,0,118.9,58a9,9,0,0,0,1.23-1.8,1.6,1.6,0,0,1,1-.71,1.17,1.17,0,0,1,.89.29,4.12,4.12,0,0,0,.43.6l.51.65a4.83,4.83,0,0,0,.44.67l0,0a4.63,4.63,0,0,1,.34.71,4,4,0,0,1,.15,2.26,4.37,4.37,0,0,1-2.74,3.13A3.4,3.4,0,0,1,118.67,63.89Z"/><path class="cls-5" d="M45.33,127.94,46.72,122a87,87,0,0,0,2.1-10.35c.35-3.24.61-6.48.9-9.72a.36.36,0,0,0,0-.11c.22-2,1.66-3.55,3-4.91a54.72,54.72,0,0,1,9.28-7.62c1.62-1,3.32-1.89,5-2.84a14.57,14.57,0,0,0,3.78-2.88.22.22,0,0,0,.27.06A14.87,14.87,0,0,0,75.4,81c1.23-1.12,2.33-2.38,3.53-3.53s2.42-2.3,3.63-3.44l6.8-6.44a.26.26,0,0,0,.34.18,12.35,12.35,0,0,0,2.36-1.24,4.08,4.08,0,0,0,.85-.69A6.39,6.39,0,0,1,92.45,68a7.54,7.54,0,0,1-2.16,2.79,30.58,30.58,0,0,0-2.67,2.67c-.84,1-1.62,2-2.39,3A7.65,7.65,0,0,1,82.7,79a.39.39,0,0,0-.1.08,5.7,5.7,0,0,0-1.75.57c-.52.27-1.78.92-1.41,1.68a.27.27,0,0,0,.34.15,18.56,18.56,0,0,0,3.85-1.82l3.43-1.84a18.13,18.13,0,0,1,3.4-1.66c2.24-.63,4.64.08,6.86-.7a.26.26,0,0,0-.19-.49,11.8,11.8,0,0,1-3.93.4,9.46,9.46,0,0,0-3.39.46,29.5,29.5,0,0,0-3.4,1.75L83.7,79l0,0a11.79,11.79,0,0,0,2.17-2.39c.81-1.08,1.66-2.16,2.57-3.17s1.94-1.86,2.9-2.8a6.94,6.94,0,0,0,2.11-5.68s0,0,0-.08a.23.23,0,0,0-.06-.22c0-.14,0-.29-.08-.44a.27.27,0,0,0-.42-.17,18.79,18.79,0,0,0-2.19,1.69c-.21.19-.47.4-.71.63a.19.19,0,0,0-.15.06l-4.21,4-2.16,2a4.6,4.6,0,0,0,.28-.94c.11-.6-.14-1.45-.9-1.41a1.28,1.28,0,0,0-.81.44c-.29.29-.55.6-.83.9-.56.61-1.14,1.21-1.72,1.8-1.15,1.16-2.33,2.27-3.54,3.36a11.3,11.3,0,0,0-1.55,1.62c-.46.6-.81,1.27-1.29,1.85a14.34,14.34,0,0,0-2.17,2.71.29.29,0,0,0-.16.09,15.23,15.23,0,0,1-5,3.72c-1.72.93-3.42,1.88-5,3a49.21,49.21,0,0,0-4.83,3.68c-1.49,1.3-2.93,2.68-4.28,4.12a9.48,9.48,0,0,0-2.17,3.36.22.22,0,0,0-.19.21c-.19,2-.37,4-.55,6-.16,1.76-.3,3.52-.51,5.27a50.36,50.36,0,0,1-1,5.16c-.81,3.49-1.64,7-2.45,10.47C44.74,128.2,45.26,128.27,45.33,127.94ZM82.64,79.57A16.52,16.52,0,0,1,80,80.84a2.54,2.54,0,0,1,.64-.49,5.36,5.36,0,0,1,.92-.48A5.18,5.18,0,0,1,82.64,79.57ZM90.08,67a5.24,5.24,0,0,1,.43-.41c.27-.26.54-.51.83-.75a18.5,18.5,0,0,1,1.5-1.14,1.49,1.49,0,0,1,0,.21,2.78,2.78,0,0,1-1.31,1.31A11.47,11.47,0,0,1,90.08,67ZM72.73,81.33l-.22.13c.35-.38.71-.75,1-1.15s.74-1.09,1.13-1.64a9.34,9.34,0,0,1,1.38-1.5c1-1,2.06-1.88,3.06-2.87s2-2,3-3.1c.2-.22.58-.76.93-.53s.21.66.13,1a5.13,5.13,0,0,1-.83,1.75.27.27,0,0,0,0,.16c-1.33,1.26-2.66,2.52-4,3.8-.74.72-1.45,1.49-2.18,2.23a.17.17,0,0,0-.12,0A36.62,36.62,0,0,0,72.73,81.33Zm-1.27,1.59a2.42,2.42,0,0,1,.52-.49,14.19,14.19,0,0,1,1.27-.8c.54-.32,1.08-.62,1.63-.91l-.09.09A14.65,14.65,0,0,1,71.46,82.92Z"/><path class="cls-5" d="M83.09,81.54a22.7,22.7,0,0,0,5.81-1.39c1.65-.63,3.25-1.38,4.95-1.87.26,0,.52,0,.79,0,.76,0,1.51.14,2.26.22a9.78,9.78,0,0,0,4.1-.27,2,2,0,0,0,1.19-1c.26-.48.27-1.08.63-1.51a.19.19,0,0,0,.06-.15l.09,0c.33-.15.56-.56.22-.84a1.06,1.06,0,0,0-.6-.16l-.81,0c-.6,0-1.2,0-1.79.08a70.08,70.08,0,0,1-7.36.77c-.33,0-.4.51-.07.52a36.46,36.46,0,0,0,5.52-.53.59.59,0,0,0,0,.08c.75,1,2.15.83,3.24.58l.8-.19a7.73,7.73,0,0,1-.51,1.31,2.49,2.49,0,0,1-1.84.8,21.46,21.46,0,0,1-4.6-.17,11.29,11.29,0,0,0-4.48.44,41.11,41.11,0,0,0-4.29,1.37l-2.22.78c-.48.17-1.3.28-1.42.88A.26.26,0,0,0,83.09,81.54Zm19.69-6.47c0,.1-.67.22-.78.25-.94.28-2.53.8-3.33,0,.46-.06.92-.12,1.38-.16a17.33,17.33,0,0,1,1.91-.08C102.09,75.05,102.74,75.14,102.78,75.07ZM84.52,80.82l1.1-.39L88,79.59a31.22,31.22,0,0,1,3.3-1l-2.37.95A23.65,23.65,0,0,1,84.52,80.82Z"/><path class="cls-5" d="M82.84,92a.28.28,0,0,0,.45.23,7.42,7.42,0,0,0,3.38-.1c2.14-.53,4-1.72,6-2.59.49-.22,1-.43,1.46-.69a8.39,8.39,0,0,1,1.4-.64,4.71,4.71,0,0,1,2.63-.07,8.87,8.87,0,0,0-1,.86,2.61,2.61,0,0,0-1.08,1.08A2,2,0,0,0,96,91.83a1.72,1.72,0,0,0,2,.84c-.33.3-.65.62-1,.9a5.2,5.2,0,0,1-1.29.79c-.27.11-.53.2-.8.29l-.09,0a10.23,10.23,0,0,0-.27-1.83c-.08-.29-.16-.58-.26-.87a3.33,3.33,0,0,0-.31-.79c-.24-.35-.65-.15-.73.2a1.89,1.89,0,0,0,0,.67c0,.24.07.49.11.74a6,6,0,0,0,.4,1.44c.15.34.4,1,.82,1a2,2,0,0,0,.71-.19c.25-.09.5-.18.75-.29A5.55,5.55,0,0,0,97.25,94a15.89,15.89,0,0,1,2.24-1.84.2.2,0,0,0,.1-.18,8.79,8.79,0,0,0,1.77-1.24,1.76,1.76,0,0,0,.83-1.2,1.51,1.51,0,0,0-.6-1.23,3.29,3.29,0,0,0-2.76-.48,5.35,5.35,0,0,0-3.24-.12A23,23,0,0,0,92.68,89c-1,.45-2,1-3,1.45-1.94.94-4.08,1.76-6.26,1.28a6.21,6.21,0,0,1,1.38-3,6.78,6.78,0,0,0,1-.65l1.47-1,2.89-2a7,7,0,0,0,3-.85,16,16,0,0,1,3.3-1.11.29.29,0,0,0,.2-.15,24.93,24.93,0,0,0,3.11-.26,13.46,13.46,0,0,1,1.68,0c.55,0,1.1.12,1.65.13a8.5,8.5,0,0,0,3-.71,1.29,1.29,0,0,0,.87-.72,13.06,13.06,0,0,0,.41-1.55c.52-.26.91-.58.64-.9a1,1,0,0,0-.64-.23c-.29,0-.58-.06-.87-.09-.61-.06-1.23-.11-1.84-.15-2.5-.17-5-.19-7.51-.36-.33,0-.41.5-.07.52,1.78.12,3.56.17,5.35.24l.75,0a.22.22,0,0,0,0,.32,1.42,1.42,0,0,0,.13.12,1,1,0,0,0,.21.2,3.71,3.71,0,0,0,1.52.66,1.89,1.89,0,0,0,.88.12l.12,0a3,3,0,0,0,.73-.12,4.78,4.78,0,0,1-.28,1c-.18.42-.76.5-1.15.64a7.6,7.6,0,0,1-1.41.41,5.86,5.86,0,0,1-1.45,0,16,16,0,0,0-2.85-.06,22.37,22.37,0,0,1-2.83.25,4.31,4.31,0,0,0-.42-1.58c-.15-.29-.46-1-.9-.7s-.17.92-.07,1.26A5.94,5.94,0,0,0,96,82.68a15.93,15.93,0,0,0-2.68.9,7.34,7.34,0,0,1-3.12,1,.23.23,0,0,0-.24,0l-2.89,2-1.4,1a8.18,8.18,0,0,0,.81-1.35c.13-.29.46-.94,0-1.07s-.94.31-1.21.58a3.43,3.43,0,0,0-.77,1.3,5,5,0,0,0-.39,1.65.25.25,0,0,0,0,.13A5.81,5.81,0,0,0,82.84,92Zm23.08-12.26a3.15,3.15,0,0,1-.81-.09c-.2-.07-.39-.16-.57-.23a4.46,4.46,0,0,1-.75-.31l-.09-.09a.13.13,0,0,1,0-.14h0L105,79c.45,0,.89.07,1.34.12a6,6,0,0,1,.91.09l-.1.06a3.23,3.23,0,0,1-.49.25A4.17,4.17,0,0,1,105.92,79.78ZM84.67,88.06c0-.15.09-.29.13-.43a5.81,5.81,0,0,1,.32-.82,2.29,2.29,0,0,1,.53-.74,1.77,1.77,0,0,1,.46-.34c0,.13-.13.29-.14.31s-.12.26-.19.39a8.33,8.33,0,0,1-.51.8C85.08,87.51,84.87,87.79,84.67,88.06ZM94.17,94a5.69,5.69,0,0,1-.32-1.16c0-.21-.07-.43-.1-.65a.88.88,0,0,0,0,.15c.08.26.16.53.22.8S94.13,93.7,94.17,94Zm2.45-3.66a3.38,3.38,0,0,0,0,.45A1.85,1.85,0,0,0,97,92.11l.11.06a1,1,0,0,1-.71-.53A1.56,1.56,0,0,1,96.62,90.33Zm2.21-2a3.06,3.06,0,0,1,1.59,0,1.6,1.6,0,0,1,1.2.87c.21.61-.39,1-.79,1.31a7.85,7.85,0,0,1-1.36.94,3.11,3.11,0,0,1-1.63.4.65.65,0,0,1-.57-.27,2.4,2.4,0,0,1-.12-.75,1.63,1.63,0,0,1,.42-1.38.33.33,0,0,0,.11-.13A14.86,14.86,0,0,1,98.83,88.36Z"/><path class="cls-5" d="M62.7,111.49a18.17,18.17,0,0,1,.77-4.21,8.57,8.57,0,0,1,1.8-3,12.19,12.19,0,0,1,.9-.86,31.77,31.77,0,0,0,6.32.15,32.38,32.38,0,0,0,11.21-3,40.37,40.37,0,0,0,5-2.94,14.36,14.36,0,0,1,2.79-1.42c1-.36,2-.64,3-.91.32-.09.13-.57-.19-.49a31.93,31.93,0,0,0-3.32,1,16.1,16.1,0,0,0-3,1.63,32.93,32.93,0,0,1-10.54,4.72,31.71,31.71,0,0,1-10.81.7,7.66,7.66,0,0,0,.87-.93,2.07,2.07,0,0,0,.58-1.33.59.59,0,0,0-.86-.48,3.12,3.12,0,0,0-.94,1.26,6.26,6.26,0,0,0-.6,1.61s0,0,0,0l-.22.19a9.72,9.72,0,0,0-1.78,2.16,14.07,14.07,0,0,0-1.55,5.91A.26.26,0,0,0,62.7,111.49Zm3.77-9a6.52,6.52,0,0,1,.43-.93,2.81,2.81,0,0,1,.48-.7c.05,0,.16-.15.23-.06s0,.15,0,.18a1.88,1.88,0,0,1-.18.38A4.79,4.79,0,0,1,66.47,102.48Z"/><path class="cls-5" d="M40.91,186.76l-.16-3.44c-.1-2.27-.21-4.54-.31-6.81-.21-4.52-.45-9-.58-13.57-.07-2.52-.11-5-.07-7.56a.2.2,0,0,1,0-.11,29.53,29.53,0,0,1,.42-4.09c.32-1.92.7-3.82,1.06-5.73q1.1-5.74,2.25-11.49c.43-2.16.88-4.33,1.33-6.49.07-.33.59-.26.52.07-1.58,7.58-3.11,15.17-4.48,22.79a26.89,26.89,0,0,0-.55,6.32.29.29,0,0,1-.06.19c0,4,.12,8,.3,12q.3,6.68.61,13.34l.17,3.76a10.81,10.81,0,0,0,.42,3.55c.31.56.33,1.27.84,1.7a5,5,0,0,0,1.94.8,17.12,17.12,0,0,0,4.51.46,22.19,22.19,0,0,0,9-1.53,15.6,15.6,0,0,0,4.17-2.74c.25-.22.56.2.31.42a16.24,16.24,0,0,1-8.24,4,33.88,33.88,0,0,1-4.93.37,18.6,18.6,0,0,1-4.65-.4,6.86,6.86,0,0,1-2.26-.85,1.93,1.93,0,0,1-.72-.88,7.93,7.93,0,0,0-.42-1.09v0h0l-.05-.09a.3.3,0,0,1,0-.17A9.78,9.78,0,0,1,40.91,186.76Z"/><path class="cls-5" d="M58.22,181.43a20.81,20.81,0,0,0,3.06-5.66c.86-2.06,1.71-4.13,2.38-6.27a25.65,25.65,0,0,0,1.26-6.56,66.48,66.48,0,0,0-.34-7.33q-.27-4-.55-8a.5.5,0,0,1-.05-.13c-.49-4.74-.82-9.49-1.07-14.25s-.41-9.52-.58-14.28c-.09-2.68-.18-5.37-.28-8,0-.33.51-.4.52-.06.17,4.76.32,9.52.51,14.28s.4,9.52.73,14.27q.27,3.84.66,7.68a.2.2,0,0,1,.06.14l.52,7.54c.16,2.46.43,4.93.41,7.39,0,4.59-1.67,8.92-3.4,13.1a23.47,23.47,0,0,1-3.43,6.49C58.41,182,58,181.69,58.22,181.43Z"/><path class="cls-5" d="M62.59,188.49c.46-.48.94-.94,1.44-1.39a65.3,65.3,0,0,1,6.33-4.75,69.21,69.21,0,0,0,6.11-4.69,84,84,0,0,0,10.24-11.08c3.18-4,6.14-8.18,9.19-12.28,3.33-4.47,6.85-8.77,10.49-13,3.76-4.37,7.57-8.71,11.36-13.05a.26.26,0,0,0,.17-.09,41.73,41.73,0,0,0,4.85-6.61,29.66,29.66,0,0,0,2.91-6.6,28.18,28.18,0,0,0,1.07-7.53A40.2,40.2,0,0,0,126.09,97a.22.22,0,0,0,0-.25c-.17-.43-.34-.87-.5-1.3s-.33-.88-.52-1.3A34.49,34.49,0,0,0,123,89.59c-2.19-3.79-5.52-6.67-9-9.25A58.51,58.51,0,0,0,102.2,73c-.22-.09-.49.2-.31.4a21.82,21.82,0,0,0,4.83,3.77c1.57.95,3.18,1.82,4.72,2.82a37.28,37.28,0,0,1,4.43,3.38,45.56,45.56,0,0,1,7.23,8.27.26.26,0,0,0,.05.2,12.42,12.42,0,0,1,1.56,2.68l.27.68A19.35,19.35,0,0,1,126.1,100a59.46,59.46,0,0,1,.09,8.65,24.83,24.83,0,0,1-1.33,7.14,35.41,35.41,0,0,1-7,11.66.22.22,0,0,0-.17.09c-.48.55-1,1.11-1.45,1.66-3.87,4.45-7.77,8.87-11.6,13.35q-5.35,6.28-10.25,12.92c-3,4.12-6,8.27-9.24,12.24A74.74,74.74,0,0,1,74.6,178.55c-4,3.32-8.77,5.82-12.42,9.61C62,188.4,62.36,188.73,62.59,188.49ZM119.08,85.38a23.29,23.29,0,0,1,3.5,4.63c-.89-1.2-1.82-2.36-2.81-3.47a39.78,39.78,0,0,0-8.42-7.22c-2.68-1.69-5.63-3.08-8-5.2a41.91,41.91,0,0,1,5.5,3.2q2.76,1.89,5.42,3.91A42.25,42.25,0,0,1,119.08,85.38Z"/><path class="cls-5" d="M132.66,96a7,7,0,0,0,4.46,2.4,7.89,7.89,0,0,0,5-.89c3.15-1.78,4.17-5.82,2.93-9.09a7.25,7.25,0,0,0-1.34-2.23,16.07,16.07,0,0,0-2.48-1.94l-.08-.07a.88.88,0,0,0,.7-.33.56.56,0,0,1,.05-.08,1.89,1.89,0,0,0,.92.57,2,2,0,0,0,1.68-.39A8.43,8.43,0,0,0,147,80.73a24.69,24.69,0,0,0,1.09-2.47,16.77,16.77,0,0,0,4.62-7.68,41.35,41.35,0,0,0,1.65-9.29,33.41,33.41,0,0,0-.72-10.17,24.28,24.28,0,0,0-3.85-8.6,35,35,0,0,0-7.07-6.73.26.26,0,0,0-.33.41c2.82,2.21,5.61,4.48,7.59,7.52,3.58,5.52,4.39,12.31,3.75,18.74a37.6,37.6,0,0,1-1.79,8.79,16.08,16.08,0,0,1-3.47,5.92c.24-.73.46-1.46.65-2.21a53.15,53.15,0,0,0,1.53-5.83,42.27,42.27,0,0,0,.09-16.88,34.39,34.39,0,0,0-6.93-14.8.26.26,0,0,0-.45.26l.84,2a79.65,79.65,0,0,1,5,17.22,44.66,44.66,0,0,1-.32,16.58c-.12.53-.26,1.06-.41,1.59-.34,1-.7,2.06-1.1,3.07a.26.26,0,0,0,0,.24,19.17,19.17,0,0,1-1.26,2.72A9.46,9.46,0,0,1,145,82.78a2.53,2.53,0,0,1-1.81,1c-1.09-.08-1.55-1.5-1.83-2.36,0-.1-.06-.21-.1-.31-.09-.33-.18-.66-.26-1-1.3-5.34-1.09-10.91-.51-16.34s1.58-11,1.78-16.57a.27.27,0,0,0-.42-.24,2.82,2.82,0,0,0-1,1.2,12.75,12.75,0,0,0-.74,3.78c-.2,1.55-.39,3.09-.57,4.64-.34,3.14-.61,6.29-.67,9.45a56.06,56.06,0,0,0,.53,9.15,39.79,39.79,0,0,0,.93,4.57c.17.64.36,1.27.57,1.9s.37,1.17.58,1.75c-.29.36-.94,0-1.31-.32a11,11,0,0,1-1.94-4.71,57.73,57.73,0,0,1-.74-15.75.27.27,0,0,0-.36-.28c-1.6.73-1.19,2.57-1.42,4a22.89,22.89,0,0,1-.47-3.6,23.29,23.29,0,0,1,1.09-8.17c.8-2.49,1.89-4.91,2.1-7.54,0-.2-.23-.41-.41-.25a12.44,12.44,0,0,0-1.13,1.17,16.23,16.23,0,0,0-3,6.09,32.88,32.88,0,0,0-1.11,7.45,35.59,35.59,0,0,0,2.8,15.25,21.06,21.06,0,0,0,4,6.43l.15.15a5.82,5.82,0,0,0,.88.91c.18.15.36.28.55.42a2.74,2.74,0,0,0-1.36.2,7.2,7.2,0,0,0-2.52,2.2A35.4,35.4,0,0,0,135.05,90c-.67,1-1.29,2-1.86,3a11.23,11.23,0,0,0-.76,1.51A1.38,1.38,0,0,0,132.66,96Zm17.51-27.3a48.64,48.64,0,0,0-.71-13.3,83.27,83.27,0,0,0-4.9-16,32.68,32.68,0,0,1,3.53,6.26,37.86,37.86,0,0,1,2.89,16A44.67,44.67,0,0,1,150.17,68.65ZM139.49,71.6a63.93,63.93,0,0,1-.05-7.83c.14-3,.45-6,.81-9,.18-1.46.36-2.93.56-4.4a4.66,4.66,0,0,1,.87-2.52c-.11,2.51-.37,5-.68,7.52-.59,4.78-1.35,9.55-1.49,14.37C139.49,70.35,139.48,71,139.49,71.6Zm-1.68,7.49a18.28,18.28,0,0,0,.55,1.92,24.81,24.81,0,0,1-2.05-3.71,35,35,0,0,1-3-16.12,30.77,30.77,0,0,1,1.33-7.74,14.3,14.3,0,0,1,3.17-5.63,21.26,21.26,0,0,1-.94,3.67c-.43,1.25-.9,2.48-1.27,3.75a24,24,0,0,0-.78,4,23.46,23.46,0,0,0,.58,8.22.26.26,0,0,0,.5.07,6.17,6.17,0,0,0,.41-2.66,2.7,2.7,0,0,1,.62-1.73c0,.43-.06.86-.08,1.29A52.81,52.81,0,0,0,137.81,79.09Zm-4.94,16.13c-.11-.5.36-1.13.59-1.55s.55-1,.84-1.51c.59-1,1.22-1.94,1.9-2.86a26.22,26.22,0,0,1,2.1-2.6,3.44,3.44,0,0,1,2.83-1.43.25.25,0,0,0,.28-.31A12.28,12.28,0,0,1,143,86.2a6.26,6.26,0,0,1,1.39,2c1.34,3.09.45,7.06-2.59,8.77a7.32,7.32,0,0,1-4.77.79,7,7,0,0,1-2.31-.79,6.9,6.9,0,0,1-1-.7A2.38,2.38,0,0,1,132.87,95.22Z"/><path class="cls-5" d="M107.88,75A24.27,24.27,0,0,0,112,79.43a.24.24,0,0,0,.36-.05,22.5,22.5,0,0,0,2.71,2.35.26.26,0,0,0,.37-.36A28.7,28.7,0,0,1,112,74.62a12.33,12.33,0,0,1-.59-3.81,8.34,8.34,0,0,1,.2-1.73,1.9,1.9,0,0,1,.42-.92,22.63,22.63,0,0,0,.18,3.77,22.88,22.88,0,0,0,4.18,10.43c.36.5.75,1,1.15,1.45A4.43,4.43,0,0,0,118.92,85c.26.12.43-.19.31-.4A46.42,46.42,0,0,1,117,80.24a25.17,25.17,0,0,1-2.27-8.1,17,17,0,0,1,.1-4.15,15,15,0,0,1,.43-2,3.08,3.08,0,0,1,.55-1.19,23.55,23.55,0,0,1-.23,2.36c-.08.81-.12,1.63-.13,2.45a27.44,27.44,0,0,0,4.92,15.92l0,.25a.26.26,0,0,0,.24.21,55.81,55.81,0,0,0,4.77,9.45.25.25,0,0,0,.17.11c0,.08,0,.16,0,.24a.25.25,0,0,0,0,.45,8.3,8.3,0,0,0,4.76.13c2.89-.73,5.28-2.69,7.38-4.73,1.89-1.83,3.7-4,4-6.77,0-.33-.49-.41-.52-.07a8.1,8.1,0,0,1-1.57,3.93,19.75,19.75,0,0,1-2.56,2.85,25.23,25.23,0,0,1-3.26,2.66c-2.24,1.48-5.05,2.39-7.7,1.6h0c-.11-1.12-.21-2.24-.31-3.37a61.3,61.3,0,0,1,.26-7.54c.33-3,.94-6.06,1.5-9.07l1.68-9.18,3.41-18.5a.27.27,0,0,0-.36-.28c-1.48.53-2.18,2.06-2.71,3.43-.66,1.73-1.24,3.49-1.75,5.26a82.16,82.16,0,0,0-3,19.47,133.46,133.46,0,0,0,.44,16.49c0,.59,0,1.18,0,1.77a56.71,56.71,0,0,1-3-5.6c-.42-.93-.81-1.87-1.18-2.81a.26.26,0,0,0,0-.2.61.61,0,0,0-.07-.1l-.25-.64a87,87,0,0,1-1.09-12c0-1.93,0-3.85.08-5.77,0-.51.06-1,.09-1.53a.44.44,0,0,0-.47-.52c-.71,0-1.1.87-1.35,1.4-1.34,2.84-.91,6.18-.36,9.17a55.49,55.49,0,0,0,2.13,8.1c-.45-.75-.87-1.52-1.25-2.31a27.49,27.49,0,0,1-2.41-8.27A26.88,26.88,0,0,1,116,68.8q0-1.06.18-2.13a12.86,12.86,0,0,0,.16-2.4.26.26,0,0,0-.36-.21,2.35,2.35,0,0,0-1.13,1.54,14.17,14.17,0,0,0-.53,2.32c-.83,5.59,1.23,11,3.87,15.84l-.57-.68c-.43-.52-.83-1-1.21-1.61a22.38,22.38,0,0,1-3.83-13.77.27.27,0,0,0-.36-.28c-1,.33-1.15,1.5-1.25,2.38-.46,3.85,1.32,7.38,3.3,10.57q-.65-.54-1.26-1.14a22.07,22.07,0,0,1-5.72-9.65c-.07-.24-.4-.2-.49,0C105.91,71.36,106.87,73.48,107.88,75Zm12,7.32a54.89,54.89,0,0,1-1.49-5.77,27,27,0,0,1-.69-5.86,11,11,0,0,1,.37-2.75c.08-.29.78-2.33,1.28-2.32-.1,1.45-.16,2.9-.18,4.34A86.6,86.6,0,0,0,119.86,82.32Zm5.54,4.05c0-.48-.05-1-.06-1.45a100.73,100.73,0,0,1,1-19.4,72,72,0,0,1,2.11-9.39c.47-1.55,1-3.09,1.57-4.6a5.44,5.44,0,0,1,2-2.93l-1.83,9.92q-1.69,9.27-3.41,18.56a86.13,86.13,0,0,0-1.38,9.18A.37.37,0,0,0,125.4,86.37ZM107,70.56a23.57,23.57,0,0,0,.89,2.29,22.62,22.62,0,0,0,2.88,4.7A17.55,17.55,0,0,1,108.49,75C107.64,73.76,106.75,72.09,107,70.56Z"/></g></g></svg>